<svg width="25" height="24" viewBox="0 0 25 24" fill="none" xmlns="http://www.w3.org/2000/svg">
<rect width="24" height="24" rx="12" transform="matrix(-1 0 0 1 24.5 0)" fill="#FF6900"/>
<mask id="mask0_2367_240" style="mask-type:alpha" maskUnits="userSpaceOnUse" x="0" y="0" width="25" height="24">
<rect width="24" height="24" transform="matrix(-1 0 0 1 24.5 0)" fill="#D9D9D9"/>
</mask>
<g mask="url(#mask0_2367_240)">
<path d="M6.08167 12.4183C5.85063 12.1873 5.85063 11.8127 6.08167 11.5817L9.84664 7.8167C10.0777 7.58566 10.4523 7.58566 10.6833 7.8167C10.9143 8.04774 10.9143 8.42232 10.6833 8.65336L7.33666 12L10.6833 15.3466C10.9143 15.5777 10.9143 15.9523 10.6833 16.1833C10.4523 16.4143 10.0777 16.4143 9.84664 16.1833L6.08167 12.4183ZM18.5 12.5916L6.5 12.5916V11.4084L18.5 11.4084V12.5916Z" fill="white"/>
</g>
</svg>
