<svg width="25" height="24" viewBox="0 0 25 24" fill="none" xmlns="http://www.w3.org/2000/svg">
<rect x="0.5" width="24" height="24" rx="12" fill="#FF6900"/>
<mask id="mask0_2367_243" style="mask-type:alpha" maskUnits="userSpaceOnUse" x="0" y="0" width="25" height="24">
<rect x="0.5" width="24" height="24" fill="#D9D9D9"/>
</mask>
<g mask="url(#mask0_2367_243)">
<path d="M18.9183 12.4183C19.1494 12.1873 19.1494 11.8127 18.9183 11.5817L15.1534 7.8167C14.9223 7.58566 14.5477 7.58566 14.3167 7.8167C14.0857 8.04774 14.0857 8.42232 14.3167 8.65336L17.6633 12L14.3167 15.3466C14.0857 15.5777 14.0857 15.9523 14.3167 16.1833C14.5477 16.4143 14.9223 16.4143 15.1534 16.1833L18.9183 12.4183ZM6.5 12.5916L18.5 12.5916V11.4084L6.5 11.4084V12.5916Z" fill="white"/>
</g>
</svg>
