<svg width="13" height="14" viewBox="0 0 13 14" fill="none" xmlns="http://www.w3.org/2000/svg">
<path d="M12.28 7.53095L7.15125 12.656C6.44776 13.3592 5.49373 13.7542 4.49902 13.754C3.50432 13.7538 2.55042 13.3585 1.84718 12.655C1.14395 11.9515 0.74897 10.9975 0.749146 10.0028C0.749321 9.00808 1.14463 8.05419 1.84812 7.35095L7.98312 1.23282C8.45214 0.764055 9.08817 0.500801 9.75128 0.500977C10.0796 0.501064 10.4047 0.565822 10.7081 0.691553C11.0114 0.817285 11.2869 1.00153 11.5191 1.23376C11.7512 1.466 11.9353 1.74167 12.0608 2.04506C12.1864 2.34844 12.251 2.67358 12.2509 3.00192C12.2508 3.33027 12.1861 3.65538 12.0603 3.95869C11.9346 4.26201 11.7504 4.53759 11.5181 4.7697L11.5075 4.7797L5.52 10.5435C5.449 10.6117 5.36525 10.6654 5.27353 10.7013C5.1818 10.7372 5.0839 10.7547 4.98541 10.7528C4.88692 10.7509 4.78978 10.7296 4.69952 10.6901C4.60926 10.6507 4.52766 10.5938 4.45937 10.5228C4.39108 10.4518 4.33745 10.3681 4.30153 10.2764C4.26561 10.1846 4.24811 10.0867 4.25002 9.98824C4.25194 9.88975 4.27323 9.79261 4.31269 9.70235C4.35215 9.61209 4.409 9.53049 4.48 9.4622L10.4619 3.7047C10.6488 3.51656 10.7534 3.26185 10.7526 2.99661C10.7518 2.73136 10.6456 2.4773 10.4575 2.29032C10.3643 2.19774 10.2539 2.12442 10.1324 2.07453C10.0109 2.02465 9.88074 1.99918 9.7494 1.99959C9.48416 2.00041 9.2301 2.10656 9.04312 2.2947L2.90812 8.41095C2.48618 8.83306 2.2492 9.4055 2.24932 10.0023C2.24937 10.2979 2.30764 10.5905 2.42078 10.8635C2.53393 11.1365 2.69974 11.3845 2.90875 11.5935C3.11775 11.8024 3.36586 11.9681 3.63891 12.0811C3.91196 12.1942 4.2046 12.2523 4.50013 12.2523C5.09696 12.2521 5.6693 12.0149 6.09125 11.5928L11.22 6.46783C11.2898 6.39806 11.3726 6.34272 11.4637 6.30496C11.5549 6.26721 11.6526 6.24777 11.7512 6.24777C11.8499 6.24777 11.9476 6.26721 12.0388 6.30496C12.1299 6.34272 12.2127 6.39806 12.2825 6.46783C12.3523 6.53759 12.4076 6.62041 12.4454 6.71157C12.4831 6.80272 12.5025 6.90041 12.5025 6.99908C12.5025 7.09774 12.4831 7.19543 12.4454 7.28659C12.4076 7.37774 12.3523 7.46056 12.2825 7.53033L12.28 7.53095Z" fill="black"/>
</svg>
