<svg width="21" height="17" viewBox="0 0 21 17" fill="none" xmlns="http://www.w3.org/2000/svg">
<path d="M18.5 0.166626H2.5C1.4 0.166626 0.51 1.10413 0.51 2.24996L0.5 14.75C0.5 15.8958 1.4 16.8333 2.5 16.8333H18.5C19.6 16.8333 20.5 15.8958 20.5 14.75V2.24996C20.5 1.10413 19.6 0.166626 18.5 0.166626ZM18.1 4.59371L11.03 9.19788C10.71 9.40621 10.29 9.40621 9.97 9.19788L2.9 4.59371C2.65 4.42704 2.5 4.14579 2.5 3.84371C2.5 3.14579 3.23 2.72913 3.8 3.09371L10.5 7.45829L17.2 3.09371C17.77 2.72913 18.5 3.14579 18.5 3.84371C18.5 4.14579 18.35 4.42704 18.1 4.59371Z" fill="#FF6900"/>
</svg>
