<svg width="16" height="18" viewBox="0 0 16 18" fill="none" xmlns="http://www.w3.org/2000/svg">
<path d="M4 9.55C4 10.65 4.31667 11.7167 4.95 12.75C5.58333 13.7833 6.44167 14.4833 7.525 14.85C7.60833 14.8833 7.68733 14.9043 7.762 14.913C7.83733 14.921 7.91667 14.925 8 14.925C8.08333 14.925 8.16267 14.921 8.238 14.913C8.31267 14.9043 8.39167 14.8833 8.475 14.85C9.55833 14.4833 10.4167 13.7833 11.05 12.75C11.6833 11.7167 12 10.65 12 9.55V7.925C12 7.64167 11.925 7.379 11.775 7.137C11.625 6.89567 11.425 6.70833 11.175 6.575L8.675 5.325C8.45833 5.225 8.23333 5.175 8 5.175C7.76667 5.175 7.54167 5.225 7.325 5.325L4.825 6.575C4.575 6.70833 4.375 6.89567 4.225 7.137C4.075 7.379 4 7.64167 4 7.925V9.55ZM2 18C1.45 18 0.979333 17.8043 0.588 17.413C0.196 17.021 0 16.55 0 16V7C0 6.68333 0.0709998 6.38333 0.213 6.1C0.354333 5.81667 0.55 5.58333 0.8 5.4L6.8 0.9C7.15 0.633333 7.55 0.5 8 0.5C8.45 0.5 8.85 0.633333 9.2 0.9L15.2 5.4C15.45 5.58333 15.646 5.81667 15.788 6.1C15.9293 6.38333 16 6.68333 16 7V16C16 16.55 15.8043 17.021 15.413 17.413C15.021 17.8043 14.55 18 14 18H2ZM2 16H14V7L8 2.5L2 7V16Z" fill="#FF6900"/>
</svg>
