<svg width="25" height="25" viewBox="0 0 25 25" fill="none" xmlns="http://www.w3.org/2000/svg">
<path d="M13.625 8.00003V11.8635L16.8284 13.7853C16.958 13.8599 17.0714 13.9595 17.162 14.0783C17.2526 14.1971 17.3187 14.3328 17.3563 14.4775C17.3938 14.6221 17.4022 14.7728 17.381 14.9207C17.3597 15.0686 17.3091 15.2108 17.2323 15.339C17.1554 15.4672 17.0538 15.5788 16.9333 15.6672C16.8129 15.7557 16.676 15.8193 16.5307 15.8542C16.3854 15.8892 16.2346 15.8949 16.0871 15.8709C15.9396 15.847 15.7983 15.7939 15.6716 15.7147L11.9216 13.4647C11.7549 13.3648 11.617 13.2234 11.5212 13.0544C11.4254 12.8853 11.375 12.6943 11.375 12.5V8.00003C11.375 7.70166 11.4935 7.41551 11.7045 7.20454C11.9155 6.99356 12.2016 6.87503 12.5 6.87503C12.7984 6.87503 13.0845 6.99356 13.2955 7.20454C13.5065 7.41551 13.625 7.70166 13.625 8.00003ZM12.5 3.12503C11.2673 3.12186 10.0462 3.36335 8.90746 3.83551C7.76874 4.30767 6.73504 5.00111 5.86625 5.87566C5.42656 6.32003 5.0225 6.75409 4.625 7.18816V6.50003C4.625 6.20166 4.50647 5.91551 4.2955 5.70454C4.08452 5.49356 3.79837 5.37503 3.5 5.37503C3.20163 5.37503 2.91548 5.49356 2.7045 5.70454C2.49353 5.91551 2.375 6.20166 2.375 6.50003V10.25C2.375 10.5484 2.49353 10.8345 2.7045 11.0455C2.91548 11.2565 3.20163 11.375 3.5 11.375H7.25C7.54837 11.375 7.83452 11.2565 8.0455 11.0455C8.25647 10.8345 8.375 10.5484 8.375 10.25C8.375 9.95166 8.25647 9.66551 8.0455 9.45454C7.83452 9.24356 7.54837 9.12503 7.25 9.12503H5.91594C6.40625 8.56253 6.90969 8.02066 7.46188 7.46191C8.45203 6.47147 9.7121 5.7948 11.0847 5.51645C12.4572 5.23811 13.8813 5.37043 15.1791 5.89689C16.4769 6.42335 17.5907 7.32059 18.3814 8.4765C19.1722 9.6324 19.6047 10.9957 19.625 12.396C19.6453 13.7964 19.2525 15.1717 18.4956 16.35C17.7387 17.5283 16.6513 18.4575 15.3693 19.0213C14.0874 19.5852 12.6677 19.7587 11.2876 19.5203C9.9076 19.2818 8.62844 18.642 7.61 17.6807C7.39294 17.4758 7.10338 17.3655 6.80502 17.3741C6.50666 17.3827 6.22394 17.5095 6.01906 17.7266C5.81418 17.9437 5.70392 18.2332 5.71254 18.5316C5.72115 18.8299 5.84794 19.1127 6.065 19.3175C7.17784 20.368 8.5309 21.13 10.0061 21.5372C11.4812 21.9443 13.0336 21.9841 14.5277 21.6532C16.0218 21.3222 17.4121 20.6306 18.5774 19.6386C19.7426 18.6466 20.6473 17.3844 21.2125 15.9623C21.7776 14.5402 21.9861 13.0014 21.8196 11.4801C21.6531 9.95892 21.1168 8.50157 20.2574 7.23535C19.3981 5.96913 18.2418 4.93253 16.8896 4.21604C15.5374 3.49956 14.0303 3.12499 12.5 3.12503Z" fill="white"/>
</svg>
