<svg width="143" height="143" viewBox="0 0 143 143" fill="none" xmlns="http://www.w3.org/2000/svg">
<g clip-path="url(#clip0_688_9022)">
<path d="M87.8215 0.501953H55.1785C24.8422 0.501953 0.249756 25.0944 0.249756 55.4307V88.0737C0.249756 118.41 24.8422 143.002 55.1785 143.002H87.8215C118.158 143.002 142.75 118.41 142.75 88.0737V55.4307C142.75 25.0944 118.158 0.501953 87.8215 0.501953Z" fill="#094451"/>
<path d="M30.2163 87.7793H112.464V116.378H30.2163V87.7793Z" fill="#D8E8AA"/>
<path d="M95.8802 45.8555C96.5786 45.8555 97.1605 46.4374 97.1605 47.1358C97.1605 47.8342 96.5786 48.4161 95.8802 48.4161C95.1818 48.4161 94.5999 47.8342 94.5999 47.1358C94.5999 46.4374 95.1818 45.8555 95.8802 45.8555Z" fill="#94BB3F"/>
<path d="M84.2718 78.9062C84.9702 78.9062 85.5521 79.4882 85.5521 80.1866C85.5521 80.8849 84.9702 81.4669 84.2718 81.4669C83.5734 81.4669 82.9915 80.8849 82.9915 80.1866C82.9915 79.4882 83.5734 78.9062 84.2718 78.9062Z" fill="#94BB3F"/>
<path d="M78.8319 40.4121C79.5302 40.4121 80.1122 40.9941 80.1122 41.6924C80.1122 42.3908 79.5302 42.9728 78.8319 42.9728C78.1335 42.9728 77.5515 42.3908 77.5515 41.6924C77.5515 40.9941 78.1335 40.4121 78.8319 40.4121Z" fill="#94BB3F"/>
<path d="M78.8319 53.0098C79.5302 53.0098 80.1122 53.5917 80.1122 54.2901C80.1122 54.9885 79.5302 55.5704 78.8319 55.5704C78.1335 55.5704 77.5515 54.9885 77.5515 54.2901C77.5515 53.5917 78.1335 53.0098 78.8319 53.0098Z" fill="#94BB3F"/>
<path d="M55.6732 43.1523C56.3715 43.1523 56.9535 43.7343 56.9535 44.4327C56.9535 45.131 56.3715 45.713 55.6732 45.713C54.9748 45.713 54.3928 45.131 54.3928 44.4327C54.3928 43.7343 54.9748 43.1523 55.6732 43.1523Z" fill="#94BB3F"/>
<path d="M33.2125 79.7539C33.9108 79.7539 34.4928 80.3359 34.4928 81.0342C34.4928 81.7326 33.9108 82.3146 33.2125 82.3146C32.5141 82.3146 31.9321 81.7326 31.9321 81.0342C31.9321 80.3359 32.5141 79.7539 33.2125 79.7539Z" fill="#94BB3F"/>
<path d="M112.464 117.249H30.216C29.7796 117.249 29.3723 116.813 29.3723 116.376V87.7771C29.3723 87.3407 29.8087 86.9043 30.216 86.9043H112.464C112.9 86.9043 113.307 87.3407 113.307 87.7771V116.376C113.307 116.813 112.871 117.249 112.464 117.249ZM31.0597 115.532H111.591V88.6499H31.0597V115.532Z" fill="#94BB3F"/>
<path d="M97.4517 88.6246C97.0153 88.6246 96.5789 88.1882 96.5789 87.7518V56.7089C96.5789 56.2725 97.0153 55.8652 97.4517 55.8652C97.8881 55.8652 98.2954 56.3016 98.2954 56.7089V87.7518C98.2954 88.1882 97.859 88.6246 97.4517 88.6246Z" fill="#94BB3F"/>
<path d="M97.4519 84.203C97.161 84.203 97.0155 84.0576 96.87 83.9121C96.7246 83.7666 96.5791 83.3302 96.5791 83.0684C97.161 80.0717 98.5866 77.337 100.739 75.2131C102.892 73.0602 105.598 71.6346 108.595 71.0527C108.886 71.0527 109.177 71.0527 109.438 71.3437C109.584 71.4891 109.729 71.9255 109.729 72.2165C109.148 75.2131 107.722 77.9479 105.569 80.0718C103.416 82.2247 100.71 83.6503 97.7138 84.2321H97.4228L97.4519 84.203ZM107.606 73.1766C105.453 73.7584 103.591 74.8931 102.02 76.4641C100.449 78.0352 99.3139 79.8972 98.732 82.0501C100.885 81.4682 102.747 80.3336 104.318 78.7625C105.889 77.1915 107.024 75.184 107.606 73.1766Z" fill="#94BB3F"/>
<path d="M97.4512 84.2028H97.3057C94.3091 83.621 91.5743 82.1954 89.4504 80.0425C87.2975 77.8895 85.8719 75.1838 85.29 72.1872C85.29 71.8962 85.29 71.6053 85.581 71.3144C85.7264 71.1689 86.1628 71.0234 86.4538 71.0234C89.4504 71.6053 92.1852 73.0309 94.3091 75.1838C96.462 77.3368 97.8876 80.0425 98.4694 83.0391V83.33C98.324 83.7664 97.8876 84.2028 97.4803 84.2028H97.4512ZM87.2975 73.1764C87.8794 75.3293 89.014 77.1913 90.5851 78.7623C92.1561 80.3334 94.0181 81.468 96.1711 82.0499C95.5892 79.897 94.4545 78.035 92.8835 76.4639C91.3124 74.8929 89.4504 73.7582 87.2975 73.1764Z" fill="#94BB3F"/>
<path d="M97.4519 74.0485C97.161 74.0485 97.0155 73.9031 96.87 73.7576C96.7246 73.6121 96.5791 73.1757 96.5791 72.8848C97.161 69.8882 98.5866 67.1534 100.739 65.0295C102.892 62.9057 105.598 61.451 108.595 60.8691C108.886 60.8691 109.177 60.8691 109.438 61.1601C109.584 61.3055 109.729 61.7419 109.729 62.0329C109.148 65.0295 107.722 67.7643 105.569 69.8882C103.416 72.012 100.71 73.4667 97.7138 74.0485H97.4228H97.4519ZM107.606 63.0221C105.453 63.6039 103.591 64.7386 102.02 66.3096C100.449 67.8807 99.3139 69.7427 98.732 71.8956C100.885 71.3137 102.747 70.1791 104.318 68.608C105.889 67.037 107.024 65.175 107.606 63.0221Z" fill="#94BB3F"/>
<path d="M97.4512 74.0485H97.3057C94.3091 73.4667 91.5743 72.0411 89.4504 69.8882C87.3266 67.7352 85.8719 65.0295 85.29 62.0329C85.29 61.7419 85.29 61.451 85.581 61.1601C85.7264 61.0146 86.1628 60.8691 86.4538 60.8691C89.4504 61.451 92.1852 62.8766 94.3091 65.0295C96.4329 67.1825 97.8876 69.8882 98.4694 72.8848V73.1757C98.324 73.6121 97.8876 74.0485 97.4803 74.0485H97.4512ZM87.2975 63.0221C87.8794 65.175 89.014 67.037 90.5851 68.608C92.1561 70.1791 94.0181 71.3137 96.1711 71.8956C95.5892 69.7427 94.4545 67.8807 92.8835 66.3096C91.3124 64.7386 89.4504 63.6039 87.2975 63.0221Z" fill="#94BB3F"/>
<path d="M97.4519 63.8942C97.161 63.8942 97.0155 63.7488 96.87 63.6033C96.7246 63.4578 96.5791 63.0214 96.5791 62.7305C97.161 59.7339 98.5866 56.9991 100.739 54.8752C102.892 52.7514 105.598 51.2967 108.595 50.7148C108.886 50.7148 109.177 50.7148 109.438 51.0058C109.729 51.2967 109.729 51.5877 109.729 51.8786C109.148 54.8752 107.722 57.61 105.569 59.7339C103.416 61.8577 100.71 63.3124 97.7138 63.8942H97.4228H97.4519ZM107.606 52.8678C105.453 53.4496 103.591 54.5843 102.02 56.1553C100.449 57.7264 99.3139 59.5884 98.732 61.7413C100.885 61.1594 102.747 60.0248 104.318 58.4537C105.889 56.8827 107.024 55.0207 107.606 52.8678Z" fill="#94BB3F"/>
<path d="M97.4512 63.8942H97.3057C94.3091 63.3124 91.5743 61.8868 89.4504 59.7339C87.3266 57.5809 85.8719 54.8752 85.29 51.8786C85.29 51.5877 85.29 51.2967 85.581 51.0058C85.7264 50.8603 86.1628 50.7148 86.4538 50.7148C89.4504 51.2967 92.1852 52.7223 94.3091 54.8752C96.4329 57.0282 97.8876 59.7339 98.4694 62.7305V63.0214C98.324 63.6033 97.8876 63.8652 97.4803 63.8652L97.4512 63.8942ZM87.2975 52.8678C87.8794 55.0207 89.014 56.8827 90.5851 58.4537C92.1561 60.0248 94.0181 61.1594 96.1711 61.7413C95.5892 59.5884 94.4545 57.7264 92.8835 56.1553C91.3124 54.7298 89.4504 53.5951 87.2975 52.8678Z" fill="#94BB3F"/>
<path d="M70.8303 88.6246C70.3939 88.6246 69.9866 88.1882 69.9866 87.7518V56.7089C69.9866 56.2725 70.423 55.8652 70.8303 55.8652C71.2376 55.8652 71.7031 56.3016 71.7031 56.7089V87.7518C71.7031 88.1882 71.4122 88.6246 70.8303 88.6246Z" fill="#94BB3F"/>
<path d="M70.8306 84.203C70.5396 84.203 70.3942 84.0576 70.2487 83.9121C70.1032 83.7666 69.9578 83.3302 69.9578 83.0684C70.5396 80.0717 71.9652 77.337 74.1182 75.2131C76.2711 73.0602 78.9768 71.6346 81.9734 71.0527C82.2644 71.0527 82.5553 71.0527 82.8462 71.3437C82.9917 71.4891 83.1372 71.9255 83.1372 72.2165C82.5553 75.2131 81.1297 77.9479 78.9768 80.0718C76.8239 82.2247 74.1182 83.6503 71.1215 84.2321H70.8306V84.203ZM80.9842 73.1766C78.8313 73.7584 76.9693 74.8931 75.3983 76.4641C73.8272 78.0352 72.6926 79.8972 72.1107 82.0501C74.2636 81.4682 76.1256 80.3336 77.6967 78.7625C79.2677 77.1915 80.4024 75.184 80.9842 73.1766Z" fill="#94BB3F"/>
<path d="M70.8308 84.2028H70.6853C67.6887 83.621 64.9539 82.1954 62.8301 80.0425C60.6771 77.8895 59.2515 75.1838 58.6697 72.1872C58.6697 71.8962 58.6697 71.6053 58.9606 71.3144C59.1061 71.1689 59.5425 71.0234 59.8334 71.0234C62.8301 71.6053 65.5649 73.0309 67.6887 75.1838C69.8416 77.3368 71.2672 80.0425 71.8491 83.0391V83.33C71.8491 83.7664 71.4127 84.2028 70.8599 84.2028H70.8308ZM60.6771 73.1764C61.259 75.3293 62.3937 77.1913 63.9647 78.7623C65.5358 80.3334 67.3978 81.468 69.5507 82.0499C68.9688 79.897 67.8342 78.035 66.2631 76.4639C64.6921 74.8929 62.8301 73.7582 60.6771 73.1764Z" fill="#94BB3F"/>
<path d="M70.8306 74.0485C70.5396 74.0485 70.3942 73.9031 70.2487 73.7576C70.1032 73.6121 69.9578 73.1757 69.9578 72.8848C70.5396 69.8882 71.9652 67.1534 74.1182 65.0295C76.2711 62.9057 78.9768 61.451 81.9734 60.8691C82.2644 60.8691 82.5553 60.8691 82.8462 61.1601C82.9917 61.3055 83.1372 61.7419 83.1372 62.0329C82.5553 65.0295 81.1297 67.7643 78.9768 69.8882C76.8239 72.012 74.1182 73.4667 71.1215 74.0485H70.8306ZM80.9842 63.0221C78.8313 63.6039 76.9693 64.7386 75.3983 66.3096C73.8272 67.8807 72.6926 69.7427 72.1107 71.8956C74.2636 71.3137 76.1256 70.1791 77.6967 68.608C79.2677 67.037 80.4024 65.175 80.9842 63.0221Z" fill="#94BB3F"/>
<path d="M70.8308 74.0485H70.6853C67.6887 73.4667 64.9539 72.0411 62.8301 69.8882C60.7062 67.7352 59.2515 65.0295 58.6697 62.0329C58.6697 61.7419 58.6697 61.451 58.9606 61.1601C59.1061 61.0146 59.5425 60.8691 59.8334 60.8691C62.8301 61.451 65.5649 62.8766 67.6887 65.0295C69.8125 67.1825 71.2672 69.8882 71.8491 72.8848V73.1757C71.8491 73.6121 71.4127 74.0485 70.8599 74.0485H70.8308ZM60.6771 63.0221C61.259 65.175 62.3937 67.037 63.9647 68.608C65.5358 70.1791 67.3978 71.3137 69.5507 71.8956C68.9688 69.7427 67.8342 67.8807 66.2631 66.3096C64.6921 64.7386 62.8301 63.6039 60.6771 63.0221Z" fill="#94BB3F"/>
<path d="M44.3555 88.6246C43.9191 88.6246 43.4827 88.1882 43.4827 87.7518V56.7089C43.4827 56.2725 43.9191 55.8652 44.3555 55.8652C44.7919 55.8652 45.1992 56.3016 45.1992 56.7089V87.7518C45.1992 88.1882 44.7628 88.6246 44.3555 88.6246Z" fill="#94BB3F"/>
<path d="M44.3557 84.203C44.0648 84.203 43.9193 84.0576 43.7738 83.9121C43.6284 83.7666 43.4829 83.3302 43.4829 83.0684C44.0648 80.0717 45.4904 77.337 47.6433 75.2131C49.7962 73.0602 52.5019 71.6346 55.4986 71.0527C55.7895 71.0527 56.0804 71.0527 56.3714 71.3437C56.5168 71.4891 56.6623 71.9255 56.6623 72.2165C56.0804 75.2131 54.6549 77.9479 52.5019 80.0718C50.349 82.2247 47.6433 83.6503 44.6467 84.2321H44.3557V84.203ZM54.5385 73.1766C52.3856 73.7584 50.5236 74.8931 48.9525 76.4641C47.3815 78.0352 46.2468 79.8972 45.6649 82.0501C47.8179 81.4682 49.6799 80.3336 51.2509 78.7625C52.6765 77.1915 53.8111 75.184 54.5385 73.1766Z" fill="#94BB3F"/>
<path d="M44.3555 84.2028H44.21C41.2134 83.621 38.4786 82.1954 36.3547 80.0425C34.2018 77.8895 32.7762 75.1838 32.1943 72.1872C32.1943 71.8962 32.1943 71.6053 32.4853 71.3144C32.6307 71.1689 33.0671 71.0234 33.3581 71.0234C36.3547 71.6053 39.0895 73.0309 41.2134 75.1838C43.3663 77.3368 44.7919 80.0425 45.3737 83.0391V83.33C45.2283 83.7664 44.7919 84.2028 44.3846 84.2028H44.3555ZM34.0563 73.1764C34.6382 75.3293 35.7729 77.1913 37.3439 78.7623C38.915 80.3334 40.777 81.468 42.9299 82.0499C42.348 79.897 41.2134 78.035 39.6423 76.4639C38.2167 74.8929 36.2093 73.7582 34.0563 73.1764Z" fill="#94BB3F"/>
<path d="M44.3557 74.0485C44.0648 74.0485 43.9193 73.9031 43.7738 73.7576C43.6284 73.6121 43.4829 73.1757 43.4829 72.8848C44.0648 69.8882 45.4904 67.1534 47.6433 65.0295C49.7962 62.8766 52.5019 61.451 55.4986 60.8691C55.7895 60.8691 56.0804 60.8691 56.3714 61.1601C56.5168 61.3055 56.6623 61.7419 56.6623 62.0329C56.0804 65.0295 54.6549 67.7643 52.5019 69.8882C50.349 72.012 47.6433 73.4667 44.6467 74.0485H44.3557ZM54.5385 63.0221C52.3856 63.6039 50.5236 64.7386 48.9525 66.3096C47.3815 67.8807 46.2468 69.7427 45.6649 71.8956C47.8179 71.3137 49.6799 70.1791 51.2509 68.608C52.6765 67.037 53.8111 65.175 54.5385 63.0221Z" fill="#94BB3F"/>
<path d="M44.3555 74.0485H44.21C41.2134 73.4667 38.4786 72.0411 36.3547 69.8882C34.2309 67.7352 32.7762 65.0295 32.1943 62.0329C32.1943 61.7419 32.1943 61.451 32.4853 61.1601C32.6307 61.0146 33.0671 60.8691 33.3581 60.8691C36.3547 61.451 39.0895 62.8766 41.2134 65.0295C43.3372 67.1825 44.7919 69.8882 45.3737 72.8848V73.1757C45.2283 73.6121 44.7919 74.0485 44.3846 74.0485H44.3555ZM34.0563 63.0221C34.6382 65.175 35.7729 67.037 37.3439 68.608C38.915 70.1791 40.777 71.3137 42.9299 71.8956C42.348 69.7427 41.2134 67.8807 39.6423 66.3096C38.2167 64.7386 36.2093 63.6039 34.0563 63.0221Z" fill="#94BB3F"/>
<path d="M44.3557 63.8942C44.0648 63.8942 43.9193 63.7488 43.7738 63.6033C43.6284 63.4578 43.4829 63.0214 43.4829 62.7305C44.0648 59.7339 45.4904 56.9991 47.6433 54.8752C49.7962 52.7223 52.5019 51.2967 55.4986 50.7148C55.7895 50.7148 56.0804 50.7148 56.3714 51.0058C56.5168 51.1512 56.6623 51.5877 56.6623 51.8786C56.0804 54.8752 54.6549 57.61 52.5019 59.7339C50.349 61.8577 47.6433 63.3124 44.6467 63.8942H44.3557ZM54.5385 52.8678C52.3856 53.4496 50.5236 54.5843 48.9525 56.1553C47.3815 57.7264 46.2468 59.5884 45.6649 61.7413C47.8179 61.1594 49.6799 60.0248 51.2509 58.4537C52.6765 56.8827 53.8111 55.0207 54.5385 52.8678Z" fill="#94BB3F"/>
<path d="M44.3555 63.8942H44.21C41.2134 63.3124 38.4786 61.8868 36.3547 59.7339C34.2309 57.5809 32.7762 54.8752 32.1943 51.8786C32.1943 51.5877 32.1943 51.2967 32.4853 51.0058C32.6307 50.8603 33.0671 50.7148 33.3581 50.7148C36.3547 51.2967 39.0895 52.7223 41.2134 54.8752C43.3372 57.0282 44.7919 59.7339 45.3737 62.7305V63.0214C45.2283 63.6033 44.7919 63.8652 44.3846 63.8652L44.3555 63.8942ZM34.0563 52.8678C34.6382 55.0207 35.7729 56.8827 37.3439 58.4537C38.915 60.0248 40.777 61.1594 42.9299 61.7413C42.348 59.5884 41.2134 57.7264 39.6423 56.1553C38.2167 54.7298 36.2093 53.5951 34.0563 52.8678Z" fill="#94BB3F"/>
<path d="M73.1291 104.797H53.3745C52.9381 104.797 52.5017 104.361 52.5017 103.924C52.5017 102.499 51.3671 101.218 49.796 101.218C48.225 101.218 47.0903 102.353 47.0903 103.924C47.0903 104.361 46.6539 104.797 46.2175 104.797H37.1985C36.7621 104.797 36.3257 104.361 36.3257 103.924C36.3257 103.488 36.7621 103.08 37.1985 103.08H45.3447C45.7811 101.073 47.6431 99.502 49.7669 99.502C51.8908 99.502 53.7819 101.073 54.1892 103.08H73.0709C73.5073 103.08 73.9146 103.517 73.9146 103.924C73.9146 104.331 73.4782 104.797 73.0709 104.797H73.1291Z" fill="#94BB3F"/>
<path d="M82.0023 97.6404H67.6882C67.2518 97.6404 66.8445 97.2039 66.8445 96.7675C66.8445 96.3311 67.2809 95.9238 67.6882 95.9238H82.0023C82.4387 95.9238 82.8751 96.3602 82.8751 96.7675C82.8751 97.1749 82.4387 97.6404 82.0023 97.6404Z" fill="#94BB3F"/>
<path d="M87.4139 110.097H80.2568C79.8204 110.097 79.384 109.661 79.384 109.224C79.384 108.788 79.8204 108.352 80.2568 108.352H87.4139C87.8503 108.352 88.2576 108.788 88.2576 109.224C88.2576 109.661 87.8212 110.097 87.4139 110.097Z" fill="#94BB3F"/>
<path d="M96.288 104.801H87.269C86.8326 104.801 86.4253 104.364 86.4253 103.928C86.4253 103.491 86.8617 103.084 87.269 103.084H96.288C96.7244 103.084 97.1608 103.52 97.1608 103.928C97.1608 104.335 96.7244 104.801 96.288 104.801Z" fill="#94BB3F"/>
<path d="M112.464 97.6404H94.5715C94.1351 97.6404 93.6987 97.2039 93.6987 96.7675C93.6987 96.3311 94.1351 95.9238 94.5715 95.9238H112.464C112.901 95.9238 113.308 96.3602 113.308 96.7675C113.308 97.1749 112.871 97.6404 112.464 97.6404Z" fill="#94BB3F"/>
<path d="M37.344 95.7827H30.187C29.7506 95.7827 29.3433 95.3463 29.3433 94.9099C29.3433 94.4735 29.7797 94.0371 30.187 94.0371H37.344C37.7804 94.0371 38.2168 94.4735 38.2168 94.9099C38.2168 95.3463 37.7804 95.7827 37.344 95.7827Z" fill="#94BB3F"/>
<path d="M42.6385 111.953H37.198C36.7616 111.953 36.3252 111.516 36.3252 111.08C36.3252 110.644 36.7616 110.236 37.198 110.236H42.6385C43.0749 110.236 43.5113 110.673 43.5113 111.08C43.5113 111.487 43.0749 111.953 42.6385 111.953Z" fill="#94BB3F"/>
<path d="M57.8259 97.6404H49.8252C49.3888 97.6404 48.9524 97.2039 48.9524 96.7675C48.9524 96.3311 49.3888 95.9238 49.8252 95.9238H57.8259C58.2623 95.9238 58.6988 96.3602 58.6988 96.7675C58.6988 97.1749 58.4078 97.6404 57.8259 97.6404Z" fill="#94BB3F"/>
<path d="M67.6881 110.097H56.1089C55.6725 110.097 55.2361 109.661 55.2361 109.224C55.2361 108.788 55.6725 108.352 56.1089 108.352H67.6881C68.1246 108.352 68.561 108.788 68.561 109.224C68.561 109.661 68.1246 110.097 67.6881 110.097Z" fill="#94BB3F"/>
<path d="M103.444 111.955C102.019 111.955 100.739 110.821 100.739 109.25C100.739 107.679 101.873 106.545 103.444 106.545C104.87 106.545 106.15 107.679 106.15 109.25C106.15 110.676 104.87 111.955 103.444 111.955ZM103.444 108.378C103.008 108.378 102.601 108.814 102.601 109.25C102.601 109.686 103.037 110.123 103.444 110.123C103.852 110.123 104.317 109.686 104.317 109.25C104.317 108.814 103.881 108.378 103.444 108.378Z" fill="#94BB3F"/>
<path d="M43.5112 96.7992C42.0858 96.7992 40.8059 95.6647 40.8059 94.0939C40.8059 92.5231 41.9404 91.3887 43.5112 91.3887C44.9365 91.3887 46.2164 92.5231 46.2164 94.0939C46.2164 95.6647 45.0819 96.7992 43.5112 96.7992ZM43.5112 93.2213C43.0748 93.2213 42.6385 93.6576 42.6385 94.0939C42.6385 94.5302 43.0748 94.9666 43.5112 94.9666C43.9475 94.9666 44.3838 94.5302 44.3838 94.0939C44.3838 93.6576 44.0929 93.2213 43.5112 93.2213Z" fill="#94BB3F"/>
<path d="M73.1291 113.672C71.7037 113.672 70.4238 112.538 70.4238 110.967C70.4238 109.396 71.5583 108.262 73.1291 108.262C74.5544 108.262 75.8343 109.396 75.8343 110.967C75.6889 112.538 74.5544 113.672 73.1291 113.672ZM73.1291 110.094C72.6927 110.094 72.2564 110.531 72.2564 110.967C72.2564 111.403 72.6927 111.811 73.1291 111.811C73.5654 111.811 73.9726 111.374 73.9726 110.967C73.9726 110.56 73.5363 110.094 73.1291 110.094Z" fill="#94BB3F"/>
<path d="M104.318 47.5691C102.31 47.5691 100.739 45.9981 100.739 43.9906C100.739 41.9832 102.31 40.4121 104.318 40.4121C106.325 40.4121 107.896 41.9832 107.896 43.9906C107.896 45.9981 106.325 47.5691 104.318 47.5691ZM104.318 42.1286C103.328 42.1286 102.456 43.0014 102.456 43.9906C102.456 44.9798 103.299 45.8526 104.318 45.8526C105.336 45.8526 106.18 44.9798 106.18 43.9906C106.18 43.0014 105.336 42.1286 104.318 42.1286Z" fill="#94BB3F"/>
<path d="M66.4082 54.7256C64.6917 54.7256 63.2661 53.3 63.2661 51.5835C63.2661 49.867 64.6917 48.4414 66.4082 48.4414C68.1247 48.4414 69.5503 49.867 69.5503 51.5835C69.4049 53.3 68.1247 54.7256 66.4082 54.7256ZM66.4082 50.2743C65.6809 50.2743 65.1281 50.8562 65.1281 51.5544C65.1281 52.2527 65.71 52.8345 66.4082 52.8345C67.1065 52.8345 67.6883 52.2527 67.6883 51.5544C67.6883 50.8562 67.1065 50.2743 66.4082 50.2743Z" fill="#94BB3F"/>
<path d="M39.0604 47.5724C36.0637 47.5724 33.6199 45.1286 33.6199 42.1319C33.6199 39.1353 36.0637 36.6914 39.0604 36.6914C42.057 36.6914 44.5009 39.1353 44.5009 42.1319C44.5009 45.1286 42.057 47.5724 39.0604 47.5724ZM39.0604 38.5534C37.0529 38.5534 35.4819 40.1245 35.4819 42.1319C35.4819 44.1394 37.0529 45.7104 39.0604 45.7104C41.0678 45.7104 42.6389 44.1394 42.6389 42.1319C42.6389 40.1245 41.0678 38.5534 39.0604 38.5534Z" fill="#94BB3F"/>
</g>
<defs>
<clipPath id="clip0_688_9022">
<rect width="142.5" height="142.5" fill="white" transform="translate(0.249756 0.501953)"/>
</clipPath>
</defs>
</svg>
