<svg width="144" height="143" viewBox="0 0 144 143" fill="none" xmlns="http://www.w3.org/2000/svg">
<g clip-path="url(#clip0_688_8310)">
<path d="M88.3215 0.00195312H55.6785C25.3422 0.00195312 0.749756 24.5944 0.749756 54.9307V87.5737C0.749756 117.91 25.3422 142.502 55.6785 142.502H88.3215C118.658 142.502 143.25 117.91 143.25 87.5737V54.9307C143.25 24.5944 118.658 0.00195312 88.3215 0.00195312Z" fill="#094451"/>
<path d="M95.5078 55.9168C96.526 56.906 96.526 58.4771 95.5078 59.4954L92.9184 62.0556L77.4697 46.8978L80.0591 44.3376C81.0773 43.3484 82.6484 43.3484 83.6667 44.3376L95.5078 55.9168Z" fill="#D8E8AA"/>
<path d="M89.0198 65.9273L85.8486 69.0694L79.4771 75.3827L76.1604 78.5248L60.8572 63.3671L73.7166 50.7695L89.0198 65.9273Z" fill="#D8E8AA"/>
<path d="M72.4072 82.3921L69.8179 84.9524C68.7996 85.9416 67.2286 85.9416 66.2103 84.9524L54.5147 73.3731C53.4964 72.3839 53.4964 70.8129 54.5147 69.7946L57.104 67.2344L72.4072 82.3921Z" fill="#D8E8AA"/>
<path d="M109.968 54.0566C110.695 54.0566 111.277 54.6386 111.277 55.337C111.277 56.0353 110.695 56.6173 109.968 56.6173C109.24 56.6173 108.658 56.0353 108.658 55.337C108.513 54.6095 109.24 54.0566 109.968 54.0566Z" fill="#94BB3F"/>
<path d="M97.2535 38.8984C97.981 38.8984 98.563 39.4804 98.563 40.1788C98.563 40.8771 97.981 41.4591 97.2535 41.4591C96.5261 41.4591 95.9441 40.8771 95.9441 40.1788C95.9441 39.4804 96.5261 38.8984 97.2535 38.8984Z" fill="#94BB3F"/>
<path d="M91.9002 96.9727C92.6276 96.9727 93.2096 97.5546 93.2096 98.253C93.2096 98.9514 92.6276 99.5333 91.9002 99.5333C91.1727 99.5333 90.5907 98.9514 90.5907 98.253C90.4453 97.5255 91.1727 96.9727 91.9002 96.9727Z" fill="#94BB3F"/>
<path d="M58.53 45.0371C59.2574 45.0371 59.8394 45.6191 59.8394 46.3174C59.8394 47.0158 59.2574 47.5978 58.53 47.5978C57.8025 47.5978 57.2205 47.0158 57.2205 46.3174C57.075 45.7355 57.657 45.0371 58.53 45.0371Z" fill="#94BB3F"/>
<path d="M49.4237 84.4023C50.1512 84.4023 50.7331 84.9843 50.7331 85.6827C50.7331 86.381 50.1512 86.963 49.4237 86.963C48.6962 86.963 48.1143 86.381 48.1143 85.6827C48.1143 85.1007 48.6962 84.4023 49.4237 84.4023Z" fill="#94BB3F"/>
<path d="M38.6009 65.6328C39.3284 65.6328 39.9104 66.2148 39.9104 66.9131C39.9104 67.6115 39.3284 68.1935 38.6009 68.1935C37.8735 68.1935 37.2915 67.6115 37.2915 66.9131C37.2915 66.2148 37.8735 65.6328 38.6009 65.6328Z" fill="#94BB3F"/>
<path d="M67.9273 86.5198C67.0545 86.5198 66.0362 86.0834 65.4834 85.5306L53.7878 73.9513C53.0605 73.224 52.7695 72.3803 52.7695 71.5075C52.7695 70.6346 53.2059 69.6455 53.7878 69.0636L56.3771 66.5034C56.6681 66.2124 57.2499 66.2124 57.6864 66.5034C57.9773 66.7943 57.9773 67.3471 57.6864 67.7835L55.097 70.3437C54.8061 70.6347 54.6606 71.0711 54.6606 71.4784C54.6606 71.8857 54.8061 72.3221 55.097 72.613L66.7927 84.1923C67.0836 84.4832 67.52 84.6287 67.9564 84.6287C68.3928 84.6287 68.8292 84.4832 69.1201 84.1923L71.7095 81.632C72.0004 81.3411 72.5823 81.3411 73.0187 81.632C73.3096 81.923 73.3096 82.4757 73.0187 82.9122L70.4294 85.4724C69.8475 86.1997 68.8292 86.4616 67.9855 86.4616L67.9273 86.5198Z" fill="#94BB3F"/>
<path d="M60.8572 64.213C60.5663 64.213 60.4208 64.0675 60.2753 63.922C59.9844 63.6311 59.9844 63.0783 60.2753 62.6419L72.9892 50.0444C73.2802 49.7534 73.862 49.7534 74.2985 50.0444C74.5894 50.3353 74.5894 50.8881 74.2985 51.3245L61.5845 63.922C61.4391 64.213 61.1481 64.213 60.8572 64.213Z" fill="#94BB3F"/>
<path d="M85.8488 69.9403C85.5579 69.9403 85.4124 69.7949 85.267 69.6494C84.9761 69.3585 84.9761 68.8058 85.267 68.3695L88.4377 65.2279C88.7285 64.937 89.3103 64.937 89.7467 65.2279C90.0375 65.5188 90.0375 66.0715 89.7467 66.5078L86.576 69.6494C86.2851 69.7949 85.9942 69.9403 85.8488 69.9403Z" fill="#94BB3F"/>
<path d="M76.1603 79.3954C75.8694 79.3954 75.724 79.2499 75.5785 79.1045C75.2876 78.8136 75.2876 78.2318 75.5785 77.8246L78.7492 74.683C79.0401 74.3921 79.6218 74.3921 80.0582 74.683C80.4945 74.9739 80.3491 75.5557 80.0582 75.9629L76.8875 79.1045C76.7421 79.3954 76.4512 79.3954 76.1603 79.3954Z" fill="#94BB3F"/>
<path d="M108.076 102.845C106.622 102.845 105.341 102.263 104.178 101.274L78.7499 75.9627C78.459 75.6718 78.459 75.119 78.7499 74.6826L85.0923 68.3984C85.0923 68.3984 85.5288 68.1074 85.6742 68.1074C85.8197 68.1074 86.1106 68.2529 86.2561 68.3984L111.684 93.5643C112.702 94.5535 113.284 96.0082 113.284 97.4338C113.284 98.8594 112.702 100.139 111.684 101.303C110.811 102.292 109.502 102.874 108.076 102.874V102.845ZM80.641 75.3808L105.487 99.994C106.214 100.721 107.087 100.983 108.076 100.983C109.065 100.983 109.967 100.547 110.666 99.994C111.393 99.2667 111.684 98.423 111.684 97.4338C111.684 96.4446 111.247 95.5718 110.666 94.8735L85.8197 70.4058L80.6119 75.4099L80.641 75.3808Z" fill="#94BB3F"/>
<path d="M92.7728 62.9308C92.4818 62.9308 92.3364 62.7853 92.1909 62.6399C91.9 62.3489 91.9 61.767 92.1909 61.3597L94.7802 58.7995C95.0712 58.5086 95.2167 58.0722 95.2167 57.6648C95.2167 57.2575 95.0712 56.792 94.7802 56.5302L83.0846 44.9509C82.7937 44.66 82.3573 44.5145 81.9209 44.5145C81.4845 44.5145 81.0481 44.66 80.7571 44.9509L78.1678 47.5112C77.8769 47.8021 77.295 47.8021 76.8586 47.5112C76.5676 47.2202 76.5676 46.6675 76.8586 46.2311L79.4479 43.6708C80.1753 42.9435 81.0481 42.6816 81.8918 42.6816C82.7355 42.6816 83.7829 43.118 84.3356 43.6708L96.0313 55.2501C96.7586 55.9774 97.0495 56.8211 97.0495 57.6939C97.0495 58.5667 96.6131 59.5559 96.0313 60.1378L93.4419 62.698C93.2965 62.989 93.0055 62.989 92.7146 62.989L92.7728 62.9308Z" fill="#94BB3F"/>
<path d="M74.2699 84.258C73.5426 84.258 72.6698 83.9671 72.2334 83.4143L55.9119 67.3837C54.7481 66.2491 54.7481 64.3871 55.9119 63.2233L56.9301 62.2341C57.512 61.6523 58.2394 61.3613 58.9376 61.3613C59.6359 61.3613 60.5378 61.6523 60.9742 62.2341L61.4106 62.6705L77.1502 78.2647C78.3139 79.3994 78.3139 81.2614 77.1502 82.4251L76.4229 83.4143C75.841 83.9962 75.1137 84.258 74.2699 84.258ZM58.9667 63.2233C58.6758 63.2233 58.3848 63.3688 58.0939 63.5143L57.2211 64.5034C56.7847 64.9398 56.7847 65.6381 57.2211 66.0745L73.5426 82.1051C73.5426 82.1051 73.979 82.396 74.4154 82.396C74.7063 82.396 74.9973 82.2505 75.2882 82.1051L76.3065 81.1159C76.7429 80.6795 76.7429 79.9812 76.3065 79.5448L75.8701 79.1084L59.8395 63.5143C59.5486 63.3688 59.2576 63.2233 58.9667 63.2233Z" fill="#94BB3F"/>
<path d="M90.8817 67.7912C90.1544 67.7912 89.2816 67.5003 88.8452 66.9475L72.5237 50.9169C71.3599 49.7823 71.3599 47.9203 72.5237 46.7565L73.542 45.7673C74.1238 45.1855 74.8512 44.8945 75.5494 44.8945C76.2477 44.8945 77.1496 45.1855 77.586 45.7673L93.9075 61.9434C94.4894 62.5253 94.7803 63.2235 94.7803 63.9508C94.7803 64.6782 94.4894 65.5219 93.9075 65.9583L92.8892 66.9475C92.4528 67.5294 91.7255 67.7912 90.8817 67.7912ZM75.5785 46.7565C75.2876 46.7565 74.9966 46.902 74.7057 47.0475L73.6874 48.0366C73.251 48.473 73.251 49.1713 73.6874 49.6077L90.0089 65.7837C90.0089 65.7837 90.4453 66.0747 90.8817 66.0747C91.3182 66.0747 91.4636 65.9292 91.7546 65.7837L92.7728 64.7946C92.7728 64.7946 93.0638 64.3582 93.0638 63.9217C93.0638 63.6308 92.9183 63.3399 92.7728 63.078L76.4513 47.0475C76.1604 46.902 75.8694 46.7565 75.5785 46.7565Z" fill="#94BB3F"/>
<path d="M85.994 112.998C85.5576 112.998 85.1212 112.562 85.1212 112.126V109.274C85.1212 106.976 83.2301 104.968 80.7863 104.968H75.1421C74.7057 104.968 74.2693 104.532 74.2693 104.125C74.2693 103.717 74.7057 103.252 75.1421 103.252H80.7863C84.1029 103.252 86.8668 105.958 86.8668 109.274V112.126C86.8668 112.707 86.5759 112.998 85.994 112.998Z" fill="#94BB3F"/>
<path d="M38.1643 112.998C37.7279 112.998 37.2915 112.562 37.2915 112.126V109.274C37.2915 105.987 40.0263 103.252 43.3721 103.252H49.0162C49.4526 103.252 49.889 103.688 49.889 104.125C49.889 104.561 49.4526 104.968 49.0162 104.968H43.3721C41.0737 104.968 39.0371 106.83 39.0371 109.274V112.126C39.0371 112.707 38.6007 112.998 38.1643 112.998Z" fill="#94BB3F"/>
<path d="M75.1422 105H48.9871C48.5507 105 48.1143 104.564 48.1143 104.157V101.306C48.1143 98.018 50.8491 95.2832 54.1948 95.2832H70.0799C73.3966 95.2832 76.1605 97.9889 76.1605 101.306V104.157C76.015 104.593 75.7241 105 75.1422 105ZM49.8599 103.284H74.2694V101.276C74.2694 98.9781 72.3783 96.9706 69.9345 96.9706H54.0494C51.751 96.9706 49.7144 98.8326 49.7144 101.276V103.284H49.8599Z" fill="#94BB3F"/>
<path d="M96.817 113.004H34.5566C34.1202 113.004 33.6838 112.567 33.6838 112.131C33.6838 111.694 34.1202 111.287 34.5566 111.287H96.817C97.2534 111.287 97.6898 111.724 97.6898 112.131C97.6898 112.713 97.3988 113.004 96.817 113.004Z" fill="#94BB3F"/>
<path d="M106.796 73.6667C104.352 73.6667 102.316 71.6593 102.316 69.2445C102.316 66.8297 104.323 64.8223 106.796 64.8223C109.269 64.8223 111.277 66.8297 111.277 69.2445C111.277 71.6593 109.24 73.6667 106.796 73.6667ZM106.796 66.5097C105.341 66.5097 104.061 67.6443 104.061 69.2154C104.061 70.641 105.225 71.9211 106.796 71.9211C108.367 71.9211 109.531 70.7865 109.531 69.2154C109.531 67.7898 108.222 66.5097 106.796 66.5097Z" fill="#94BB3F"/>
<path d="M43.5173 54.9278C40.0551 54.9278 37.1458 52.0766 37.1458 48.6436C37.1458 45.2105 40.026 42.3594 43.5173 42.3594C47.0085 42.3594 49.8597 45.2105 49.8597 48.6436C49.8597 52.0766 47.1249 54.9278 43.5173 54.9278ZM43.5173 44.1923C41.0734 44.1923 39.0368 46.1997 39.0368 48.6145C39.0368 51.0293 41.0734 53.0367 43.5173 53.0367C45.9611 53.0367 47.9977 51.0293 47.9977 48.6145C47.9977 46.1997 46.1066 44.1923 43.5173 44.1923Z" fill="#94BB3F"/>
</g>
<defs>
<clipPath id="clip0_688_8310">
<rect width="142.5" height="142.5" fill="white" transform="translate(0.749756)"/>
</clipPath>
</defs>
</svg>
