<svg width="144" height="143" viewBox="0 0 144 143" fill="none" xmlns="http://www.w3.org/2000/svg">
<g clip-path="url(#clip0_688_8424)">
<path d="M88.3215 0.494141H55.6785C25.3422 0.494141 0.749756 25.0866 0.749756 55.4229V88.0659C0.749756 118.402 25.3422 142.995 55.6785 142.995H88.3215C118.658 142.995 143.25 118.402 143.25 88.0659V55.4229C143.25 25.0866 118.658 0.494141 88.3215 0.494141Z" fill="#094451"/>
<path d="M37.5533 102.641C39.9971 102.641 42.2664 103.63 43.8375 105.23C45.4086 106.801 46.3977 109.099 46.3977 111.514V113.376H28.6506V111.514C28.6506 106.51 32.5201 102.641 37.5242 102.641H37.5533Z" fill="#D8E8AA"/>
<path d="M69.7305 102.641C72.1744 102.641 74.4437 103.63 76.0147 105.23C77.5858 106.801 78.575 109.099 78.575 111.514V113.376H60.8279V111.514C60.8279 106.51 64.6973 102.641 69.7014 102.641H69.7305Z" fill="#D8E8AA"/>
<path d="M101.937 102.641C104.381 102.641 106.65 103.63 108.222 105.23C109.793 106.801 110.782 109.099 110.782 111.514V113.376H93.0347V111.514C93.0347 106.51 96.9041 102.641 101.908 102.641H101.937Z" fill="#D8E8AA"/>
<path d="M63.0097 79.3083C62.0205 79.3083 61.1477 78.4355 61.1477 77.4464V55.9753C61.1477 54.9861 62.0205 54.1133 63.0097 54.1133C63.9989 54.1133 64.8717 54.9861 64.8717 55.9753V77.4464C64.7262 78.4355 63.8825 79.3083 63.0097 79.3083Z" fill="#94BB3F"/>
<path d="M77.3244 79.3083C76.3352 79.3083 75.4624 78.4355 75.4624 77.4464V55.9753C75.4624 54.9861 76.3352 54.1133 77.3244 54.1133C78.3136 54.1133 79.1864 54.9861 79.1864 55.9753V77.4464C79.0409 78.4355 78.1972 79.3083 77.3244 79.3083Z" fill="#94BB3F"/>
<path d="M70.1672 79.3085C69.178 79.3085 68.3052 78.4357 68.3052 77.4465V68.5729C68.3052 67.5837 69.178 66.7109 70.1672 66.7109C71.1564 66.7109 71.8837 67.5547 71.8837 68.5729V77.5919C71.8837 78.4648 71.04 79.3085 70.1672 79.3085Z" fill="#94BB3F"/>
<path d="M70.1667 43.5531C64.2898 43.5531 59.4312 38.6945 59.4312 32.8176C59.4312 26.9407 64.2898 22.082 70.1667 22.082C76.0436 22.082 80.9022 26.9407 80.9022 32.8176C80.9022 38.6945 76.0436 43.5531 70.1667 43.5531ZM70.1667 25.6605C66.1518 25.6605 63.0097 28.8027 63.0097 32.8176C63.0097 36.8325 66.1518 39.9746 70.1667 39.9746C74.1816 39.9746 77.3237 36.8325 77.3237 32.8176C77.3237 28.8027 74.0361 25.6605 70.1667 25.6605Z" fill="#94BB3F"/>
<path d="M84.481 63.2776H77.324C76.3348 63.2776 75.462 62.4339 75.462 61.4156C75.462 60.3973 76.3348 59.5536 77.324 59.5536H82.7645V55.9751C82.7645 55.5387 82.7645 54.9859 82.619 54.404C82.619 53.8221 82.7645 53.4148 83.0554 52.9784C83.3464 52.542 83.8992 52.3966 84.3356 52.3966H100.512V48.818H81.3389C80.757 48.818 80.3497 48.5271 79.9133 48.0907C77.4695 45.0941 73.891 43.3775 70.1961 43.3775C66.9085 43.3775 63.7664 44.6577 61.3225 47.1015C58.8787 49.5454 57.5985 52.6875 57.5985 55.9751V59.5536H63.039C64.0282 59.5536 64.901 60.3973 64.901 61.4156C64.901 62.4339 64.0282 63.2776 63.039 63.2776H55.882C54.8928 63.2776 54.02 62.4339 54.02 61.4156V55.9751C54.02 51.6692 55.7365 47.6834 58.7332 44.5413C61.7298 41.5446 65.8902 39.8281 70.167 39.8281C74.7347 39.8281 79.0405 41.8356 82.1826 45.2686H102.344C103.334 45.2686 104.206 46.1123 104.206 47.1306V54.2876C104.206 55.2768 103.334 56.1496 102.344 56.1496H86.1685V61.4447C86.1685 62.4339 85.3247 63.3067 84.4519 63.3067L84.481 63.2776Z" fill="#94BB3F"/>
<path d="M46.5722 115.066H28.6796C27.6904 115.066 26.8176 114.193 26.8176 113.204V111.488C26.8176 105.611 31.6763 100.752 37.5532 100.752C40.4043 100.752 43.1391 101.887 45.1466 103.894C47.1541 105.902 48.2887 108.607 48.2887 111.488V113.349C48.2887 114.222 47.445 115.066 46.5722 115.066ZM30.3961 111.488H44.7102C44.7102 109.626 43.9829 107.764 42.5573 106.483C41.2771 105.058 39.4152 104.33 37.5532 104.33C33.5382 104.33 30.3961 107.473 30.3961 111.488Z" fill="#94BB3F"/>
<path d="M37.5533 104.355C33.5383 104.355 30.3962 101.213 30.3962 97.198C30.3962 93.1831 33.5383 90.041 37.5533 90.041C41.5682 90.041 44.7103 93.1831 44.7103 97.198C44.7103 101.213 41.5682 104.355 37.5533 104.355ZM37.5533 93.6195C35.5458 93.6195 33.9748 95.1906 33.9748 97.198C33.9748 99.2055 35.5458 100.777 37.5533 100.777C39.5607 100.777 41.1318 99.2055 41.1318 97.198C41.1318 95.1906 39.5607 93.6195 37.5533 93.6195Z" fill="#94BB3F"/>
<path d="M78.7497 115.066H60.8571C59.8679 115.066 58.9951 114.193 58.9951 113.204V111.488C58.9951 105.611 63.8537 100.752 69.7307 100.752C72.5818 100.752 75.3166 101.887 77.3241 103.894C79.3315 105.902 80.4662 108.607 80.4662 111.488V113.349C80.4662 114.222 79.6225 115.066 78.7497 115.066ZM62.6027 111.488H76.9168C76.9168 109.626 76.1894 107.764 74.7639 106.483C73.4837 105.203 71.6217 104.33 69.7597 104.33C65.7448 104.33 62.6027 107.473 62.6027 111.488Z" fill="#94BB3F"/>
<path d="M69.7308 104.355C65.7158 104.355 62.5737 101.213 62.5737 97.198C62.5737 93.1831 65.7158 90.041 69.7308 90.041C73.7457 90.041 76.8878 93.1831 76.8878 97.198C76.8878 101.213 73.7457 104.355 69.7308 104.355ZM69.7308 93.6195C67.7233 93.6195 66.1522 95.1906 66.1522 97.198C66.1522 99.2055 67.7233 100.777 69.7308 100.777C71.7382 100.777 73.3093 99.2055 73.3093 97.198C73.3093 95.1906 71.7382 93.6195 69.7308 93.6195Z" fill="#94BB3F"/>
<path d="M110.956 115.066H93.0639C92.0747 115.066 91.2019 114.193 91.2019 113.204V111.488C91.2019 105.611 96.0605 100.752 101.937 100.752C104.789 100.752 107.523 101.887 109.531 103.894C111.538 105.902 112.673 108.607 112.673 111.488V113.349C112.673 114.222 111.829 115.066 110.956 115.066ZM94.7804 111.488H109.094C109.094 109.626 108.367 107.764 106.942 106.483C105.661 105.058 103.799 104.33 101.937 104.33C97.9225 104.33 94.7804 107.473 94.7804 111.488Z" fill="#94BB3F"/>
<path d="M101.937 104.355C97.9224 104.355 94.7803 101.213 94.7803 97.198C94.7803 93.1831 97.9224 90.041 101.937 90.041C105.952 90.041 109.094 93.1831 109.094 97.198C109.094 101.213 105.952 104.355 101.937 104.355ZM101.937 93.6195C99.9298 93.6195 98.3588 95.1906 98.3588 97.198C98.3588 99.2055 99.9298 100.777 101.937 100.777C103.945 100.777 105.516 99.2055 105.516 97.198C105.516 95.1906 103.945 93.6195 101.937 93.6195Z" fill="#94BB3F"/>
<path d="M66.5308 32.1777L67.9857 32.9052" stroke="#94BB3F" stroke-width="2.90936" stroke-linecap="round" stroke-linejoin="round"/>
<path d="M73.7755 32.1777L72.3206 32.9052" stroke="#94BB3F" stroke-width="2.90936" stroke-linecap="round" stroke-linejoin="round"/>
</g>
<defs>
<clipPath id="clip0_688_8424">
<rect width="142.5" height="142.5" fill="white" transform="translate(0.749756 0.5)"/>
</clipPath>
</defs>
</svg>
