<svg width="144" height="143" viewBox="0 0 144 143" fill="none" xmlns="http://www.w3.org/2000/svg">
<g clip-path="url(#clip0_688_8463)">
<path d="M88.3213 -0.00195312H55.6782C25.3419 -0.00195312 0.749512 24.5905 0.749512 54.9268V87.5698C0.749512 117.906 25.3419 142.499 55.6782 142.499H88.3213C118.658 142.499 143.25 117.906 143.25 87.5698V54.9268C143.25 24.5905 118.658 -0.00195312 88.3213 -0.00195312Z" fill="#094451"/>
<path d="M96.875 69.5884C100.715 69.5884 103.828 66.4753 103.828 62.635C103.828 58.7948 100.715 55.6816 96.875 55.6816C93.0348 55.6816 89.9216 58.7948 89.9216 62.635C89.9216 66.4753 93.0348 69.5884 96.875 69.5884Z" fill="#D8E8AA"/>
<path d="M71.593 47.9707C76.0152 47.9707 79.5646 51.5201 79.5646 55.9424C79.5646 60.3646 76.0152 63.914 71.593 63.914C67.1708 63.914 63.6213 60.3646 63.6213 55.9424C63.7377 51.5201 67.1708 47.9707 71.593 47.9707Z" fill="#D8E8AA"/>
<path d="M46.3103 69.5884C50.1505 69.5884 53.2637 66.4753 53.2637 62.635C53.2637 58.7948 50.1505 55.6816 46.3103 55.6816C42.4701 55.6816 39.3569 58.7948 39.3569 62.635C39.3569 66.4753 42.4701 69.5884 46.3103 69.5884Z" fill="#D8E8AA"/>
<path d="M84.2192 90.6832H77.9058C77.033 90.6832 76.2766 89.9268 76.2766 89.054C76.2766 88.1812 77.033 87.4247 77.9058 87.4247H82.7063V76.4273C82.7063 73.518 81.5716 70.7541 79.4187 68.6012C77.2658 66.4482 74.5019 65.3136 71.5925 65.3136C65.5411 65.3136 60.4788 70.2304 60.4788 76.4273V87.5411H65.2792C66.152 87.5411 66.9376 88.2975 66.9376 89.1703C66.9376 90.0431 66.1811 90.7996 65.2792 90.7996H58.9659C58.0931 90.7996 57.3367 90.0431 57.3367 89.1703V76.3982C57.3367 68.5721 63.65 62.1133 71.6216 62.1133C75.4038 62.1133 78.9532 63.6261 81.7462 66.2737C84.3937 68.9212 85.9066 72.587 85.9066 76.3982V89.0249C85.9066 89.8977 85.1502 90.6541 84.2483 90.6541L84.2192 90.6832Z" fill="#94BB3F"/>
<path d="M65.2794 111.164C64.4066 111.164 63.6501 110.407 63.6501 109.535V84.2523C63.6501 83.3795 64.4066 82.623 65.2794 82.623C66.1522 82.623 66.9377 83.3795 66.9377 84.2523V109.535C66.9377 110.407 66.1813 111.164 65.2794 111.164Z" fill="#94BB3F"/>
<path d="M77.9063 111.164C77.0335 111.164 76.2771 110.407 76.2771 109.535V84.2523C76.2771 83.3795 77.0335 82.623 77.9063 82.623C78.7792 82.623 79.5647 83.3795 79.5647 84.2523V109.535C79.5647 110.407 78.8082 111.164 77.9063 111.164Z" fill="#94BB3F"/>
<path d="M71.5926 111.162C70.7198 111.162 69.9634 110.406 69.9634 109.533V96.9066C69.9634 96.0338 70.7198 95.2773 71.5926 95.2773C72.4654 95.2773 73.251 96.0338 73.251 96.9066V109.533C73.251 110.406 72.4945 111.162 71.5926 111.162Z" fill="#94BB3F"/>
<path d="M71.5929 65.4007C66.4143 65.4007 62.1084 61.0948 62.1084 55.9162C62.1084 50.7375 66.4143 46.4316 71.5929 46.4316C76.7716 46.4316 81.0774 50.7375 81.0774 55.9162C81.0774 61.0948 76.7716 65.4007 71.5929 65.4007ZM71.5929 49.6028C68.0435 49.6028 65.2796 52.3958 65.2796 55.9162C65.2796 59.4365 68.0726 62.2295 71.5929 62.2295C75.1132 62.2295 77.9062 59.4365 77.9062 55.9162C77.9062 52.3958 75.1132 49.6028 71.5929 49.6028Z" fill="#94BB3F"/>
<path d="M54.2821 54.2854C49.1035 54.2854 44.7976 49.9796 44.7976 44.8009C44.7976 39.6223 49.1035 35.3164 54.2821 35.3164C59.4608 35.3164 63.7666 39.6223 63.7666 44.8009C63.7666 49.9796 59.4608 54.2854 54.2821 54.2854ZM54.2821 38.4876C50.7327 38.4876 47.9688 41.2806 47.9688 44.8009C47.9688 48.3212 50.7618 51.1142 54.2821 51.1142C57.8024 51.1142 60.5954 48.3212 60.5954 44.8009C60.5954 41.2806 57.6861 38.4876 54.2821 38.4876Z" fill="#94BB3F"/>
<path d="M89.0487 54.2854C83.8701 54.2854 79.5642 49.9796 79.5642 44.8009C79.5642 39.6223 83.8701 35.3164 89.0487 35.3164C94.2274 35.3164 98.5332 39.6223 98.5332 44.8009C98.5332 49.9796 94.2274 54.2854 89.0487 54.2854ZM89.0487 38.4876C85.4993 38.4876 82.7354 41.2806 82.7354 44.8009C82.7354 48.3212 85.5284 51.1142 89.0487 51.1142C92.5691 51.1142 95.362 48.3212 95.362 44.8009C95.362 41.2806 92.4527 38.4876 89.0487 38.4876Z" fill="#94BB3F"/>
<path d="M40.7535 93.2114H35.1966C34.3238 93.2114 33.5674 92.455 33.5674 91.5822V80.4684C33.5674 73.5151 39.2406 67.8418 46.194 67.8418C47.0668 67.8418 47.8232 68.5982 47.8232 69.471C47.8232 70.3438 47.0668 71.1003 46.194 71.1003C41.0153 71.1003 36.7095 75.4061 36.7095 80.5848V90.0693H40.6371C41.5099 90.0693 42.2955 90.8257 42.2955 91.6986C42.4118 92.455 41.6554 93.2114 40.7826 93.2114H40.7535Z" fill="#94BB3F"/>
<path d="M40.7533 111.163C39.8805 111.163 39.124 110.407 39.124 109.534V87.5394C39.124 86.6666 39.8805 85.9102 40.7533 85.9102C41.6261 85.9102 42.3825 86.6666 42.3825 87.5394V109.651C42.3825 110.407 41.6261 111.163 40.7533 111.163Z" fill="#94BB3F"/>
<path d="M51.8673 111.163C50.9945 111.163 50.238 110.407 50.238 109.534V87.5394C50.238 86.6666 50.9945 85.9102 51.8673 85.9102C52.7401 85.9102 53.4965 86.6666 53.4965 87.5394V109.651C53.3801 110.407 52.7401 111.163 51.8673 111.163Z" fill="#94BB3F"/>
<path d="M46.3106 111.165C45.4378 111.165 44.6814 110.409 44.6814 109.536V98.4222C44.6814 97.5494 45.4378 96.793 46.3106 96.793C47.1834 96.793 47.969 97.5494 47.969 98.4222V109.536C47.969 110.409 47.2125 111.165 46.3106 111.165Z" fill="#94BB3F"/>
<path d="M46.3102 71.1044C41.6262 71.1044 37.844 67.3222 37.844 62.6381C37.844 57.954 41.6262 54.1719 46.3102 54.1719C50.9943 54.1719 54.7765 57.954 54.7765 62.6381C54.7765 67.3222 50.9943 71.1044 46.3102 71.1044ZM46.3102 57.1976C43.4009 57.1976 41.0152 59.6124 41.0152 62.4926C41.0152 65.3729 43.43 67.7877 46.3102 67.7877C49.1905 67.7877 51.6053 65.3729 51.6053 62.4926C51.6053 59.6124 49.1905 57.1976 46.3102 57.1976Z" fill="#94BB3F"/>
<path d="M107.989 93.2145H102.432C101.559 93.2145 100.802 92.4581 100.802 91.5853C100.802 90.7125 101.559 89.956 102.432 89.956H106.359V80.4715C106.359 75.2929 102.054 70.987 96.8749 70.987C96.002 70.987 95.2456 70.2306 95.2456 69.3578C95.2456 68.4849 96.002 67.7285 96.8749 67.7285C103.828 67.7285 109.501 73.4018 109.501 80.3551V91.6144C109.501 92.4872 108.745 93.2436 107.989 93.2436V93.2145Z" fill="#94BB3F"/>
<path d="M91.3182 111.163C90.4454 111.163 89.689 110.407 89.689 109.534V87.5394C89.689 86.6666 90.4454 85.9102 91.3182 85.9102C92.191 85.9102 92.9475 86.6666 92.9475 87.5394V109.651C92.9475 110.407 92.191 111.163 91.3182 111.163Z" fill="#94BB3F"/>
<path d="M102.432 111.163C101.56 111.163 100.803 110.407 100.803 109.534V87.5394C100.803 86.6666 101.56 85.9102 102.432 85.9102C103.305 85.9102 104.062 86.6666 104.062 87.5394V109.651C103.945 110.407 103.305 111.163 102.432 111.163Z" fill="#94BB3F"/>
<path d="M96.8749 111.165C96.002 111.165 95.2456 110.409 95.2456 109.536V98.4222C95.2456 97.5494 96.002 96.793 96.8749 96.793C97.7477 96.793 98.5332 97.5494 98.5332 98.4222V109.536C98.5332 110.409 97.7768 111.165 96.8749 111.165Z" fill="#94BB3F"/>
<path d="M96.8754 71.1044C92.1914 71.1044 88.4092 67.3222 88.4092 62.6381C88.4092 57.954 92.1914 54.1719 96.8754 54.1719C101.559 54.1719 105.342 57.954 105.342 62.6381C105.342 67.3222 101.559 71.1044 96.8754 71.1044ZM96.8754 57.1976C93.9661 57.1976 91.5804 59.6124 91.5804 62.4926C91.5804 65.3729 93.9952 67.7877 96.8754 67.7877C99.7557 67.7877 102.17 65.3729 102.17 62.4926C102.17 59.6124 99.7557 57.1976 96.8754 57.1976Z" fill="#94BB3F"/>
</g>
<defs>
<clipPath id="clip0_688_8463">
<rect width="142.5" height="142.5" fill="white" transform="translate(0.75)"/>
</clipPath>
</defs>
</svg>
