<svg width="143" height="143" viewBox="0 0 143 143" fill="none" xmlns="http://www.w3.org/2000/svg">
<g clip-path="url(#clip0_688_9069)">
<path d="M87.8217 0.501953H55.1787C24.8424 0.501953 0.25 25.0944 0.25 55.4307V88.0737C0.25 118.41 24.8424 143.002 55.1787 143.002H87.8217C118.158 143.002 142.75 118.41 142.75 88.0737V55.4307C142.75 25.0944 118.158 0.501953 87.8217 0.501953Z" fill="#094451"/>
<path d="M104.726 40.5625C106.733 40.5625 108.304 42.1336 108.304 44.141C108.304 46.1485 106.733 47.7195 104.726 47.7195C102.718 47.7195 101.147 46.1485 101.147 44.141C101.147 42.1336 102.718 40.5625 104.726 40.5625Z" fill="#D8E8AA"/>
<path d="M110.021 102.646C108.887 108.378 104.435 112.946 98.5874 113.935C99.7221 108.203 104.319 103.636 110.021 102.646Z" fill="#D8E8AA"/>
<path d="M110.021 92.4922C108.887 98.2236 104.435 102.791 98.5874 103.781C99.7221 98.0491 104.319 93.4814 110.021 92.4922Z" fill="#D8E8AA"/>
<path d="M82.2653 102.646C81.1307 108.378 76.6794 112.946 70.8315 113.935C71.9662 108.203 76.563 103.636 82.2653 102.646Z" fill="#D8E8AA"/>
<path d="M54.0737 102.646C52.9391 108.378 48.4877 112.946 42.7854 113.935C43.7746 108.203 48.2259 103.636 54.0737 102.646Z" fill="#D8E8AA"/>
<path d="M54.0742 92.4922C53.085 98.2236 48.6337 102.791 42.7859 103.781C43.7751 98.0491 48.2264 93.4814 54.0742 92.4922Z" fill="#D8E8AA"/>
<path d="M98.5583 111.813C92.8269 110.824 88.2592 106.227 87.1245 100.379C93.1469 101.659 97.5691 106.11 98.5583 111.813Z" fill="#D8E8AA"/>
<path d="M98.5583 99.3596C92.8269 98.3704 88.2592 93.7736 87.1245 87.9258C93.1469 89.0604 97.5691 93.6572 98.5583 99.3596Z" fill="#D8E8AA"/>
<path d="M70.9482 107.358C65.2167 106.368 60.6491 101.772 59.5144 95.9238C65.3913 97.0585 69.8135 101.655 70.9482 107.358Z" fill="#D8E8AA"/>
<path d="M42.6399 111.81C36.9084 110.675 32.3407 106.224 31.3516 100.521C37.083 101.656 41.6507 106.107 42.6399 111.81Z" fill="#D8E8AA"/>
<path d="M42.6401 99.3625C36.9087 98.2279 32.341 93.7766 31.3518 88.0742C37.0832 89.0634 41.6509 93.6602 42.6401 99.3625Z" fill="#D8E8AA"/>
<path d="M36.7633 41.5527C39.2072 41.5527 41.1855 43.5602 41.1855 45.975C41.1855 48.3897 39.1781 50.3972 36.7633 50.3972C34.3485 50.3972 32.3411 48.3897 32.3411 45.975C32.3411 43.5602 34.2031 41.5527 36.7633 41.5527Z" fill="#D8E8AA"/>
<path d="M105.134 52.2852C105.832 52.2852 106.414 52.8671 106.414 53.5655C106.414 54.2639 105.832 54.8458 105.134 54.8458C104.435 54.8458 103.853 54.2639 103.853 53.5655C103.853 52.8671 104.435 52.2852 105.134 52.2852Z" fill="#94BB3F"/>
<path d="M105.134 69.3086C105.832 69.3086 106.414 69.8906 106.414 70.5889C106.414 71.2873 105.832 71.8693 105.134 71.8693C104.435 71.8693 103.853 71.2873 103.853 70.5889C103.853 69.8906 104.435 69.3086 105.134 69.3086Z" fill="#94BB3F"/>
<path d="M90.8482 37.1289C91.5466 37.1289 92.1285 37.7109 92.1285 38.4092C92.1285 39.1076 91.5466 39.6896 90.8482 39.6896C90.1498 39.6896 89.5679 39.1076 89.5679 38.4092C89.5679 37.7109 90.1498 37.1289 90.8482 37.1289Z" fill="#94BB3F"/>
<path d="M80.9566 88.9121C81.655 88.9121 82.2369 89.4941 82.2369 90.1924C82.2369 90.8908 81.655 91.4728 80.9566 91.4728C80.2582 91.4728 79.6763 90.8908 79.6763 90.1924C79.6763 89.4941 80.2582 88.9121 80.9566 88.9121Z" fill="#94BB3F"/>
<path d="M65.7986 89.7598C66.497 89.7598 67.079 90.3417 67.079 91.0401C67.079 91.7385 66.497 92.3204 65.7986 92.3204C65.1003 92.3204 64.5183 91.7385 64.5183 91.0401C64.5183 90.3417 65.1003 89.7598 65.7986 89.7598Z" fill="#94BB3F"/>
<path d="M60.3582 108.643C61.0566 108.643 61.6386 109.225 61.6386 109.923C61.6386 110.621 61.0566 111.203 60.3582 111.203C59.6599 111.203 59.0779 110.621 59.0779 109.923C59.0779 109.225 59.6599 108.643 60.3582 108.643Z" fill="#94BB3F"/>
<path d="M40.7781 76.4648C41.4765 76.4648 42.0585 77.0468 42.0585 77.7452C42.0585 78.4435 41.4765 79.0255 40.7781 79.0255C40.0798 79.0255 39.4978 78.4435 39.4978 77.7452C39.4978 77.0468 40.0798 76.4648 40.7781 76.4648Z" fill="#94BB3F"/>
<path d="M33.6214 62.1484C34.3198 62.1484 34.9017 62.7304 34.9017 63.4288C34.9017 64.1271 34.3198 64.7091 33.6214 64.7091C32.923 64.7091 32.3411 64.1271 32.3411 63.4288C32.3411 62.7304 32.923 62.1484 33.6214 62.1484Z" fill="#94BB3F"/>
<path d="M98.5578 117.515C98.1214 117.515 97.7141 117.079 97.7141 116.671V90.6326C97.7141 90.1962 98.1505 89.7598 98.5578 89.7598C98.9651 89.7598 99.4306 90.1962 99.4306 90.6326V116.526C99.5761 117.108 99.1397 117.515 98.5578 117.515Z" fill="#94BB3F"/>
<path d="M98.5579 114.81C98.2669 114.81 98.1215 114.665 97.976 114.519C97.8305 114.374 97.6851 113.937 97.6851 113.647C98.2669 110.65 99.6925 107.915 101.845 105.791C103.998 103.638 106.704 102.213 109.701 101.631C109.992 101.631 110.283 101.631 110.544 101.922C110.69 102.067 110.835 102.504 110.835 102.795C110.253 105.791 108.828 108.526 106.675 110.65C104.522 112.774 101.816 114.228 98.8197 114.81H98.5288H98.5579ZM108.857 103.784C106.704 104.366 104.842 105.5 103.271 107.071C101.7 108.642 100.565 110.504 99.9834 112.657C102.136 112.075 103.998 110.941 105.569 109.37C106.995 107.799 108.13 105.937 108.857 103.784Z" fill="#94BB3F"/>
<path d="M98.5583 112.805H98.4129C95.4162 112.223 92.6814 110.797 90.5576 108.644C88.4338 106.491 86.9791 103.786 86.3972 100.789C86.3972 100.498 86.3972 100.207 86.6881 99.9452C86.8336 99.7998 87.27 99.6543 87.561 99.6543C90.5576 100.236 93.2924 101.662 95.4162 103.815C97.5401 105.968 98.9947 108.673 99.5766 111.67V111.961C99.5766 112.397 99.1402 112.834 98.5874 112.834L98.5583 112.805ZM88.4047 101.662C88.9865 103.815 90.1212 105.677 91.6923 107.248C93.2633 108.819 95.1253 109.953 97.2782 110.535C96.6963 108.382 95.5617 106.52 93.9906 104.949C92.5651 103.524 90.5576 102.389 88.4047 101.662Z" fill="#94BB3F"/>
<path d="M98.5579 104.654C98.2669 104.654 98.1215 104.509 97.976 104.363C97.8305 104.218 97.6851 103.781 97.6851 103.52C98.2669 100.523 99.6925 97.7881 101.845 95.6643C103.998 93.5405 106.704 92.0858 109.701 91.5039C109.992 91.5039 110.283 91.5039 110.544 91.7948C110.69 91.9403 110.835 92.3767 110.835 92.6386C110.253 95.6352 108.828 98.37 106.675 100.494C104.522 102.618 101.816 104.072 98.8197 104.654H98.5288H98.5579ZM108.857 93.6277C106.704 94.2096 104.842 95.3443 103.271 96.9153C101.7 98.4864 100.565 100.348 99.9834 102.501C102.136 101.919 103.998 100.785 105.569 99.2137C106.995 97.6427 108.13 95.7807 108.857 93.6277Z" fill="#94BB3F"/>
<path d="M98.5583 100.207H98.4129C95.4162 99.6251 92.6814 98.1995 90.5576 96.0466C88.4338 93.8936 86.9791 91.1879 86.3972 88.1913C86.3972 87.9004 86.3972 87.6094 86.6881 87.3476C86.8336 87.2021 87.27 87.0566 87.561 87.0566C90.5576 87.6385 93.2924 89.0641 95.4162 91.217C97.5401 93.37 98.9947 96.0757 99.5766 99.0723V99.3632C99.5766 99.7996 99.1402 100.236 98.5874 100.236L98.5583 100.207ZM88.4047 89.2096C88.9865 91.3625 90.1212 93.2245 91.6923 94.7955C93.2633 96.3666 95.1253 97.5012 97.2782 98.0831C96.6963 95.9302 95.5617 94.0682 93.9906 92.4971C92.5651 90.9261 90.5576 89.7914 88.4047 89.2096Z" fill="#94BB3F"/>
<path d="M90.9938 72.7397H48.9244C43.193 72.4487 38.7708 67.881 38.7708 62.1496C38.7708 56.8546 42.6402 52.4323 47.6443 51.705C47.2079 50.4249 47.0624 48.9993 47.0624 47.5446C47.0624 39.8057 53.3466 33.5215 61.0855 33.5215C66.817 33.5215 71.9666 36.9545 74.0904 42.1041C75.8069 40.9694 77.8144 40.3876 79.8218 40.3876C85.6987 40.3876 90.4119 45.1007 90.4119 50.9776V51.5595C96.4052 51.2686 101.584 56.1272 101.584 62.1496C101.584 68.172 96.8707 72.7397 90.9938 72.7397ZM49.0699 70.8777H90.9938C95.8524 70.8777 99.8673 66.8628 99.8673 62.0041C99.8673 57.1455 95.8524 53.1306 90.9938 53.1306C90.5574 53.1306 90.1501 53.1306 89.5682 53.276C89.2773 53.276 88.9863 53.276 88.8408 52.9851C88.6954 52.8396 88.5499 52.5487 88.5499 52.2578C88.5499 51.8214 88.6954 51.414 88.6954 50.8322C88.6954 45.9735 84.6805 41.9586 79.8218 41.9586C77.8144 41.9586 75.8069 42.686 74.2359 43.9661C73.9449 44.1116 73.654 44.257 73.3921 44.1116C73.1303 43.9661 72.8103 43.8206 72.8103 43.5297C71.2392 38.3801 66.5261 34.9471 61.0855 34.9471C54.3649 34.9471 48.779 40.533 48.779 47.2537C48.779 48.8247 49.0699 50.3958 49.6518 51.8214C49.7972 52.1123 49.7972 52.4032 49.5063 52.6942C49.3608 52.9851 49.0699 53.1306 48.779 53.1306C44.0658 53.4215 40.3418 57.291 40.3418 62.0041C40.6327 66.8628 44.3567 70.7322 49.0699 70.8777Z" fill="#94BB3F"/>
<path d="M52.6482 47.7151C52.2118 47.7151 51.8044 47.2787 51.8044 46.8423C51.8044 41.9837 55.8194 37.9688 60.678 37.9688C61.1144 37.9688 61.5508 38.4052 61.5508 38.8416C61.5508 39.278 61.2599 39.7144 60.678 39.7144C56.8085 39.7144 53.521 42.8565 53.521 46.8714C53.521 47.3078 53.23 47.7442 52.6773 47.7442L52.6482 47.7151Z" fill="#94BB3F"/>
<path d="M70.948 117.515C70.5116 117.515 70.1042 117.079 70.1042 116.671V90.6326C70.1042 90.1962 70.5406 89.7598 70.948 89.7598C71.3553 89.7598 71.8208 90.1962 71.8208 90.6326V116.526C71.8208 117.108 71.3844 117.515 70.948 117.515Z" fill="#94BB3F"/>
<path d="M70.9482 114.81C70.6573 114.81 70.5118 114.665 70.3664 114.519C70.2209 114.374 70.0754 113.937 70.0754 113.647C70.6573 110.65 72.0829 107.915 74.2358 105.791C76.3888 103.638 79.0945 102.213 82.0911 101.631C82.382 101.631 82.673 101.631 82.9639 101.922C83.1094 102.067 83.2548 102.504 83.2548 102.795C82.673 105.791 81.2474 108.526 79.0945 110.65C76.9415 112.774 74.2358 114.228 71.2392 114.81H70.9482ZM81.1019 103.784C78.949 104.366 77.087 105.5 75.5159 107.071C73.9449 108.642 72.8102 110.504 72.2284 112.657C74.3813 112.075 76.2433 110.941 77.8143 109.37C79.2399 107.799 80.4037 105.937 81.1019 103.784Z" fill="#94BB3F"/>
<path d="M70.948 108.232H70.8025C67.8059 107.65 65.0711 106.225 62.9472 104.072C60.8234 101.919 59.3687 99.2133 58.7869 96.2167C58.7869 95.9258 58.7869 95.6348 59.0778 95.373C59.2233 95.2275 59.6597 95.082 59.9215 95.082C62.9182 95.6639 65.653 97.0895 67.7768 99.2424C69.9006 101.395 71.3553 104.101 71.9372 107.098V107.389C71.7917 107.971 71.3553 108.232 70.948 108.232ZM60.7943 97.2059C61.3762 99.3588 62.5108 101.221 64.0819 102.792C65.653 104.363 67.5149 105.498 69.6679 106.079C69.086 103.926 67.9513 102.064 66.3803 100.493C64.8092 99.0679 62.8018 97.9332 60.7943 97.2059Z" fill="#94BB3F"/>
<path d="M42.6401 117.515C42.2037 117.515 41.7964 117.079 41.7964 116.671V90.6326C41.7964 90.1962 42.2328 89.7598 42.6401 89.7598C43.0474 89.7598 43.4838 90.1962 43.4838 90.6326V116.526C43.6293 117.108 43.1929 117.515 42.6401 117.515Z" fill="#94BB3F"/>
<path d="M42.6401 114.81C42.3492 114.81 42.2037 114.665 42.0583 114.519C41.9128 114.374 41.7673 113.937 41.7673 113.647C42.3492 110.65 43.7748 107.915 45.9277 105.791C48.0806 103.638 50.7863 102.213 53.783 101.631C54.0739 101.631 54.3649 101.631 54.6558 101.922C54.8013 102.067 54.9467 102.504 54.9467 102.795C54.3649 105.791 52.9393 108.526 50.7864 110.65C48.6334 112.774 45.9277 114.228 42.9311 114.81H42.6401ZM52.9393 103.784C50.7864 104.366 48.9244 105.5 47.3533 107.071C45.7823 108.642 44.6476 110.504 44.0657 112.657C46.2187 112.075 48.0806 110.941 49.6517 109.37C51.0773 107.799 52.2119 105.937 52.9393 103.784Z" fill="#94BB3F"/>
<path d="M42.6404 112.805H42.4949C39.4983 112.223 36.7635 110.797 34.6396 108.644C32.5158 106.491 31.0611 103.786 30.4792 100.789C30.4792 100.498 30.4792 100.207 30.7702 99.9452C30.9157 99.7998 31.3521 99.6543 31.6139 99.6543C34.6105 100.236 37.3453 101.662 39.4692 103.815C41.593 105.968 43.0477 108.673 43.6296 111.67V111.961C43.6296 112.397 43.1932 112.834 42.6404 112.834V112.805ZM32.4867 101.662C33.0686 103.815 34.2032 105.677 35.7743 107.248C37.3453 108.819 39.2073 109.953 41.3603 110.535C40.7784 108.382 39.6437 106.52 38.0727 104.949C36.6471 103.524 34.6396 102.389 32.4867 101.662Z" fill="#94BB3F"/>
<path d="M42.6401 104.654C42.3492 104.654 42.2037 104.509 42.0583 104.363C41.9128 104.218 41.7673 103.781 41.7673 103.52C42.3492 100.523 43.7748 97.7881 45.9277 95.6643C48.0806 93.5405 50.7863 92.0858 53.783 91.5039C54.0739 91.5039 54.3649 91.5039 54.6558 91.7948C54.8013 91.9403 54.9467 92.3767 54.9467 92.6386C54.3649 95.6352 52.9393 98.37 50.7864 100.494C48.6334 102.618 45.9277 104.072 42.9311 104.654H42.6401ZM52.9393 93.6277C50.7864 94.2096 48.9244 95.3443 47.3533 96.9153C45.7823 98.4864 44.6476 100.348 44.0657 102.501C46.2187 101.919 48.0806 100.785 49.6517 99.2137C51.0773 97.6427 52.2119 95.7807 52.9393 93.6277Z" fill="#94BB3F"/>
<path d="M42.6404 100.207H42.4949C39.4983 99.6251 36.7635 98.1995 34.6396 96.0466C32.5158 93.8936 31.0611 91.1879 30.4792 88.1913C30.4792 87.9004 30.4792 87.6094 30.7702 87.3476C30.9157 87.2021 31.3521 87.0566 31.6139 87.0566C34.6105 87.6385 37.3453 89.0641 39.4692 91.217C41.593 93.37 43.0477 96.0757 43.6296 99.0723V99.3632C43.6296 99.7996 43.1932 100.236 42.6404 100.236V100.207ZM32.4867 89.2096C33.0686 91.3625 34.2032 93.2245 35.7743 94.7955C37.3453 96.3666 39.2073 97.5012 41.3603 98.0831C40.7784 95.9302 39.6437 94.0682 38.0727 92.4971C36.6471 90.9261 34.6396 89.7914 32.4867 89.2096Z" fill="#94BB3F"/>
<path d="M111.883 117.513H29.6062C29.1698 117.513 28.7334 117.077 28.7334 116.67C28.7334 116.262 29.1698 115.797 29.6062 115.797H111.854C112.29 115.797 112.698 116.233 112.698 116.67C112.698 117.106 112.261 117.513 111.854 117.513H111.883Z" fill="#94BB3F"/>
<path d="M85.8445 75.8855H85.5535C85.1171 75.74 84.8262 75.1582 85.1171 74.7508L89.5393 63.5789C89.6848 63.1425 90.2667 62.8516 90.674 63.1425C91.1104 63.288 91.4013 63.8698 91.1104 64.2772L86.6882 75.4491C86.5427 75.74 86.2518 75.8855 85.8445 75.8855Z" fill="#94BB3F"/>
<path d="M75.9521 87.0576H75.6612C75.2248 86.9122 74.9338 86.3303 75.2248 85.923L84.2438 63.6082C84.3893 63.1718 84.9711 62.8809 85.3784 63.1718C85.8148 63.3173 86.1058 63.8991 85.8148 64.3064L76.7958 86.6212C76.6504 86.9122 76.3594 87.0576 75.923 87.0576H75.9521Z" fill="#94BB3F"/>
<path d="M72.3737 82.6354H72.0828C71.6464 82.4899 71.3555 81.9081 71.6464 81.5008L78.8034 63.6082C78.9489 63.1718 79.5308 62.8809 79.9381 63.1718C80.3745 63.3173 80.6654 63.8991 80.3745 64.3064L73.2175 82.199C73.072 82.49 72.7811 82.6354 72.3447 82.6354H72.3737Z" fill="#94BB3F"/>
<path d="M67.1076 82.6325H66.8167C66.3803 82.4871 66.0894 81.9052 66.3803 81.4979L75.9521 57.3211C76.0976 56.8847 76.6794 56.5938 77.0867 56.8847C77.5231 57.0302 77.8141 57.612 77.5231 58.0193L67.8059 82.1961C67.8059 82.4871 67.3695 82.6325 67.0785 82.6325H67.1076Z" fill="#94BB3F"/>
<path d="M59.9507 87.0534H59.6597C59.2233 86.9079 58.9324 86.3261 59.2233 85.9187L66.3803 68.0262C66.5258 67.5898 67.1077 67.2988 67.515 67.5898C67.9514 67.7352 68.2423 68.3171 67.9514 68.7244L60.7944 86.617C60.6489 86.9079 60.2125 87.0534 59.9216 87.0534H59.9507Z" fill="#94BB3F"/>
<path d="M56.3723 82.6354H56.0813C55.6449 82.4899 55.354 81.9081 55.6449 81.5008L62.802 63.6082C62.9474 63.1718 63.5293 62.8809 63.9366 63.1718C64.373 63.3173 64.664 63.8991 64.373 64.3064L57.216 82.199C57.0705 82.49 56.6341 82.6354 56.3432 82.6354H56.3723Z" fill="#94BB3F"/>
<path d="M50.9321 82.6354H50.6412C50.2048 82.4899 49.9138 81.9081 50.2048 81.5008L57.3618 63.6082C57.5072 63.1718 58.0891 62.8809 58.4964 63.1718C58.9328 63.3173 59.2238 63.8991 58.9328 64.3064L51.7758 82.199C51.6303 82.49 51.3394 82.6354 50.903 82.6354H50.9321Z" fill="#94BB3F"/>
<path d="M104.726 48.7077C102.282 48.7077 100.304 46.7003 100.304 44.2855C100.304 41.8707 102.311 39.8633 104.726 39.8633C107.141 39.8633 109.148 41.8707 109.148 44.2855C109.148 46.7003 107.141 48.7077 104.726 48.7077ZM104.726 41.5507C103.301 41.5507 102.02 42.6854 102.02 44.2564C102.02 45.682 103.155 46.9621 104.726 46.9621C106.152 46.9621 107.432 45.8275 107.432 44.2564C107.432 42.6854 106.152 41.5507 104.726 41.5507Z" fill="#94BB3F"/>
<path d="M36.7628 51.297C33.7661 51.297 31.3223 48.8532 31.3223 45.8565C31.3223 42.8599 33.7661 40.416 36.7628 40.416C39.7594 40.416 42.2033 42.8599 42.2033 45.8565C42.2033 48.8532 39.643 51.297 36.7628 51.297ZM36.7628 42.4235C34.7553 42.4235 33.1843 43.9945 33.1843 46.002C33.1843 48.0094 34.7553 49.5805 36.7628 49.5805C38.7702 49.5805 40.3413 48.0094 40.3413 46.002C40.3413 43.9945 38.6248 42.4235 36.7628 42.4235Z" fill="#94BB3F"/>
</g>
<defs>
<clipPath id="clip0_688_9069">
<rect width="142.5" height="142.5" fill="white" transform="translate(0.249756 0.501953)"/>
</clipPath>
</defs>
</svg>
