<svg width="144" height="143" viewBox="0 0 144 143" fill="none" xmlns="http://www.w3.org/2000/svg">
<g clip-path="url(#clip0_688_8399)">
<path d="M88.3217 0.494141H55.6787C25.3424 0.494141 0.75 25.0866 0.75 55.4229V88.0659C0.75 118.402 25.3424 142.995 55.6787 142.995H88.3217C118.658 142.995 143.25 118.402 143.25 88.0659V55.4229C143.25 25.0866 118.658 0.494141 88.3217 0.494141Z" fill="#094451"/>
<path d="M43.4885 83.5238C45.6414 83.5238 56.3769 80.6144 56.3769 84.9494C56.3769 89.2843 50.9364 94.9576 44.2158 94.9576C37.4952 94.9576 32.0547 91.4373 32.0547 87.1023C32.0547 82.7674 36.7969 83.5238 43.4885 83.5238Z" fill="#D8E8AA"/>
<path d="M97.8354 83.5238C99.9883 83.5238 110.724 80.6144 110.724 84.9494C110.724 89.2843 105.283 94.9576 98.5627 94.9576C91.8421 94.9576 86.4016 91.4373 86.4016 87.1023C86.4016 82.7674 91.1439 83.5238 97.8354 83.5238Z" fill="#D8E8AA"/>
<path d="M111.539 82.7971L100.92 61.4133H108.28C109.241 61.4133 109.91 60.5986 109.91 59.6386C109.91 58.6785 109.095 57.8638 108.28 57.8638H92.1917L89.1951 53.6453C88.9332 53.238 88.3804 52.8306 87.8277 52.8306H77.6158V46.0227C77.6158 42.2115 74.6192 39.2148 70.8079 39.2148C66.9966 39.2148 64 42.2115 64 46.0227V52.8306H53.7881C53.2354 52.8306 52.7117 53.0925 52.4208 53.6453L49.5696 58.0093H33.3644C32.4044 58.0093 31.5897 58.8239 31.5897 59.784C31.5897 60.7441 32.4044 61.5587 33.3644 61.5587H40.8706L30.2514 82.9425C30.106 83.2044 30.106 83.4953 30.106 83.7572C30.106 91.2633 36.2447 97.2566 43.7218 97.2566C51.1988 97.2566 57.3376 91.1178 57.3376 83.7572C57.3376 83.4953 57.3376 83.2044 57.1921 82.9425C57.1921 82.7971 48.3186 65.0791 46.4275 61.5587H50.5297C51.0824 61.5587 51.6061 61.2969 51.8971 60.7441L54.7482 56.3801H64.0291V82.0115H62.3999C61.4398 82.0115 60.6251 82.8262 60.6251 83.7862C60.6251 84.7463 61.4398 85.4155 62.3999 85.4155H64.0291V87.1902H62.3999C61.4398 87.1902 60.6251 88.0048 60.6251 88.9649C60.6251 89.925 61.4398 90.7396 62.3999 90.7396H64.0291V102.726H58.9959C58.0358 102.726 57.2212 103.541 57.2212 104.501V109.534H45.2346C42.3835 109.534 40.2014 111.862 40.2014 114.713C40.2014 117.564 42.5289 119.746 45.2346 119.746H96.3521C99.2033 119.746 101.385 117.418 101.385 114.713C101.385 111.862 99.0578 109.534 96.3521 109.534H84.3655V104.501C84.3655 103.541 83.5509 102.726 82.5908 102.726H77.4122V90.7396H79.1869C80.147 90.7396 80.9616 89.925 80.9616 88.9649C80.9616 88.0048 80.147 87.1902 79.1869 87.1902H77.4122V85.4155H79.1869C80.147 85.4155 80.9616 84.6009 80.9616 83.7862C80.9616 82.8262 80.147 82.0115 79.1869 82.0115H77.4122V56.2637H86.693L89.5442 60.6277C89.806 61.035 90.3588 61.4424 90.9116 61.4424H95.0138C92.4245 66.4756 84.3946 82.7098 84.2492 82.8262C84.1037 83.088 84.1037 83.2335 84.1037 83.4953C84.1037 91.0015 90.2424 97.1111 97.7195 97.1111C105.197 97.1111 111.335 90.9724 111.335 83.6117C111.743 83.3498 111.743 82.9425 111.597 82.7971H111.539ZM34.3827 81.837L41.8889 66.8538V81.837H34.3827ZM43.5181 93.7072C38.4849 93.7072 34.2372 90.0414 33.4226 85.1246H53.5845C52.7699 90.0414 48.5513 93.7072 43.489 93.7072H43.5181ZM45.1764 81.837V66.8538L52.6826 81.837H45.1764ZM70.7788 42.5897C72.699 42.5897 74.1828 44.1026 74.1828 45.9937V47.7684H67.3749V45.9937C67.3749 44.0735 68.8877 42.5897 70.7788 42.5897ZM98.0395 114.131C98.0395 115.091 97.2249 115.906 96.2648 115.906H45.1764C44.2164 115.906 43.4017 115.091 43.4017 114.131C43.4017 113.171 44.2164 112.356 45.1764 112.356H96.2939C97.254 112.502 98.0686 113.171 98.0686 114.131H98.0395ZM81.0198 109.098H60.567V105.694H81.0198V109.098ZM74.1828 102.29H67.3749V90.3032H74.1828V102.29ZM74.1828 86.8702H67.3749V85.0955H74.1828V86.8702ZM67.3749 81.837V51.1723H74.1828V81.837H67.3749ZM88.9041 81.837L96.4103 66.8538V81.837H88.9041ZM107.175 81.837H99.6688V66.8538L107.175 81.837ZM98.0395 93.7072C93.0063 93.7072 88.7587 90.0414 87.944 85.1246H108.106C107.291 90.0414 103.073 93.7072 98.0104 93.7072H98.0395Z" fill="#94BB3F"/>
<path d="M38.4853 54.5751C41.3365 54.5751 43.5185 52.2477 43.5185 49.5419C43.5185 46.6908 41.191 44.3633 38.4853 44.3633C35.7796 44.3633 33.3066 46.6908 33.3066 49.3965C33.3066 52.1022 35.6341 54.5751 38.4853 54.5751ZM38.4853 47.7672C39.4454 47.7672 40.26 48.5819 40.26 49.5419C40.26 50.502 39.4454 51.3167 38.4853 51.3167C37.5252 51.3167 36.7106 50.502 36.7106 49.5419C36.7106 48.4655 37.5252 47.7672 38.4853 47.7672Z" fill="#94BB3F"/>
<path d="M100.629 51.1741C103.888 51.1741 106.622 48.4393 106.622 45.1808C106.622 41.9223 103.888 39.1875 100.629 39.1875C97.3705 39.1875 94.6357 41.9223 94.6357 45.1808C94.6357 48.4393 97.3705 51.1741 100.629 51.1741ZM100.629 42.5915C101.996 42.5915 103.218 43.6679 103.218 45.1808C103.218 46.5482 102.142 47.7701 100.629 47.7701C99.2616 47.7701 98.0397 46.6936 98.0397 45.1808C98.0397 43.8134 99.1162 42.5915 100.629 42.5915Z" fill="#94BB3F"/>
</g>
<defs>
<clipPath id="clip0_688_8399">
<rect width="142.5" height="142.5" fill="white" transform="translate(0.75 0.5)"/>
</clipPath>
</defs>
</svg>
