<svg width="144" height="143" viewBox="0 0 144 143" fill="none" xmlns="http://www.w3.org/2000/svg">
<g clip-path="url(#clip0_688_8384)">
<path d="M88.322 0.00195312H55.679C25.3427 0.00195312 0.750244 24.5944 0.750244 54.9307V87.5737C0.750244 117.91 25.3427 142.502 55.679 142.502H88.322C118.658 142.502 143.251 117.91 143.251 87.5737V54.9307C143.251 24.5944 118.658 0.00195312 88.322 0.00195312Z" fill="#094451"/>
<path d="M83.2013 39.8318L97.9227 37.0098L111.917 38.8136V56.7061C111.917 56.7061 104.992 65.1142 103.509 67.5289C102.025 69.9437 97.9227 71.1366 97.9227 71.1366L91.7549 69.42L83.1432 59.2373L81.3394 47.8617L83.2013 39.8609V39.8318Z" fill="#D8E8AA"/>
<path d="M99.3488 45.7382L94.8684 50.2186L94.2865 49.6367C92.57 47.9202 89.6607 47.9202 87.9441 49.6367C86.2276 51.3533 86.2276 54.2626 87.9441 55.9791L93.7047 61.7397C94.432 62.467 95.5667 62.467 96.294 61.7397L105.808 52.2261C107.524 50.5095 107.524 47.6002 105.808 45.8837C103.946 43.8762 101.036 43.8762 99.3197 45.7382H99.3488ZM103.247 49.4913L95.0139 57.7248L90.5335 53.2443C90.2425 52.9534 90.2425 52.3715 90.5335 51.9351C90.8244 51.6442 91.4063 51.6442 91.8427 51.9351L93.7047 53.7971C94.432 54.5245 95.5667 54.5245 96.294 53.7971L102.055 48.0366C102.345 47.7457 102.927 47.7457 103.364 48.0366C103.509 48.6185 103.509 49.2003 103.218 49.4913H103.247Z" fill="#94BB3F"/>
<path d="M113.634 37.6782C113.634 36.5145 112.616 35.6708 111.626 35.9617C107.291 36.6891 103.538 36.3981 100.658 35.3798C100.513 35.2344 100.222 35.2344 100.076 35.2344H93.4429C93.152 35.2344 93.0065 35.2344 92.861 35.3798C89.9808 36.5436 86.2277 36.6891 81.8927 35.9617C80.729 35.8162 79.8853 36.6891 79.8853 37.6782V49.5193H61.2654C58.3851 49.5193 55.9413 51.8177 55.9413 54.8435V56.7055H36.1867C35.1684 56.7055 34.3247 57.5783 34.3247 58.5674V71.8341C34.3247 75.8781 36.4776 79.6312 39.7943 81.7841V104.71C39.7943 109.045 43.2564 112.507 47.5914 112.507H93.1811C97.516 112.507 100.978 109.045 100.978 104.71V81.7841C104.149 79.7767 106.302 76.0236 106.302 71.8341V66.9173C109.473 63.7461 111.365 61.5932 112.354 58.5384C113.808 54.6398 113.663 49.0247 113.663 37.6201L113.634 37.6782ZM59.6943 54.8144C59.6943 53.9416 60.4217 53.0978 61.4109 53.0978H79.7398C79.8853 54.5525 79.8853 55.6872 80.1762 56.7055H59.6943V54.8435V54.8144ZM97.4869 104.739C97.4869 107.037 95.6249 108.928 93.2974 108.928H47.7078C45.4094 108.928 43.5183 107.066 43.5183 104.739V83.3843C44.3911 83.6752 45.3803 83.8207 46.3986 83.8207H48.9879V85.6827C47.9696 85.6827 47.1259 86.5555 47.1259 87.5447C47.1259 88.5339 47.9987 89.4067 48.9879 89.4067V91.2687C47.9696 91.2687 47.1259 92.1415 47.1259 93.1306C47.1259 94.1198 47.9987 94.9926 48.9879 94.9926V97.0001C48.9879 97.0001 48.9879 97.291 49.1333 97.4365C49.2788 97.7274 49.1334 97.4365 52.8864 103.052C53.6138 104.07 55.1848 104.07 55.9122 103.052C59.6652 97.4365 59.5198 97.7274 59.6652 97.4365C59.8107 97.291 59.8107 97.1456 59.8107 97.0001V94.9926C60.829 94.9926 61.6727 94.1198 61.6727 93.1306C61.6727 92.1415 60.7999 91.2687 59.8107 91.2687V89.4067C60.829 89.4067 61.6727 88.5339 61.6727 87.5447C61.6727 86.5555 60.7999 85.6827 59.8107 85.6827V83.8207H81.4563V85.6827C80.4381 85.6827 79.7398 86.5555 79.7398 87.5447C79.7398 88.5339 80.6126 89.4067 81.4563 89.4067V91.2687C80.4381 91.2687 79.7398 92.1415 79.7398 93.1306C79.7398 94.1198 80.6126 94.9926 81.4563 94.9926C81.4563 94.9926 81.4563 96.8546 81.4563 96.7092V97.0001C81.4563 97.0001 81.4563 97.291 81.6018 97.4365C81.7473 97.7274 81.6018 97.4365 85.3549 103.052C86.0822 104.07 87.6533 104.07 88.3806 103.052C92.1337 97.291 91.9882 97.7274 92.1337 97.4365C92.1337 97.291 92.2792 97.291 92.2792 97.1456C92.2792 97.0001 92.4246 96.7092 92.4246 96.5637V94.7017C93.4429 94.7017 94.2866 93.8289 94.2866 92.8397C94.2866 91.8505 93.4138 90.9777 92.4246 90.9777V89.1157C93.4429 89.1157 94.2866 88.2429 94.2866 87.2537C94.2866 86.2646 93.4138 85.3918 92.4246 85.3918V83.6752C94.2866 83.6752 96.0322 83.6752 97.8942 83.2388L97.4578 104.739H97.4869ZM56.0867 85.5372H52.4791V78.322H56.0867V85.5372ZM54.2247 98.5421L52.5082 95.8073V94.498H56.1158V95.8073L54.2538 98.5421H54.2247ZM52.4791 91.0359V89.1739H56.0867V91.0359H52.4791ZM88.5261 85.5372H84.9185V78.322H88.5261V85.5372ZM86.6641 98.5421L84.8021 95.8073V94.498H88.4097V95.8073L86.6932 98.5421H86.6641ZM84.9476 91.0359V89.1739H88.5552V91.0359H84.9476ZM99.4944 78.642C97.4869 80.2422 94.8685 80.2422 92.1337 80.2422V76.6346C92.1337 75.6163 91.2609 74.7726 90.2717 74.7726H83.0565C82.0382 74.7726 81.1945 75.6454 81.1945 76.6346V80.2422H59.5489V76.6346C59.5489 75.6163 58.6761 74.7726 57.6869 74.7726H50.4717C49.4534 74.7726 48.6097 75.6454 48.6097 76.6346V80.2422H46.0203C41.5399 80.2422 37.6414 76.4891 37.6414 72.0087V60.4585H80.7581C82.4746 63.9207 85.5295 66.3645 91.4355 72.5615C91.7264 72.8524 92.3083 73.1433 92.7447 73.1433H99.378C99.8144 73.1433 100.396 72.9979 100.687 72.5615C101.269 71.9796 101.851 71.2523 102.404 70.8449V72.1542C102.986 74.598 101.676 77.071 99.5235 78.642H99.4944ZM109.153 57.5783C108.135 61.0404 105.4 62.9024 99.2034 69.4194H94.0248C85.093 60.0512 83.4929 60.3422 83.202 51.8177C83.0565 50.363 83.202 41.2858 83.202 39.8603C87.246 40.2967 90.7081 39.8603 93.5884 38.842H99.6398C102.52 39.8603 105.982 40.1512 110.026 39.8603C110.026 49.3739 110.172 54.4362 109.153 57.6074V57.5783Z" fill="#94BB3F"/>
<path d="M75.8413 63.918H65.0185C64.0002 63.918 63.302 64.7908 63.302 65.78V72.9952C63.302 74.0135 64.1748 74.8572 65.0185 74.8572H75.8413C76.8596 74.8572 77.7033 73.9844 77.7033 72.9952V65.78C77.7033 64.7617 76.8305 63.918 75.8413 63.918ZM74.1248 71.1332H66.9096V67.5256H74.1248V71.1332Z" fill="#94BB3F"/>
<path d="M77.7324 98.252H63.3019C62.2837 98.252 61.4399 99.1248 61.4399 100.114C61.4399 101.103 62.3127 101.976 63.3019 101.976H77.7324C78.7506 101.976 79.5944 101.103 79.5944 100.114C79.4489 98.9502 78.7215 98.252 77.7324 98.252Z" fill="#94BB3F"/>
<path d="M74.1248 103.574H66.9096C65.8913 103.574 65.0476 104.447 65.0476 105.436C65.0476 106.425 65.9204 107.298 66.9096 107.298H74.1248C75.1431 107.298 75.9868 106.425 75.9868 105.436C75.8413 104.418 75.114 103.574 74.1248 103.574Z" fill="#94BB3F"/>
<path d="M62.4293 44.1659C64.8731 44.1659 66.9097 42.1584 66.9097 39.6855C66.9097 37.2125 64.9022 35.2051 62.4293 35.2051C59.9563 35.2051 57.9488 37.2125 57.9488 39.6855C57.8034 42.1294 59.8108 44.1659 62.4293 44.1659ZM62.4293 38.6672C62.8657 38.6672 63.3021 39.1036 63.3021 39.54C63.3021 39.9764 62.8657 40.4128 62.4293 40.4128C61.9929 40.4128 61.5564 39.9764 61.5564 39.54C61.411 39.1036 61.8474 38.6672 62.4293 38.6672Z" fill="#94BB3F"/>
<path d="M107.437 94.6426C104.993 94.6426 102.956 96.65 102.956 99.123C102.956 101.596 104.964 103.603 107.437 103.603C109.91 103.603 111.917 101.596 111.917 99.123C111.917 96.65 109.91 94.6426 107.437 94.6426ZM107.437 99.9667C107 99.9667 106.564 99.5303 106.564 99.0939C106.564 98.6575 107 98.2211 107.437 98.2211C107.873 98.2211 108.31 98.6575 108.31 99.0939C108.31 99.5303 108.019 99.9667 107.437 99.9667Z" fill="#94BB3F"/>
<path d="M43.4019 45.8798C43.4019 42.854 40.958 40.4102 38.0778 40.4102C35.052 40.4102 32.6082 42.854 32.6082 45.8798C32.6082 48.9055 35.052 51.2039 38.0778 51.2039C41.1035 51.3494 43.4019 48.9055 43.4019 45.8798ZM36.1867 45.8798C36.1867 44.8615 37.0595 44.0178 38.0487 44.0178C39.0378 44.0178 39.9107 44.8906 39.9107 45.8798C39.9107 46.8689 39.0378 47.5963 38.0487 47.5963C37.0595 47.5963 36.1867 46.8689 36.1867 45.8798Z" fill="#94BB3F"/>
</g>
<defs>
<clipPath id="clip0_688_8384">
<rect width="142.5" height="142.5" fill="white" transform="translate(0.749756)"/>
</clipPath>
</defs>
</svg>
