<svg width="144" height="143" viewBox="0 0 144 143" fill="none" xmlns="http://www.w3.org/2000/svg">
<g clip-path="url(#clip0_688_8282)">
<path d="M88.3213 0.00195312H55.6782C25.3419 0.00195312 0.749512 24.5944 0.749512 54.9307V87.5737C0.749512 117.91 25.3419 142.502 55.6782 142.502H88.3213C118.658 142.502 143.25 117.91 143.25 87.5737V54.9307C143.25 24.5944 118.658 0.00195312 88.3213 0.00195312Z" fill="#094451"/>
<path d="M48.4334 99.0617C48.4334 99.7891 47.997 100.662 47.7061 101.36C47.7061 101.36 47.4151 101.797 47.1242 102.087C46.1059 103.251 44.6803 103.949 43.0802 103.949C40.0545 103.949 37.6106 101.506 37.6106 98.4799C37.6106 96.7633 38.4834 95.1632 39.6181 94.2904C39.6181 94.2904 39.909 93.9995 40.1999 93.9995L40.3454 93.854C41.0727 93.4176 41.9455 93.1266 42.7893 93.1266C45.815 92.9812 48.8407 95.716 48.4043 99.0326L48.4334 99.0617Z" fill="#D8E8AA"/>
<path d="M106.242 57.0796C103.217 57.0796 100.627 54.6358 100.918 51.1736C100.918 51.1736 100.918 50.7372 101.064 50.3008V50.0099C101.209 49.428 101.5 48.9916 101.791 48.5552C101.791 48.5552 101.936 48.2643 102.082 48.1188C103.1 46.955 104.526 46.1113 106.271 46.1113C109.297 46.1113 111.741 48.5552 111.741 51.5809C111.741 53.7339 110.577 55.4795 108.861 56.3523C108.57 56.4977 108.133 56.6432 107.697 56.7887H107.406C106.97 57.0796 106.533 57.0796 106.388 57.0796H106.242Z" fill="#D8E8AA"/>
<path d="M38.0472 95.4538C33.1303 88.3841 30.541 80.1797 30.541 71.5098C30.541 60.396 34.876 50.0096 42.644 42.2416C50.441 34.4445 60.8275 30.1387 71.9121 30.1387C78.4 30.1387 84.5969 31.5934 90.3866 34.4736C95.8562 37.2084 100.773 41.2524 104.672 46.1692C105.253 46.8966 105.108 48.0312 104.381 48.7586C103.653 49.3405 102.519 49.195 101.791 48.4676C94.576 39.245 83.6078 33.8917 71.9412 33.8917C51.0229 33.8917 34.0032 50.9115 34.0032 71.8298C34.0032 79.7724 36.447 87.2494 40.9274 93.7664C41.5093 94.6392 41.3638 95.6284 40.491 96.2102C39.7637 96.5012 38.629 96.3557 38.0472 95.4829V95.4538Z" fill="#94BB3F"/>
<path d="M99.0562 50.8795C99.3471 47.4174 102.518 44.5371 106.271 44.5371C110.315 44.5371 113.487 47.7083 113.487 51.7523C113.487 55.069 111.188 57.9493 108.017 58.6766C102.955 59.9858 98.5034 55.7963 99.0853 50.8795H99.0562ZM106.242 55.3308C108.25 55.3308 109.85 53.7307 109.85 51.7232C109.85 49.7158 108.25 48.1156 106.242 48.1156C105.369 48.1156 104.642 48.4066 104.089 48.843C103.653 49.2794 103.362 49.5703 103.217 49.8612C103.217 50.0067 103.071 50.1522 103.071 50.2976C102.926 50.5886 102.78 50.8795 102.78 51.3159V51.4614C102.344 53.6143 104.235 55.3599 106.242 55.3599V55.3308Z" fill="#94BB3F"/>
<path d="M43.0807 105.841C39.0367 105.841 35.8655 102.669 35.8655 98.6254C35.8655 96.4724 36.7383 94.4359 38.6003 93.0103C39.764 91.992 41.3351 91.4102 43.0807 91.4102C47.852 91.4102 51.4597 96.1815 50.005 100.778C49.8595 101.506 49.4231 102.088 49.2776 102.495C48.9867 103.077 48.5503 103.513 48.2594 103.804C46.8047 104.968 45.0882 105.811 43.0807 105.811V105.841ZM39.4731 98.6254C39.4731 100.633 41.0732 102.233 43.0807 102.233C44.099 102.233 44.9427 101.797 45.67 101.215C45.67 101.215 45.8155 101.069 45.961 100.778C47.823 98.189 45.67 94.8723 42.9352 95.0178H42.6443C42.3534 95.0178 42.1594 95.0662 42.0624 95.1632C42.0624 95.1632 41.917 95.1632 41.7715 95.3087C41.4805 95.4542 41.3351 95.4542 41.3351 95.4542C41.3351 95.4542 41.1896 95.5996 40.7532 95.7451C40.7532 95.7451 39.444 97.3453 39.444 98.6254H39.4731Z" fill="#94BB3F"/>
<path d="M71.9414 59.9606H63.5624C57.8019 59.9606 53.176 55.3348 53.176 49.5742H61.555C64.4352 49.5742 67.0246 50.738 68.9157 52.6C70.8067 54.4619 71.9414 57.0804 71.9414 59.9606Z" fill="#D8E8AA"/>
<path d="M82.3276 66.1602H90.7065C90.7065 69.0404 89.5428 71.6298 87.6808 73.5208C85.8188 75.3828 83.2004 76.5466 80.3201 76.5466H71.9412C71.9412 73.6663 73.1049 71.077 74.9669 69.1859C76.8289 67.3239 79.4473 66.1602 82.3276 66.1602Z" fill="#D8E8AA"/>
<path d="M71.9414 93.1286H63.5624C60.6822 93.1286 58.0928 91.9649 56.2018 90.1029C54.3398 88.2409 53.176 85.6225 53.176 82.7422H61.555C64.4352 82.7422 67.0246 83.9059 68.9157 85.7679C70.7777 87.6299 71.9414 90.2483 71.9414 93.1286Z" fill="#D8E8AA"/>
<path d="M82.3276 82.7422H90.7065C90.7065 85.6225 89.5428 88.2118 87.6808 90.1029C85.8188 91.9649 83.2004 93.1286 80.3201 93.1286H71.9412C71.9412 90.2483 73.1049 87.659 74.9669 85.7679C76.8289 83.9059 79.4473 82.7422 82.3276 82.7422Z" fill="#D8E8AA"/>
<path d="M90.6772 49.4316C90.6772 55.1922 86.0514 59.8181 80.2908 59.8181H71.9119C71.9119 56.9378 73.0756 54.3485 74.9376 52.4574C76.7996 50.5954 79.418 49.4316 82.2983 49.4316H90.6772Z" fill="#D8E8AA"/>
<path d="M71.9414 76.5466H63.5624C60.6822 76.5466 58.0928 75.3828 56.2018 73.5208C54.3398 71.6588 53.176 69.0404 53.176 66.1602H61.555C64.4352 66.1602 67.0246 67.3239 68.9157 69.1859C70.7777 71.0479 71.9414 73.6663 71.9414 76.5466Z" fill="#D8E8AA"/>
<path d="M99.957 79.012L97.4065 81.5625L99.957 84.113L102.508 81.5625L99.957 79.012Z" fill="#94BB3F"/>
<path d="M95.352 56.3225L92.8015 58.873L95.352 61.4236L97.9026 58.873L95.352 56.3225Z" fill="#94BB3F"/>
<path d="M48.4326 76.1213L45.8821 78.6719L48.4326 81.2224L50.9831 78.6719L48.4326 76.1213Z" fill="#94BB3F"/>
<path d="M40.5532 63.5061L38.0027 66.0566L40.5532 68.6072L43.1037 66.0566L40.5532 63.5061Z" fill="#94BB3F"/>
<path d="M71.9408 104.675C70.9226 104.675 70.0789 103.802 70.0789 102.813V44.3932C70.0789 43.375 70.9517 42.5312 71.9408 42.5312C72.93 42.5312 73.8028 43.4041 73.8028 44.3932V102.813C73.8028 103.831 72.93 104.675 71.9408 104.675Z" fill="#94BB3F"/>
<path d="M80.2912 95.0147H71.9123C70.894 95.0147 70.0503 94.1419 70.0503 93.1527C70.0503 89.836 71.3595 86.8103 73.6579 84.5119C75.9563 82.2135 78.982 80.9043 82.2987 80.9043H90.6777C91.6959 80.9043 92.5396 81.7771 92.5396 82.7663C92.5396 86.083 91.2304 89.1087 88.932 91.4071C86.6336 93.7055 83.6079 95.0147 80.2912 95.0147ZM73.9488 91.4071H80.2912C82.5896 91.4071 84.7717 90.5343 86.3427 88.8178C87.5065 87.654 88.3502 86.083 88.6411 84.4828H82.2987C80.0003 84.4828 77.8183 85.3556 76.2472 87.0721C75.0835 88.2359 74.2398 89.6615 73.9488 91.4071Z" fill="#94BB3F"/>
<path d="M71.9408 95.0147H63.5619C60.2452 95.0147 57.2195 93.7055 54.9211 91.4071C52.6227 89.1087 51.3135 86.083 51.3135 82.7663C51.3135 81.748 52.1863 80.9043 53.1755 80.9043H61.5544C64.8711 80.9043 67.8968 82.2135 70.1952 84.5119C72.4936 86.8103 73.8028 89.836 73.8028 93.1527C73.8028 94.171 72.93 95.0147 71.9408 95.0147ZM55.212 84.4828C55.503 86.083 56.3758 87.654 57.5104 88.8178C59.1106 90.4179 61.2635 91.4071 63.5619 91.4071H69.9043C69.6134 89.8069 68.7405 88.2359 67.6059 87.0721C66.0057 85.472 63.8528 84.4828 61.5544 84.4828H55.212Z" fill="#94BB3F"/>
<path d="M80.2912 78.2862H71.9123C70.894 78.2862 70.0503 77.4134 70.0503 76.4242C70.0503 73.1075 71.3595 70.0818 73.6579 67.7834C75.9563 65.485 78.982 64.1758 82.2987 64.1758H90.6777C91.6959 64.1758 92.5396 65.0486 92.5396 66.0378C92.5396 69.3544 91.2304 72.3802 88.932 74.6786C86.6336 77.1224 83.6079 78.2862 80.2912 78.2862ZM73.9488 74.6786H80.2912C82.5896 74.6786 84.7717 73.8058 86.3427 72.0892C87.5065 70.9255 88.3502 69.3544 88.6411 67.7543H82.2987C80.0003 67.7543 77.8183 68.6271 76.2472 70.3436C75.0835 71.6528 74.2398 73.0784 73.9488 74.6786Z" fill="#94BB3F"/>
<path d="M71.9408 78.2862H63.5619C60.2452 78.2862 57.2195 76.977 54.9211 74.6786C52.6227 72.3802 51.3135 69.3544 51.3135 66.0378C51.3135 65.0195 52.1863 64.1758 53.1755 64.1758H61.5544C64.8711 64.1758 67.8968 65.485 70.1952 67.7834C72.4936 70.0818 73.8028 73.1075 73.8028 76.4242C73.8028 77.5879 72.93 78.2862 71.9408 78.2862ZM55.212 67.8998C55.503 69.4999 56.3758 71.071 57.5104 72.2347C59.1106 73.8349 61.2635 74.824 63.5619 74.824H69.9043C69.6134 73.2239 68.7405 71.6528 67.6059 70.4891C66.0057 68.8889 63.8528 67.8998 61.5544 67.8998H55.212Z" fill="#94BB3F"/>
<path d="M80.291 61.7061H71.912C70.8938 61.7061 70.05 60.8333 70.05 59.8441C70.05 56.5274 71.3593 53.5017 73.6577 51.2033C75.956 48.9049 78.9818 47.5957 82.2985 47.5957H90.6774C91.6957 47.5957 92.5394 48.4685 92.5394 49.4577C92.5394 56.2365 87.0698 61.7061 80.291 61.7061ZM73.9486 58.0985H80.291C84.4805 58.0985 87.9426 55.2182 88.7863 51.3197H82.4439C80.1455 51.3197 77.9635 52.1925 76.3925 53.909C75.0832 55.0728 74.2395 56.4983 73.9486 58.0985Z" fill="#94BB3F"/>
<path d="M71.9411 61.7061H63.5621C56.7833 61.7061 51.3137 56.2365 51.3137 49.4577C51.3137 48.4394 52.1865 47.5957 53.1757 47.5957H61.5547C64.8713 47.5957 67.8971 48.9049 70.1955 51.2033C72.4939 53.5017 73.8031 56.5274 73.8031 59.8441C73.8031 61.0079 72.9303 61.7061 71.9411 61.7061ZM55.2123 51.3197C56.0851 55.2182 59.5472 58.0985 63.7076 58.0985H70.05C69.7591 56.4983 68.8863 54.9273 67.7516 53.7635C66.1515 52.1634 63.9985 51.1742 61.7001 51.1742H55.2123V51.3197Z" fill="#94BB3F"/>
<path d="M71.9413 113.028C62.4277 113.028 53.205 109.712 45.8443 103.806C45.117 103.224 44.9715 102.089 45.5534 101.216C46.1352 100.489 47.2699 100.343 48.1427 100.925C54.9215 106.395 63.3005 109.45 71.9413 109.45C92.8596 109.45 109.879 92.4299 109.879 71.5116C109.879 66.5948 108.861 61.7071 107.145 57.2267C106.708 56.3539 107.145 55.2192 108.163 54.9283C109.036 54.4919 110.17 54.9283 110.461 55.9466C112.469 61.0088 113.487 66.1875 113.487 71.6571C113.487 82.7709 109.152 93.1573 101.384 100.925C93.4414 108.722 83.055 113.028 71.9704 113.028H71.9413Z" fill="#94BB3F"/>
</g>
<defs>
<clipPath id="clip0_688_8282">
<rect width="142.5" height="142.5" fill="white" transform="translate(0.75)"/>
</clipPath>
</defs>
</svg>
