<svg width="24" height="25" viewBox="0 0 24 25" fill="none" xmlns="http://www.w3.org/2000/svg">
<path d="M19.5 3.125H17.625V2.75C17.625 2.45163 17.5065 2.16548 17.2955 1.9545C17.0845 1.74353 16.7984 1.625 16.5 1.625C16.2016 1.625 15.9155 1.74353 15.7045 1.9545C15.4935 2.16548 15.375 2.45163 15.375 2.75V3.125H8.625V2.75C8.625 2.45163 8.50647 2.16548 8.2955 1.9545C8.08452 1.74353 7.79837 1.625 7.5 1.625C7.20163 1.625 6.91548 1.74353 6.7045 1.9545C6.49353 2.16548 6.375 2.45163 6.375 2.75V3.125H4.5C4.00272 3.125 3.52581 3.32254 3.17417 3.67417C2.82254 4.02581 2.625 4.50272 2.625 5V20C2.625 20.4973 2.82254 20.9742 3.17417 21.3258C3.52581 21.6775 4.00272 21.875 4.5 21.875H19.5C19.9973 21.875 20.4742 21.6775 20.8258 21.3258C21.1775 20.9742 21.375 20.4973 21.375 20V5C21.375 4.50272 21.1775 4.02581 20.8258 3.67417C20.4742 3.32254 19.9973 3.125 19.5 3.125ZM6.375 5.375C6.375 5.67337 6.49353 5.95952 6.7045 6.1705C6.91548 6.38147 7.20163 6.5 7.5 6.5C7.79837 6.5 8.08452 6.38147 8.2955 6.1705C8.50647 5.95952 8.625 5.67337 8.625 5.375H15.375C15.375 5.67337 15.4935 5.95952 15.7045 6.1705C15.9155 6.38147 16.2016 6.5 16.5 6.5C16.7984 6.5 17.0845 6.38147 17.2955 6.1705C17.5065 5.95952 17.625 5.67337 17.625 5.375H19.125V7.625H4.875V5.375H6.375ZM4.875 19.625V9.875H19.125V19.625H4.875ZM16.1709 11.7041C16.2758 11.8086 16.359 11.9328 16.4158 12.0695C16.4726 12.2063 16.5018 12.3529 16.5018 12.5009C16.5018 12.649 16.4726 12.7956 16.4158 12.9324C16.359 13.0691 16.2758 13.1933 16.1709 13.2978L11.6709 17.7978C11.5664 17.9027 11.4422 17.9859 11.3055 18.0427C11.1687 18.0995 11.0221 18.1287 10.8741 18.1287C10.726 18.1287 10.5794 18.0995 10.4426 18.0427C10.3059 17.9859 10.1817 17.9027 10.0772 17.7978L7.82719 15.5478C7.61584 15.3365 7.49711 15.0498 7.49711 14.7509C7.49711 14.4521 7.61584 14.1654 7.82719 13.9541C8.03853 13.7427 8.32518 13.624 8.62406 13.624C8.92295 13.624 9.20959 13.7427 9.42094 13.9541L10.875 15.4062L14.5791 11.7013C14.6837 11.5968 14.808 11.5141 14.9446 11.4577C15.0813 11.4013 15.2277 11.3724 15.3756 11.3727C15.5234 11.373 15.6698 11.4024 15.8062 11.4592C15.9427 11.5161 16.0666 11.5993 16.1709 11.7041Z" fill="black"/>
</svg>
