<svg width="144" height="143" viewBox="0 0 144 143" fill="none" xmlns="http://www.w3.org/2000/svg">
<g clip-path="url(#clip0_688_8411)">
<path d="M88.3217 0.494141H55.6787C25.3424 0.494141 0.75 25.0866 0.75 55.4229V88.0659C0.75 118.402 25.3424 142.995 55.6787 142.995H88.3217C118.658 142.995 143.25 118.402 143.25 88.0659V55.4229C143.25 25.0866 118.658 0.494141 88.3217 0.494141Z" fill="#094451"/>
<path d="M73.3383 51.1731C73.3383 51.1731 69.0907 44.918 63.3592 44.918C57.6278 44.918 50.4708 52.075 51.9255 56.3518C53.3801 60.6285 55.9986 67.5528 59.6934 70.5494C63.3883 73.5461 73.222 82.1578 73.222 82.1578L90.5327 66.36C90.5327 66.36 94.8385 62.0541 94.8385 54.9262C94.8385 47.7982 89.1071 45.6162 85.5286 45.6162C81.9501 45.6162 79.0989 44.8889 77.6733 47.7691C76.2477 50.6494 73.3383 51.1731 73.3383 51.1731Z" fill="#D8E8AA"/>
<path d="M109.619 79.3935C107 76.7751 102.84 76.7751 100.222 79.3935L86.6641 91.991C85.704 90.0418 83.7547 88.8198 81.5436 88.5289L49.7152 85.0668C49.1624 85.0668 48.6096 85.2122 48.3187 85.6195L35.052 98.8862C34.3538 99.5845 34.3538 100.69 35.052 101.388L48.9006 115.208C49.5988 115.906 50.7044 115.906 51.4026 115.208L55.2721 111.338L85.4421 112.444C85.8494 112.444 86.4022 112.298 86.6932 111.891L109.648 88.9362C112.266 86.1723 112.266 82.0119 109.648 79.3935H109.619ZM107.117 86.3178L84.7148 108.865L55.243 107.76L48.0568 100.574C47.3586 99.8754 46.253 99.8754 45.5548 100.574C44.8565 101.272 44.8565 102.377 45.5548 103.076L52.0427 109.564L50.0934 111.513L38.6014 100.021L49.9479 88.6744C82.3291 92.282 81.0781 92.1365 81.2236 92.1365C82.62 92.282 83.7256 93.2421 83.842 94.6386C83.9874 96.2969 82.591 97.8098 80.9326 97.8098L63.3601 96.966C62.4 96.966 61.5563 97.6643 61.5563 98.6244C61.5563 99.5845 62.2545 100.428 63.2146 100.428L80.7872 101.272C83.842 101.417 86.4604 99.3226 87.1586 96.4424C103.218 81.4882 102.52 82.041 102.52 82.041C103.771 80.79 105.837 80.79 107.088 82.041C108.339 83.1466 108.339 85.0958 107.088 86.3178H107.117Z" fill="#94BB3F"/>
<path d="M53.2936 64.3237H50.6751C49.715 64.3237 48.8713 65.1675 48.8713 66.1275C48.8713 67.0876 49.715 67.7859 50.6751 67.7859H55.6501C59.9269 73.0518 66.1529 77.7359 72.5244 84.1074C73.2227 84.8056 74.3282 84.8056 75.0265 84.1074C81.8053 77.3286 88.5841 72.3536 92.8609 66.6803H98.1268C99.0869 66.6803 99.9306 65.8366 99.9306 65.022C99.9306 64.0619 99.0869 63.2182 98.1268 63.2182H95.072C96.1775 60.8616 96.8758 58.3886 96.8758 55.5957C96.8758 48.8168 91.348 43.2891 84.5692 43.2891C79.3032 43.2891 76.2775 45.6456 73.9209 49.3696C71.5643 45.6456 68.5386 43.2891 63.2727 43.2891C56.4939 43.2891 50.9661 48.8168 50.9661 55.5957C50.8206 58.7669 51.8098 61.5308 53.3227 64.3237H53.2936ZM73.7755 80.3543C68.8005 75.5248 63.8254 71.6262 60.2178 67.7568H65.6002C66.4439 67.7568 67.2585 67.0585 67.2585 66.2439L67.404 65.6911L68.5095 69.9679C68.655 70.6661 69.3532 71.2189 70.1679 71.2189C70.9825 71.2189 71.5643 70.8116 71.8262 69.9679L72.7863 67.0585L73.1936 67.9023C73.4845 68.6005 74.1537 68.8623 74.9974 68.8623C75.6956 68.7169 76.3939 68.3096 76.5103 67.6113L77.354 64.4401L79.0123 69.9679C79.1578 70.6661 79.856 71.0735 80.5252 71.2189C81.2234 71.2189 81.9217 70.9571 82.1835 70.2588L83.9873 66.5349H88.4095C84.6856 70.8116 79.2742 74.972 73.7464 80.3543H73.7755ZM63.1272 46.6057C67.2876 46.6057 69.6151 48.4095 72.2626 53.6464C72.5535 54.1992 73.1063 54.6065 73.7755 54.6065C74.4446 54.6065 75.0265 54.1992 75.2883 53.6464C77.9068 48.3804 80.2633 46.6057 84.4237 46.6057C89.3987 46.6057 93.2682 50.6206 93.2682 55.4502C93.2682 58.2141 92.4245 60.7161 90.9116 63.0727H83.0272C82.329 63.0727 81.7762 63.48 81.5144 64.0328L81.1071 64.7311L78.8959 57.3995C78.605 56.7012 77.9358 56.1484 77.2376 56.1484C76.3939 56.1484 75.8411 56.7012 75.5793 57.3995L74.3282 62.1126L74.0664 61.7053C73.7755 61.0071 73.1063 60.7452 72.4081 60.7452C71.7098 60.7452 71.157 61.298 70.8952 61.9963L70.4879 63.5091L68.5386 56.323C68.2477 55.4793 67.5785 54.9265 66.7348 55.072C65.8911 55.072 65.2219 55.7702 65.0765 56.5848L64.1164 64.3237H57.3376C55.3883 61.5598 54.2827 58.796 54.2827 55.4793C54.2827 50.5043 58.2977 46.6348 63.1272 46.6348V46.6057Z" fill="#94BB3F"/>
<path d="M44.1873 80.9059C47.0967 80.9059 49.3078 78.5494 49.3078 75.64C49.3078 72.7306 46.9512 70.5195 44.1873 70.5195C41.278 70.5195 38.9214 72.8761 38.9214 75.64C38.9214 78.5494 41.278 80.9059 44.1873 80.9059ZM44.1873 73.9817C45.1474 73.9817 45.9911 74.8254 45.9911 75.7855C45.9911 76.7456 45.1474 77.5893 44.1873 77.5893C43.2272 77.5893 42.3835 76.7456 42.3835 75.7855C42.3835 74.8254 43.2272 73.9817 44.1873 73.9817Z" fill="#94BB3F"/>
<path d="M46.6603 46.3152C49.0169 46.3152 50.9371 44.366 50.9371 42.0385C50.9371 39.711 48.9878 37.7617 46.6603 37.7617C44.3328 37.7617 42.3835 39.711 42.3835 42.0385C42.3835 44.366 44.3328 46.3152 46.6603 46.3152ZM46.6603 41.2239C47.0676 41.2239 47.504 41.6312 47.504 42.0676C47.504 42.504 47.0967 42.9113 46.6603 42.9113C46.2239 42.9113 45.8166 42.504 45.8166 42.0676C45.8166 41.6312 46.2239 41.2239 46.6603 41.2239Z" fill="#94BB3F"/>
<path d="M106.418 99.9941C103.509 99.9941 101.152 102.351 101.152 105.115C101.152 108.024 103.509 110.381 106.418 110.381C109.327 110.381 111.539 108.024 111.539 105.115C111.539 102.205 109.182 99.9941 106.418 99.9941ZM106.418 106.918C105.458 106.918 104.614 106.075 104.614 105.115C104.614 104.155 105.458 103.456 106.418 103.456C107.378 103.456 108.222 104.3 108.222 105.115C108.076 106.075 107.378 106.918 106.418 106.918Z" fill="#94BB3F"/>
<path d="M107.262 55.042C110.579 55.042 113.343 52.2781 113.343 48.9614C113.343 45.6448 110.579 42.8809 107.262 42.8809C103.946 42.8809 101.182 45.6448 101.182 48.9614C101.182 52.2781 103.946 55.042 107.262 55.042ZM107.262 46.3139C108.659 46.3139 109.881 47.4195 109.881 48.9323C109.881 50.3288 108.775 51.5508 107.262 51.5508C105.866 51.5508 104.644 50.4452 104.644 48.9323C104.644 47.5358 105.895 46.3139 107.262 46.3139Z" fill="#94BB3F"/>
</g>
<defs>
<clipPath id="clip0_688_8411">
<rect width="142.5" height="142.5" fill="white" transform="translate(0.749756 0.5)"/>
</clipPath>
</defs>
</svg>
