<svg width="144" height="143" viewBox="0 0 144 143" fill="none" xmlns="http://www.w3.org/2000/svg">
<g clip-path="url(#clip0_688_8488)">
<path d="M88.3213 -0.00195312H55.6782C25.3419 -0.00195312 0.749512 24.5905 0.749512 54.9268V87.5698C0.749512 117.906 25.3419 142.499 55.6782 142.499H88.3213C118.658 142.499 143.25 117.906 143.25 87.5698V54.9268C143.25 24.5905 118.658 -0.00195312 88.3213 -0.00195312Z" fill="#094451"/>
<path d="M96.6423 74.6806L97.2532 55.857C97.2532 54.6351 97.7478 53.5586 98.5916 52.8313C99.3189 52.104 100.395 51.6094 101.617 51.6094C104.032 51.6094 105.952 53.5296 105.952 55.9443V84.3106L86.1395 102.669V107.382H75.0257V91.6713L72 89.2565L90.8236 74.1569C92.2782 72.9641 94.4312 72.9641 95.8859 74.0405C96.1186 74.2733 96.3804 74.3897 96.6132 74.6515L96.6423 74.6806Z" fill="#094451"/>
<path d="M69.0032 108.949C68.1595 108.949 67.4321 108.221 67.4321 107.378V91.6672C67.4321 91.1726 67.6649 90.8235 68.0431 90.4452L90.0088 72.9309C92.0744 71.2435 94.9547 71.2435 97.0203 72.8145C97.6313 73.3091 97.7477 74.2692 97.2531 74.9965C96.7585 75.6075 95.7984 75.7239 95.071 75.2293C94.111 74.502 92.7727 74.502 91.9289 75.2293L70.5451 92.3654V107.349C70.5451 108.192 69.8178 108.92 68.9741 108.92L69.0032 108.949Z" fill="#94BB3F"/>
<path d="M53.1768 74.1849C51.4894 72.7302 48.8419 72.992 47.5036 74.7958L46.8926 55.9723C46.8926 54.7503 46.398 53.6739 45.5543 52.9465C44.8269 52.2192 43.7505 51.7246 42.5285 51.7246C40.1138 51.7246 38.1936 53.6448 38.1936 56.0596V84.4258L58.0063 102.784V107.497H75.1425V91.7865C74.1824 91.0592 54.7479 75.3777 53.1768 74.1558V74.1849Z" fill="#094451"/>
<path d="M42.557 39.5352C43.7497 39.5352 44.855 40.4951 44.855 41.8332C44.855 43.1712 43.8951 44.0148 42.557 44.0148C41.219 44.0148 40.259 43.0549 40.259 41.7168C40.259 40.3787 41.3353 39.5352 42.557 39.5352Z" fill="#D8E8AA"/>
<path d="M43.4015 98.3359C45.0889 98.3359 46.4272 99.6742 46.4272 101.362C46.4272 103.049 44.9725 104.387 43.4015 104.387C41.8304 104.387 40.3757 103.049 40.3757 101.362C40.3757 99.6742 41.714 98.3359 43.4015 98.3359Z" fill="#D8E8AA"/>
<path d="M101.472 98.3359C102.694 98.3359 103.77 99.2959 103.77 100.634C103.77 101.856 102.81 102.932 101.472 102.932C100.134 102.932 99.1738 101.972 99.1738 100.634C99.1738 99.2959 100.134 98.3359 101.472 98.3359Z" fill="#D8E8AA"/>
<path d="M71.8836 52.4505C72.6109 51.1122 73.4546 49.9194 74.5311 48.8138C78.7497 44.5953 84.9175 43.257 91.5509 44.3334C93.7329 57.0182 86.2267 66.4155 73.9201 66.1827C74.6475 61.5859 74.2693 56.64 71.8545 52.4214L71.8836 52.4505Z" fill="#D8E8AA"/>
<path d="M73.9496 66.2107C59.6937 68.6255 50.0346 58.9664 52.4494 44.7106C66.7053 42.4122 76.248 51.9549 73.9496 66.2107Z" fill="#D8E8AA"/>
<path d="M103.653 43.5216C103.653 43.5216 103.77 43.8707 103.77 44.0161C103.77 44.627 103.421 45.2378 102.693 45.4705C101.85 45.7032 101.006 45.3542 100.774 44.5106C100.774 44.3943 100.657 44.1615 100.657 44.0161C100.657 43.4052 101.006 42.7944 101.734 42.5617C101.85 42.5617 102.083 42.4453 102.228 42.4453C102.839 42.5617 103.45 42.9398 103.682 43.5216H103.653Z" fill="#94BB3F"/>
<path d="M90.0088 67.67C90.0088 67.67 90.1252 68.0191 90.1252 68.1645C90.1252 68.7754 89.7761 69.3572 89.0489 69.619C88.2053 69.8517 87.3618 69.5026 87.1291 68.659C87.1291 68.5427 87.0127 68.31 87.0127 68.1645C87.0127 67.5537 87.3618 66.9428 88.089 66.7101C88.2053 66.7101 88.438 66.5938 88.5835 66.5938C89.3107 66.7101 89.9216 67.0883 90.0379 67.67H90.0088Z" fill="#94BB3F"/>
<path d="M74.9087 81.3146C74.9087 81.3146 75.0251 81.6636 75.0251 81.8091C75.0251 82.4199 74.676 83.0308 73.9488 83.2635C73.1052 83.4962 72.2617 83.1472 72.029 82.3036C72.029 82.1872 71.9126 81.9545 71.9126 81.8091C71.9126 81.1982 72.2617 80.6164 72.9889 80.3546C73.1052 80.3546 73.3379 80.2383 73.4834 80.2383C74.2106 80.2383 74.8215 80.5873 74.9378 81.3146H74.9087Z" fill="#94BB3F"/>
<path d="M73.4541 42.0665C73.4541 42.0665 73.5705 42.4156 73.5705 42.561C73.5705 43.1719 73.2214 43.7827 72.4942 44.0155C71.6506 44.2482 70.8071 43.8991 70.5744 43.0555C70.5744 42.9392 70.458 42.7065 70.458 42.561C70.458 41.9502 70.8071 41.3393 71.5343 41.1066C71.6506 41.1066 71.8834 40.9902 72.0288 40.9902C72.6397 40.9902 73.2505 41.3393 73.4832 42.0665H73.4541Z" fill="#94BB3F"/>
<path d="M53.7867 63.1876C53.7867 63.1876 53.903 63.5367 53.903 63.6821C53.903 64.293 53.5539 64.9038 52.8267 65.1365C51.9832 65.3693 51.1396 65.0202 50.9069 64.1766C50.9069 64.0603 50.7905 63.8276 50.7905 63.6821C50.7905 63.0713 51.1396 62.4604 51.8668 62.2277C51.9832 62.2277 52.2159 62.1113 52.3613 62.1113C53.0885 62.1113 53.6994 62.4604 53.8157 63.1876H53.7867Z" fill="#94BB3F"/>
<path d="M41.7132 91.8146C41.7132 91.8146 41.8295 92.1636 41.8295 92.3091C41.8295 92.9199 41.4805 93.5308 40.7532 93.7635C39.9097 93.9962 39.0661 93.6471 38.8334 92.8036C38.8334 92.6872 38.717 92.4545 38.717 92.3091C38.717 91.6982 39.0661 91.1164 39.7933 90.8546C39.9097 90.8546 40.1424 90.7383 40.2878 90.7383C41.015 90.8546 41.6259 91.2328 41.7423 91.8146H41.7132Z" fill="#94BB3F"/>
<path d="M84.8305 91.9341C84.4814 91.9341 83.9868 91.8177 83.754 91.4395C83.1431 90.8285 83.2594 89.8685 83.8704 89.2575L95.2169 78.8711C96.177 78.0274 96.2934 76.5727 95.4496 75.4962C95.3333 75.3798 95.2169 75.2635 95.1005 75.1471C94.4896 74.6525 94.3732 73.6924 94.8678 72.9651C95.3624 72.3541 96.3225 72.2377 97.0498 72.7323C97.3989 72.9651 97.6608 73.3433 97.8935 73.576C99.6973 75.8744 99.4646 79.1329 97.2825 81.0531L85.936 91.4395C85.5869 91.7886 85.2087 91.9341 84.8596 91.9341H84.8305Z" fill="#94BB3F"/>
<path d="M86.1394 108.953C85.2957 108.953 84.5684 108.225 84.5684 107.382V102.668C84.5684 102.319 84.6847 101.825 85.063 101.592L104.381 83.7285V55.9441C104.381 54.3731 103.159 53.1802 101.617 53.1802C100.89 53.1802 100.163 53.413 99.5516 54.0239C99.057 54.5185 98.7078 55.2459 98.7078 56.0896L98.0969 74.9132C98.0969 75.7569 97.3695 76.3678 96.5258 76.3678C95.6821 76.3678 95.0711 75.6405 95.0711 74.7968L95.6821 55.9732C95.6821 54.4022 96.2931 52.9475 97.3695 51.871C98.446 50.7946 99.9007 50.1836 101.472 50.1836C104.73 50.1836 107.261 52.8311 107.261 55.9732V84.3395C107.261 84.6886 107.145 85.1832 106.767 85.416L87.4486 103.279V107.382C87.565 108.225 86.954 108.953 86.1103 108.953H86.1394Z" fill="#94BB3F"/>
<path d="M77.7027 59.9334C77.3535 59.9334 76.9753 59.8171 76.6262 59.4388C76.0152 58.8279 76.0152 57.8678 76.6262 57.2568L85.0633 48.5578C85.6743 47.9469 86.6344 47.9469 87.2454 48.5578C87.8563 49.1688 87.8563 50.1289 87.2454 50.7399L78.7791 59.4388C78.5464 59.788 78.1682 59.9334 77.7027 59.9334Z" fill="#94BB3F"/>
<path d="M74.2981 63.5706C73.949 63.5706 73.5708 63.4542 73.2217 63.076C72.6107 62.465 72.6107 61.5049 73.2217 60.894L76.7129 57.2863C77.3239 56.6754 78.2839 56.6754 78.8949 57.2863C79.5059 57.8973 79.5059 58.8574 78.8949 59.4684L75.4037 63.076C75.0545 63.4251 74.6763 63.5706 74.3272 63.5706H74.2981Z" fill="#94BB3F"/>
<path d="M81.5429 55.945C80.8155 55.945 80.2046 55.4504 80.0882 54.6067C79.9718 53.763 80.5828 53.0357 81.4265 52.9193L86.0233 52.192C86.867 52.0756 87.5944 52.6866 87.7107 53.5303C87.8271 54.374 87.2161 55.1013 86.3724 55.2177L81.7756 55.945H81.5429Z" fill="#94BB3F"/>
<path d="M77.7029 59.9302C76.8592 59.9302 76.1318 59.2029 76.1318 58.3592C76.1318 57.6318 76.7428 56.9045 77.4701 56.9045L81.8051 56.2935C82.6488 56.1772 83.3761 56.7881 83.4925 57.6318C83.6089 58.4755 82.9979 59.2029 82.1542 59.3193L77.8193 59.9302C77.8193 59.9302 77.8193 59.9302 77.7029 59.9302Z" fill="#94BB3F"/>
<path d="M74.2984 63.5671C73.4547 63.5671 72.8438 62.9561 72.8438 62.1124C72.8438 61.2687 73.4547 60.5413 74.2984 60.5413L78.1679 60.3086C79.0116 60.3086 79.7389 60.9196 79.7389 61.7633C79.7389 62.607 79.128 63.3343 78.2843 63.3343L74.2984 63.5671Z" fill="#94BB3F"/>
<path d="M78.7789 58.8539H78.5461C77.7024 58.7375 77.0915 58.0102 77.2078 57.1664L77.8188 52.3369C77.9352 51.4932 78.6625 50.8822 79.5062 50.9986C80.3499 51.115 80.9609 51.8423 80.8445 52.686L80.2336 57.5156C80.2336 58.2429 79.6226 58.8539 78.7789 58.8539Z" fill="#94BB3F"/>
<path d="M73.9495 67.7863C73.6004 67.7863 73.2222 67.6699 72.873 67.2917L56.697 51.232C56.086 50.6211 56.086 49.661 56.697 49.05C57.308 48.4391 58.268 48.4391 58.879 49.05L74.9387 65.1097C75.5497 65.7207 75.5497 66.6807 74.9387 67.2917C74.7059 67.6408 74.3277 67.7863 73.9786 67.7863H73.9495Z" fill="#94BB3F"/>
<path d="M62.4867 56.3248H62.2539L57.5408 55.7138C56.6971 55.5974 56.0861 54.8701 56.2025 54.0264C56.3188 53.1826 57.0462 52.5717 57.8899 52.6881L62.6031 53.4154C63.4468 53.5318 64.0577 54.2591 63.9414 55.1028C63.825 55.8302 63.214 56.3248 62.4867 56.3248Z" fill="#94BB3F"/>
<path d="M66.4721 60.4216H66.2394L61.6426 59.6943C60.7989 59.5779 60.1879 58.8505 60.3043 58.0068C60.4206 57.1631 61.148 56.5522 61.9917 56.6685L66.7049 57.3959C67.5486 57.5122 68.1595 58.2396 68.0432 59.0833C67.9268 59.8106 67.1995 60.4216 66.4721 60.4216Z" fill="#94BB3F"/>
<path d="M70.5748 64.4118H70.3421L65.6289 63.6845C64.7852 63.5681 64.1742 62.8408 64.2906 61.9971C64.407 61.1533 65.1343 60.5424 65.978 60.6588L70.6912 61.3861C71.5349 61.5025 72.1459 62.2298 72.0295 63.0735C71.9131 63.9172 71.3022 64.4118 70.5748 64.4118Z" fill="#94BB3F"/>
<path d="M65.1342 59.0852C64.4069 59.0852 63.7959 58.4742 63.6796 57.7469L62.9522 53.0337C62.8358 52.19 63.4468 51.4626 64.2905 51.3463C65.1342 51.2299 65.8616 51.8409 65.978 52.6846L66.7053 57.3977C66.8217 58.2414 66.2107 58.9688 65.367 59.0852H65.1342Z" fill="#94BB3F"/>
<path d="M69.1198 63.0734C68.3925 63.0734 67.7815 62.4625 67.6652 61.7351L66.9378 57.022C66.8214 56.1783 67.4324 55.4509 68.2761 55.3345C69.1198 55.2182 69.8472 55.8291 69.9636 56.6728L70.6909 61.386C70.8073 62.2297 70.1963 62.9571 69.3526 63.0734H69.1198Z" fill="#94BB3F"/>
<path d="M74.2986 67.7862H73.9495C73.1058 67.7862 72.4948 67.0589 72.4948 66.2152C72.4948 65.3714 73.2221 64.7605 73.9495 64.7605C78.8954 64.8769 82.9976 63.3058 86.0233 60.2801C89.5146 56.7888 90.9692 51.5811 90.2419 45.6751C84.3359 44.9477 79.1281 46.4024 75.6369 49.8936C74.6768 50.8537 73.8331 51.9593 73.2221 53.1521C72.873 53.8795 71.8838 54.1122 71.1565 53.7631C70.4292 53.414 70.1964 52.4248 70.5455 51.6975C71.3892 50.2428 72.3493 48.9336 73.4549 47.828C77.9353 43.3476 84.3359 41.6602 91.813 42.8821C92.4239 42.9985 92.8894 43.4931 93.0349 44.104C94.2568 51.4647 92.5403 57.9817 88.089 62.4621C84.5977 65.9533 79.8846 67.7862 74.3277 67.7862H74.2986Z" fill="#94BB3F"/>
<path d="M69.6146 68.1615C64.0577 68.1615 59.2282 66.3576 55.7369 62.8373C51.2565 58.3569 49.5691 51.9563 50.791 44.4793C50.9074 43.8683 51.402 43.4028 52.013 43.2573C53.584 43.0246 55.0387 42.9082 56.4934 42.9082C62.0502 42.9082 66.8798 44.712 70.371 48.2323C71.4475 49.3088 72.2912 50.4144 73.0185 51.7236V51.8399C74.706 54.8657 75.5497 58.2405 75.5497 62.11C75.5497 63.5647 75.4333 65.1357 75.2006 66.5904C75.0842 67.2014 74.5896 67.6669 74.0077 67.8123C72.6694 68.0451 71.0984 68.1615 69.6728 68.1615H69.6146ZM53.6713 46.0503C52.9439 51.9563 54.3986 57.1641 57.8899 60.6553C60.7992 63.5647 64.785 65.1357 69.6146 65.1357C70.5747 65.1357 71.5348 65.0193 72.5239 64.903C72.6403 63.9429 72.7567 62.9828 72.7567 61.9936C72.7567 58.6187 72.0294 55.7094 70.5747 53.1782C69.9637 52.1018 69.2364 51.1126 68.3927 50.2689C65.4833 47.3595 61.4975 45.7885 56.6679 45.7885C55.7078 45.9048 54.7478 45.9048 53.6422 46.0212L53.6713 46.0503Z" fill="#94BB3F"/>
<path d="M59.2282 91.9341C58.8791 91.9341 58.5009 91.8177 58.2681 91.5849L46.9216 81.1985C44.7396 79.2783 44.5069 76.0199 46.3107 73.7215C46.5434 73.3723 46.9216 73.1105 47.1544 72.8777C47.7653 72.3832 48.7254 72.5286 49.3364 73.1105C49.831 73.7215 49.6855 74.6816 49.1037 75.2925C48.9873 75.4089 48.8709 75.5253 48.7545 75.6416C47.9108 76.6017 48.0272 78.1728 48.8709 79.0165L60.2174 89.4029C60.8284 90.0139 60.8284 90.974 60.3338 91.5849C59.9847 91.8177 59.6064 91.9341 59.2573 91.9341H59.2282Z" fill="#94BB3F"/>
<path d="M57.8897 108.95C57.0459 108.95 56.435 108.222 56.3186 107.495V103.393L37.0005 85.5294C36.6513 85.2966 36.5059 84.802 36.5059 84.4529V55.8248C36.5059 52.5663 39.1534 50.0352 42.2955 50.0352C43.8665 50.0352 45.3212 50.6461 46.3977 51.7226C47.4741 52.799 48.0851 54.2537 48.0851 55.8248L48.6961 74.6483C48.6961 75.4921 48.0851 76.2194 47.2414 76.2194C46.3977 76.2194 45.6703 75.6084 45.6703 74.7647L45.0594 55.9412C45.0594 55.2138 44.8266 54.4865 44.2157 53.8755C43.7211 53.3809 42.9937 53.0318 42.15 53.0318C40.579 53.0318 39.3861 54.2537 39.3861 55.7957V83.5801L58.7043 101.444C59.0534 101.676 59.1989 102.171 59.1989 102.52V107.233C59.4316 108.193 58.7043 108.804 57.8606 108.921L57.8897 108.95Z" fill="#94BB3F"/>
<path d="M75.0259 108.955C74.1822 108.955 73.4549 108.228 73.4549 107.384V92.4006L52.2165 75.2645C51.3728 74.5371 50.0345 74.5371 49.0744 75.2645C48.4635 75.759 47.5034 75.6136 46.8924 75.0317C46.3978 74.4207 46.5433 73.4606 47.1251 72.8497C49.1908 71.2786 52.0711 71.2786 54.1367 72.9661L75.986 90.4804C76.3351 90.7132 76.597 91.2077 76.597 91.7023V107.413C76.597 108.257 75.8696 108.984 75.0259 108.984V108.955Z" fill="#94BB3F"/>
<path d="M90.1251 108.951H53.9036C53.0599 108.951 52.3325 108.223 52.3325 107.38C52.3325 106.536 53.0599 105.809 53.9036 105.809H90.1251C90.9688 105.809 91.6962 106.536 91.6962 107.38C91.6962 108.223 90.9688 108.951 90.1251 108.951Z" fill="#94BB3F"/>
</g>
<defs>
<clipPath id="clip0_688_8488">
<rect width="142.5" height="142.5" fill="white" transform="translate(0.749756)"/>
</clipPath>
</defs>
</svg>
