<svg width="144" height="143" viewBox="0 0 144 143" fill="none" xmlns="http://www.w3.org/2000/svg">
<g clip-path="url(#clip0_688_8445)">
<path d="M88.3213 0.494141H55.6782C25.3419 0.494141 0.749512 25.0866 0.749512 55.4229V88.0659C0.749512 118.402 25.3419 142.995 55.6782 142.995H88.3213C118.658 142.995 143.25 118.402 143.25 88.0659V55.4229C143.25 25.0866 118.658 0.494141 88.3213 0.494141Z" fill="#094451"/>
<path d="M77.3819 69.1237C76.5963 69.0073 76.0436 68.3672 76.0436 67.5817V56.3225C76.0436 55.7988 76.3054 55.2751 76.7709 55.0133C77.2364 54.7223 77.7892 54.6932 78.2838 54.926C79.8257 55.6533 81.3386 56.6425 82.706 57.8353C83.2006 58.2427 83.7825 58.4463 84.4807 58.4754C84.7716 58.4754 85.4117 58.2427 85.7608 58.0681L92.3942 53.9077C93.0633 53.5004 93.0633 53.1513 93.0633 53.0058C93.0633 52.8312 93.0342 52.5985 92.6851 52.3076C92.656 52.2785 92.5978 52.2203 92.5687 52.1912C88.6411 47.7399 83.5206 44.9469 77.3237 43.8413C76.5672 43.6959 76.0145 43.0558 76.0145 42.2994V35.957C76.0145 35.026 75.258 34.2695 74.327 34.2695H68.3629C67.4319 34.2695 66.6754 35.026 66.6754 35.957V42.1248C66.6754 42.9103 66.0936 43.5795 65.3371 43.6668C62.3987 44.0741 59.7221 44.8305 57.3946 45.8779C49.9175 49.2818 46.339 54.1696 46.4554 60.832C46.5136 64.0905 47.4736 66.9126 49.3647 69.4146C52.5941 73.7496 57.9764 76.5134 65.3662 77.6481C66.1226 77.7645 66.7045 78.4336 66.7045 79.1901V93.2423C66.7045 93.766 66.4718 94.2314 66.0354 94.5224C65.6281 94.8133 65.0753 94.9006 64.6098 94.726C60.9731 93.4459 57.54 91.0602 54.3688 87.6272C54.3397 87.5981 54.3106 87.569 54.2815 87.5108C53.9033 87.0453 53.496 86.8417 52.8851 86.8417C52.7105 86.8417 52.1577 87.0453 51.8086 87.1908L45.7862 90.7111C45.0298 91.1475 45.0298 91.5257 45.0298 91.7294C45.0298 91.904 45.0589 92.1367 45.3498 92.4567C45.3789 92.4858 45.408 92.544 45.4662 92.6022C46.95 94.6679 48.9865 96.7044 51.5177 98.6246C55.5908 101.738 60.2457 103.745 65.3953 104.56C66.1517 104.676 66.7045 105.345 66.7045 106.102V111.659C66.7045 112.59 67.461 113.346 68.3919 113.346H74.3561C75.2871 113.346 76.0436 112.59 76.0436 111.659V106.102C76.0436 105.316 76.6254 104.676 77.3819 104.56C81.9496 103.891 85.9354 102.436 89.2521 100.283C94.4307 96.879 96.991 92.3113 97.1073 86.318C97.1946 82.6231 96.2054 79.5974 94.1107 77.0371C90.6195 72.8476 85.0044 70.2001 77.411 69.1528L77.3819 69.1237ZM66.6463 65.9816C66.6463 66.5052 66.3845 66.9707 65.9772 67.2617C65.7153 67.4362 65.3953 67.5235 65.0753 67.5235C64.8716 67.5235 64.6971 67.4944 64.5225 67.4071C60.4785 65.8361 59.6057 62.9849 59.5766 60.8611C59.5766 59.0282 60.3039 56.468 63.9406 54.7514C63.9697 54.7514 63.9988 54.7223 64.057 54.6932L64.5225 54.5187C65.0171 54.3441 65.5408 54.4023 65.9772 54.6932C66.4136 54.9842 66.6463 55.4788 66.6463 55.9734V65.9525V65.9816ZM79.7094 93.6496C79.2148 93.9696 78.6911 94.2024 78.2256 94.406C78.0219 94.4933 77.7892 94.5515 77.5855 94.5515C77.2946 94.5515 77.0037 94.4642 76.7418 94.2896C76.3054 93.9987 76.0145 93.5041 76.0145 92.9804V80.6447C76.0145 80.1501 76.2472 79.6847 76.6545 79.3937C77.0618 79.1028 77.5855 79.0155 78.051 79.161C82.9969 80.732 83.9861 83.9323 83.9861 86.318C83.9861 89.4019 82.4732 91.933 79.7094 93.6205V93.6496Z" fill="#D8E8AA"/>
<path d="M79.1564 66.2171V59.031C79.6801 59.3801 80.1747 59.7875 80.6693 60.1948C81.7457 61.0967 83.0259 61.5622 84.4514 61.5622C85.6152 61.5913 86.9535 60.9221 87.1571 60.8348C87.2153 60.8057 87.3026 60.7766 87.3608 60.7184L94.0523 56.4999C95.7688 55.3943 96.1762 53.9978 96.1762 52.9795C96.1762 51.8449 95.7397 50.7975 94.8669 49.9538C90.7647 45.2988 85.4697 42.2731 79.1564 40.9057V35.8725C79.1564 33.1959 77.0035 31.043 74.3269 31.043H68.3627C65.6861 31.043 63.5331 33.1959 63.5331 35.8725V40.702C60.8274 41.1675 58.3254 41.9531 56.0852 42.9713C47.4735 46.899 43.1676 52.9214 43.3131 60.8348C43.3713 64.7334 44.5641 68.2246 46.8334 71.2503C50.3537 75.9635 55.9688 79.0765 63.5331 80.473V90.8303C61.1475 89.6375 58.8782 87.8337 56.6961 85.5062C55.736 84.3134 54.4268 83.6733 52.8558 83.6733C52.0121 83.6733 50.8774 84.1388 50.441 84.3134C50.4119 84.3134 50.3828 84.3425 50.3537 84.3715C50.3537 84.3715 50.2955 84.4006 50.2665 84.4006L44.1859 87.9792C42.2366 89.1138 41.8584 90.6558 41.8584 91.7613C41.8584 92.7505 42.2366 93.6524 42.9058 94.4379C44.5641 96.7363 46.8043 98.9765 49.5682 101.071C53.6995 104.242 58.3836 106.366 63.5331 107.385V111.632C63.5331 114.28 65.6861 116.462 68.3627 116.462H74.3269C77.0035 116.462 79.1564 114.309 79.1564 111.632V107.414C83.6368 106.599 87.5935 105.057 90.9393 102.875C96.9617 98.8893 100.075 93.3324 100.191 86.3499C100.278 81.9277 99.0273 78.1164 96.4671 75.0034C92.6558 70.4648 86.8371 67.5263 79.1564 66.2171ZM89.2228 100.228C85.9061 102.38 81.9203 103.835 77.3526 104.504C76.5962 104.621 76.0143 105.29 76.0143 106.046V111.603C76.0143 112.534 75.2579 113.291 74.3269 113.291H68.3627C67.4317 113.291 66.6752 112.534 66.6752 111.603V106.046C66.6752 105.29 66.1225 104.621 65.366 104.504C60.2165 103.69 55.5324 101.682 51.4884 98.5692C48.9572 96.649 46.9207 94.6125 45.4369 92.5468C45.4078 92.4887 45.3787 92.4596 45.3205 92.4014C45.0587 92.1104 45.0005 91.8777 45.0005 91.674C45.0005 91.4704 45.0005 91.0922 45.7569 90.6558L51.7793 87.1354C52.1575 86.99 52.7103 86.7863 52.8558 86.7863C53.4667 86.7863 53.9031 86.99 54.2523 87.4555C54.2523 87.4846 54.3105 87.5137 54.3396 87.5718C57.5108 91.0049 60.9438 93.3906 64.5805 94.6707C65.046 94.8452 65.5988 94.758 66.0061 94.467C66.4134 94.1761 66.6752 93.7106 66.6752 93.1869V79.1347C66.6752 78.3492 66.1225 77.7091 65.3369 77.5927C57.9472 76.4581 52.5648 73.6942 49.3355 69.3592C47.4444 66.8572 46.4843 64.0351 46.4261 60.7766C46.3097 54.1142 49.8882 49.2265 57.3653 45.8225C59.6928 44.7461 62.3694 44.0187 65.3078 43.6114C66.0934 43.495 66.6462 42.855 66.6462 42.0694V35.9016C66.6462 34.9706 67.4026 34.2142 68.3336 34.2142H74.2978C75.2288 34.2142 75.9852 34.9706 75.9852 35.9016V42.244C75.9852 43.0004 76.538 43.6696 77.2944 43.786C83.4913 44.8624 88.6118 47.6845 92.5395 52.1358C92.5686 52.194 92.6267 52.2231 92.6558 52.2522C92.9759 52.5431 93.0341 52.7759 93.0341 52.9505C93.0341 53.125 93.0341 53.445 92.3649 53.8524L85.7316 58.0127C85.3824 58.1873 84.7424 58.42 84.4514 58.42C83.7532 58.42 83.1713 58.2164 82.6767 57.78C81.2802 56.5872 79.7965 55.598 78.2545 54.8706C77.7599 54.6379 77.2071 54.667 76.7416 54.9579C76.2761 55.2488 76.0143 55.7434 76.0143 56.2671V67.5264C76.0143 68.3119 76.5962 68.981 77.3526 69.0683C84.9169 70.1157 90.532 72.7923 94.0523 76.9527C96.1471 79.4838 97.1362 82.5096 97.049 86.2335C96.9326 92.1977 94.3724 96.7654 89.1937 100.198L89.2228 100.228Z" fill="#94BB3F"/>
<path d="M65.9768 54.7278C65.5404 54.4369 65.0167 54.3787 64.5221 54.5533L64.0567 54.7278C64.0567 54.7278 63.9985 54.7569 63.9403 54.786C60.3036 56.5316 59.5471 59.0628 59.5762 60.8957C59.5762 63.0195 60.4781 65.8998 64.5221 67.4417C64.6967 67.4999 64.9004 67.5581 65.0749 67.5581C65.395 67.5581 65.6859 67.4708 65.9768 67.2963C66.4132 67.0053 66.646 66.5107 66.646 66.0162V56.037C66.646 55.5134 66.3841 55.0479 65.9768 54.7569V54.7278ZM63.5039 63.165C62.8347 62.4085 62.6893 61.5939 62.6893 60.8666C62.6893 60.3138 62.8056 59.5574 63.5039 58.83V63.165Z" fill="#94BB3F"/>
<path d="M78.0505 79.1902C77.585 79.0447 77.0613 79.132 76.654 79.4229C76.2467 79.7139 76.0139 80.1794 76.0139 80.674V93.0097C76.0139 93.5333 76.2758 94.0279 76.7413 94.3189C77.0031 94.4934 77.294 94.5807 77.585 94.5807C77.8177 94.5807 78.0214 94.5225 78.225 94.4353C78.6905 94.2316 79.2142 93.9697 79.7088 93.6788C82.4727 91.9914 83.9565 89.4602 83.9856 86.3763C83.9856 83.9616 82.9964 80.7613 78.0505 79.2193V79.1902ZM79.156 90.1876V83.0887C80.6398 84.0779 80.8725 85.2999 80.8725 86.3181C80.8725 87.9183 80.3198 89.1693 79.156 90.1876Z" fill="#94BB3F"/>
</g>
<defs>
<clipPath id="clip0_688_8445">
<rect width="142.5" height="142.5" fill="white" transform="translate(0.749756 0.5)"/>
</clipPath>
</defs>
</svg>
