<svg width="144" height="143" viewBox="0 0 144 143" fill="none" xmlns="http://www.w3.org/2000/svg">
<g clip-path="url(#clip0_688_8527)">
<path d="M88.3215 -0.00195312H55.6785C25.3422 -0.00195312 0.749756 24.5905 0.749756 54.9268V87.5698C0.749756 117.906 25.3422 142.499 55.6785 142.499H88.3215C118.658 142.499 143.25 117.906 143.25 87.5698V54.9268C143.25 24.5905 118.658 -0.00195312 88.3215 -0.00195312Z" fill="#094451"/>
<path d="M94.7514 63.3298C94.7514 69.4685 90.8819 74.7635 85.4414 76.771H74.1531V62.4569C74.1531 56.58 77.7316 51.4305 82.8812 49.3066C89.6018 50.4413 94.7514 56.3182 94.7514 63.3298Z" fill="#D8E8AA"/>
<path d="M68.7125 76.771H57.4242C51.9837 74.7635 48.1143 69.4685 48.1143 63.3298C48.1143 56.3182 53.2638 50.4413 59.9844 49.3066C65.134 51.4596 68.7125 56.6091 68.7125 62.4569V76.771Z" fill="#D8E8AA"/>
<path d="M74.1531 83.9277V93.7905C74.1531 95.2161 73.0185 96.4962 71.4474 96.4962C70.0218 96.4962 68.7417 95.3615 68.7417 93.7905V85.7897L74.1822 83.9277H74.1531Z" fill="#D8E8AA"/>
<path d="M74.1531 75.0547V76.7712V79.506L68.7126 81.2225V76.7712L74.1531 75.0547Z" fill="#D8E8AA"/>
<path d="M74.1531 66.0645V70.4867L68.7126 72.3487V67.9264L74.1531 66.0645Z" fill="#D8E8AA"/>
<path d="M68.7125 86.225C68.7125 90.5308 65.8613 94.0802 61.9919 95.244C58.1224 94.1093 55.2712 90.5308 55.2712 86.225C55.2712 81.0754 59.4316 76.7695 64.7267 76.7695H68.7416V86.225H68.7125Z" fill="#D8E8AA"/>
<path d="M87.5943 86.225C87.5943 90.5308 84.7432 94.0802 80.8737 95.244C77.0043 94.1093 74.1531 90.5308 74.1531 86.225V76.7695H78.168C83.3176 76.7695 87.6234 80.9299 87.6234 86.225H87.5943Z" fill="#D8E8AA"/>
<path d="M105.051 77.793C105.75 77.793 106.332 78.3749 106.332 79.0733C106.332 79.7717 105.75 80.3536 105.051 80.3536C104.353 80.3536 103.771 79.7717 103.771 79.0733C103.771 78.3749 104.353 77.793 105.051 77.793Z" fill="#94BB3F"/>
<path d="M93.4715 99.2324C94.1699 99.2324 94.7518 99.8144 94.7518 100.513C94.7518 101.211 94.1699 101.793 93.4715 101.793C92.7731 101.793 92.1912 101.211 92.1912 100.513C92.1912 99.8144 92.7731 99.2324 93.4715 99.2324Z" fill="#94BB3F"/>
<path d="M87.158 33.0156C87.8564 33.0156 88.4384 33.5976 88.4384 34.296C88.4384 34.9943 87.8564 35.5763 87.158 35.5763C86.4597 35.5763 85.8777 34.9943 85.8777 34.296C85.8777 33.5976 86.4597 33.0156 87.158 33.0156Z" fill="#94BB3F"/>
<path d="M67.5784 41.0176C68.2768 41.0176 68.8588 41.5995 68.8588 42.2979C68.8588 42.9963 68.2768 43.5782 67.5784 43.5782C66.8801 43.5782 66.2981 42.9963 66.2981 42.2979C66.2981 41.5995 66.8801 41.0176 67.5784 41.0176Z" fill="#94BB3F"/>
<path d="M65.7164 101.824C66.4147 101.824 66.9967 102.406 66.9967 103.105C66.9967 103.803 66.4147 104.385 65.7164 104.385C65.018 104.385 64.436 103.803 64.436 103.105C64.436 102.406 65.018 101.824 65.7164 101.824Z" fill="#94BB3F"/>
<path d="M38.1068 83.0879C38.8051 83.0879 39.3871 83.6699 39.3871 84.3682C39.3871 85.0666 38.8051 85.6486 38.1068 85.6486C37.4084 85.6486 36.8264 85.0666 36.8264 84.3682C36.8264 83.6699 37.4084 83.0879 38.1068 83.0879Z" fill="#94BB3F"/>
<path d="M85.4416 77.6426C85.0052 77.6426 84.7143 77.3517 84.5979 77.0608C84.4524 76.6244 84.5979 76.0716 85.1798 75.9261C87.74 74.9369 89.8929 73.3659 91.464 71.0675C93.035 68.7691 93.9078 66.0634 93.9078 63.3577C93.9078 56.7825 89.1947 51.342 82.8814 50.2074C82.445 50.0619 82.0086 49.6255 82.154 49.2182C82.2995 48.7818 82.7359 48.3745 83.1432 48.4908C90.4457 49.771 95.7407 56.0843 95.7407 63.5031C95.7407 66.6452 94.7516 69.6419 93.035 72.2312C91.3185 74.7915 88.7292 76.6534 85.878 77.6717H85.4416V77.6426Z" fill="#94BB3F"/>
<path d="M88.4671 77.6423H83.6085C83.1721 77.6423 82.7357 77.2059 82.7357 76.7695C82.7357 76.3331 83.1721 75.9258 83.6085 75.9258H88.4671C92.0456 75.9258 95.4787 74.5002 97.9226 72.0563C100.483 69.4961 101.792 66.1794 101.792 62.6009C101.792 59.0224 100.366 55.5894 97.9226 53.1455C95.3623 50.5853 92.0456 49.2761 88.4671 49.2761C86.6051 49.2761 84.8886 49.567 83.3176 50.2652C78.3135 52.4182 75.1714 57.2768 75.1714 62.5718C75.1714 63.0082 74.735 63.4155 74.3276 63.4155C73.9203 63.4155 73.4548 62.9791 73.4548 62.5718C73.4548 56.4331 77.1788 50.9926 82.7648 48.5487C84.6268 47.6759 86.6342 47.4141 88.6417 47.4141C92.6566 47.4141 96.497 48.9851 99.3772 51.8363C102.258 54.6875 103.799 58.5569 103.799 62.5718C103.799 66.5868 102.083 70.2816 99.2318 73.1619C96.3806 76.0422 92.5111 77.5841 88.4962 77.5841L88.4671 77.6423Z" fill="#94BB3F"/>
<path d="M80.8736 96.0945C80.4372 96.0945 80.1463 95.8036 80.0299 95.5127C79.8845 95.0763 80.1754 94.5235 80.6118 94.378C82.3283 93.7961 83.8994 92.8069 84.9177 91.3814C86.0523 89.9558 86.6342 88.0938 86.6342 86.2318C86.6342 81.5186 82.7647 77.7946 78.197 77.7946C77.7606 77.7946 77.3242 77.3582 77.3242 76.9509C77.3242 76.5436 77.7606 76.0781 78.197 76.0781C83.9285 76.0781 88.4962 80.6458 88.4962 86.3773C88.4962 88.6757 87.7688 90.7995 86.3432 92.516C85.0631 94.2325 83.2011 95.5127 81.0482 96.24C81.0482 96.0945 80.9027 96.0945 80.9027 96.0945H80.8736Z" fill="#94BB3F"/>
<path d="M83.5798 96.5268C82.5906 96.5268 81.5723 96.3814 80.5831 96.0904C76.2773 94.8103 73.2806 90.7954 73.2806 86.2277C73.2806 85.7913 73.717 85.3549 74.1244 85.3549C74.5317 85.3549 74.9972 85.7913 74.9972 86.2277C74.9972 89.9517 77.441 93.2392 81.0195 94.3739C81.7469 94.6648 82.5906 94.6648 83.4634 94.6648C85.7618 94.6648 87.8856 93.8211 89.4858 92.221C91.0859 90.6208 91.9296 88.497 91.9296 86.1986C91.9296 81.4854 88.0602 77.7614 83.4925 77.7614H74.0371C73.6007 77.7614 73.1934 77.325 73.1934 76.9177C73.1934 76.5104 73.6298 76.0449 74.0371 76.0449H83.4925C89.2239 76.0449 93.7916 80.6126 93.7916 86.3441C93.7916 89.0498 92.8025 91.6391 90.795 93.6466C88.933 95.3631 86.3728 96.4977 83.638 96.4977L83.5798 96.5268Z" fill="#94BB3F"/>
<path d="M57.5406 77.645H57.2497C54.3985 76.6558 51.9547 74.6483 50.0927 72.2045C48.2307 69.6151 47.387 66.6185 47.387 63.4764C47.387 56.0284 52.682 49.7442 59.9845 48.4641C60.4209 48.3186 60.9737 48.755 60.9737 49.1914C61.1191 49.6278 60.6827 50.1806 60.2463 50.1806C53.8166 51.3153 49.2199 56.9012 49.2199 63.3309C49.2199 66.1821 50.0636 68.7714 51.6637 71.0407C53.2348 73.3391 55.3877 74.9102 57.9479 75.8993C58.3843 76.0448 58.6753 76.6267 58.5298 77.034C58.2389 77.4704 57.8025 77.6159 57.5406 77.6159V77.645Z" fill="#94BB3F"/>
<path d="M59.4026 77.6456H54.544C50.5291 77.6456 46.6887 76.0746 43.8085 73.2234C40.9282 70.3722 39.3862 66.5028 39.3862 62.4878C39.3862 58.4729 40.9573 54.6326 43.8085 51.7523C46.6596 48.872 50.5291 47.3301 54.544 47.3301C56.5515 47.3301 58.5589 47.7665 60.4209 48.4647C66.1523 50.9086 69.7309 56.32 69.7309 62.4878C69.7309 62.9242 69.2945 63.3607 68.8871 63.3607C68.4798 63.3607 68.0143 62.9242 68.0143 62.4878C68.0143 57.0473 64.8722 52.1887 59.8681 50.1813C58.1516 49.4539 56.4351 49.1921 54.7186 49.1921C51.14 49.1921 47.707 50.6177 45.2631 53.0615C42.6738 55.6218 41.3937 58.9384 41.3937 62.5169C41.3937 66.0955 42.8193 69.5285 45.2631 71.9724C47.8234 74.5326 51.14 75.8418 54.7186 75.8418H59.5772C60.0136 75.8418 60.4209 76.2782 60.4209 76.6855C60.4209 77.0928 59.839 77.6747 59.4317 77.6747L59.4026 77.6456Z" fill="#94BB3F"/>
<path d="M62.1373 96.0916H61.8464C59.6935 95.5097 57.8315 94.2296 56.5514 92.3676C55.1258 90.5056 54.3984 88.3527 54.3984 86.2288C54.3984 80.4974 58.9661 75.9297 64.6976 75.9297C65.134 75.9297 65.5413 76.3661 65.5413 76.7734C65.5413 77.1807 65.1049 77.6462 64.6976 77.6462C59.9844 77.6462 56.2604 81.5157 56.2604 86.0834C56.2604 87.9453 56.8423 89.6619 57.9769 91.2329C59.1116 92.6585 60.5372 93.7932 62.2828 94.2296C62.7192 94.375 63.0101 94.8114 62.8647 95.3642C62.8647 95.8006 62.4283 96.0916 62.1373 96.0916Z" fill="#94BB3F"/>
<path d="M59.4029 96.528C56.6972 96.528 54.1079 95.5388 52.1004 93.5313C50.0929 91.5239 49.1038 88.9636 49.1038 86.2288C49.1038 80.4974 53.6715 75.9297 59.4029 75.9297H68.8583C69.2947 75.9297 69.702 76.3661 69.702 76.7734C69.702 77.1807 69.2656 77.6462 68.8583 77.6462H59.4029C54.6897 77.6462 50.9657 81.5157 50.9657 86.0834C50.9657 88.3818 51.8095 90.5056 53.4096 92.1057C54.9807 93.6768 57.1336 94.5496 59.432 94.5496C60.3048 94.5496 61.003 94.4041 61.8759 94.2587C65.4544 93.2695 67.8982 89.8364 67.8982 86.1124C67.8982 85.676 68.3346 85.2687 68.7419 85.2687C69.1493 85.2687 69.6147 85.7051 69.6147 86.1124C69.6147 90.6801 66.6181 94.6951 62.3123 95.9752C61.4685 96.2661 60.4503 96.557 59.4611 96.557L59.4029 96.528Z" fill="#94BB3F"/>
<path d="M71.4184 97.3985C69.4109 97.3985 67.8398 95.8274 67.8398 93.82V52.6234C67.8398 50.616 69.4109 49.0449 71.4184 49.0449C72.4075 49.0449 73.2803 49.4813 73.9786 50.0341C74.7059 50.7614 74.9678 51.6052 74.9678 52.5943V93.6454C74.9678 95.7983 73.3967 97.3694 71.3893 97.3694L71.4184 97.3985ZM71.4184 50.8778C70.4292 50.8778 69.5564 51.7215 69.5564 52.7398V93.9364C69.5564 94.9255 70.4001 95.7983 71.4184 95.7983C72.4366 95.7983 73.2804 94.9255 73.2804 93.9364V52.5943C73.2804 52.1579 73.1349 51.7215 72.6985 51.3142C72.4075 51.0233 71.9711 50.8778 71.4184 50.8778Z" fill="#94BB3F"/>
<path d="M68.7124 68.7706C68.276 68.7706 67.985 68.4797 67.8687 68.1888C67.7232 67.7524 68.0141 67.1996 68.4505 67.0541L73.891 65.1921C74.3274 65.0467 74.8802 65.3376 75.0257 65.774C75.1711 66.2104 74.8802 66.7632 74.4438 66.9087L69.0033 68.7706H68.7124Z" fill="#94BB3F"/>
<path d="M68.7129 73.2218C68.2765 73.2218 67.9855 72.9309 67.8691 72.6399C67.7237 72.2035 68.0146 71.6508 68.451 71.5053L73.8915 69.6433C74.3279 69.4978 74.8807 69.7888 75.0262 70.2252C75.1716 70.6616 74.8807 71.2144 74.4443 71.3598L69.0038 73.2218H68.7129Z" fill="#94BB3F"/>
<path d="M68.7129 77.6457C68.2765 77.6457 67.9855 77.3547 67.8691 77.0638C67.7237 76.6274 68.0146 76.0746 68.451 75.9291L73.8915 74.0671C74.3279 73.9217 74.8807 74.2126 75.0262 74.649C75.1716 75.0854 74.8807 75.6382 74.4443 75.7837L69.0038 77.6457H68.7129Z" fill="#94BB3F"/>
<path d="M68.7129 82.216C68.2765 82.216 67.9855 81.925 67.8691 81.6341C67.7237 81.1977 68.0146 80.6449 68.451 80.4994L73.8915 78.6375C74.3279 78.492 74.8807 78.7829 75.0262 79.2193C75.1716 79.6557 74.8807 80.2085 74.4443 80.354L69.0038 82.216C69.0038 82.216 68.8583 82.216 68.7129 82.216Z" fill="#94BB3F"/>
<path d="M68.7129 86.6632C68.2765 86.6632 67.9855 86.3723 67.8691 86.0814C67.7237 85.645 68.0146 85.0922 68.451 84.9467L73.8915 83.0847C74.3279 82.9392 74.8807 83.2302 75.0262 83.6666C75.1716 84.103 74.8807 84.6558 74.4443 84.8012L69.0038 86.6632H68.7129Z" fill="#94BB3F"/>
<path d="M83.1723 65.1922C81.1648 65.1922 79.5938 63.6211 79.5938 61.6137C79.5938 59.6062 81.1648 58.0352 83.1723 58.0352C85.1797 58.0352 86.7508 59.6062 86.7508 61.6137C86.7508 63.6211 85.1797 65.1922 83.1723 65.1922ZM83.1723 59.7517C82.1831 59.7517 81.3103 60.5954 81.3103 61.6137C81.3103 62.6319 82.1831 63.4757 83.1723 63.4757C84.1614 63.4757 85.0343 62.6319 85.0343 61.6137C85.0343 60.5954 84.1614 59.7517 83.1723 59.7517Z" fill="#94BB3F"/>
<path d="M59.9848 65.1922C57.9773 65.1922 56.4062 63.6211 56.4062 61.6137C56.4062 59.6062 57.9773 58.0352 59.9848 58.0352C61.9922 58.0352 63.5633 59.6062 63.5633 61.6137C63.5633 63.6211 61.8468 65.1922 59.9848 65.1922ZM59.9848 59.7517C58.9956 59.7517 58.1228 60.5954 58.1228 61.6137C58.1228 62.6319 58.9665 63.4757 59.9848 63.4757C61.003 63.4757 61.8468 62.6319 61.8468 61.6137C61.7013 60.6245 61.003 59.7517 59.9848 59.7517Z" fill="#94BB3F"/>
<path d="M103.77 45.4675C101.327 45.4675 99.3481 43.46 99.3481 41.0453C99.3481 38.6305 101.356 36.623 103.77 36.623C106.185 36.623 108.193 38.6305 108.193 41.0453C108.193 43.46 106.185 45.4675 103.77 45.4675ZM103.77 38.3105C102.345 38.3105 101.065 39.4451 101.065 41.0162C101.065 42.4418 102.199 43.7219 103.77 43.7219C105.196 43.7219 106.476 42.5872 106.476 41.0162C106.476 39.4451 105.196 38.3105 103.77 38.3105Z" fill="#94BB3F"/>
<path d="M38.9497 46.462C37.2332 46.462 35.8076 45.0364 35.8076 43.3198C35.8076 41.6033 37.2332 40.1777 38.9497 40.1777C40.6662 40.1777 42.0918 41.6033 42.0918 43.3198C42.0918 45.0364 40.6662 46.462 38.9497 46.462ZM38.9497 41.8943C38.2224 41.8943 37.6696 42.4761 37.6696 43.1744C37.6696 43.8726 38.2515 44.4545 38.9497 44.4545C39.648 44.4545 40.2298 43.8726 40.2298 43.1744C40.2298 42.4761 39.648 41.8943 38.9497 41.8943Z" fill="#94BB3F"/>
<path d="M42.0921 106.242C39.0955 106.242 36.6516 103.798 36.6516 100.802C36.6516 97.8052 39.0955 95.3613 42.0921 95.3613C45.0888 95.3613 47.5326 97.8052 47.5326 100.802C47.3872 103.798 44.9724 106.242 42.0921 106.242ZM42.0921 97.3979C40.0847 97.3979 38.5136 98.9689 38.5136 100.976C38.5136 102.984 40.0847 104.555 42.0921 104.555C44.0996 104.555 45.6706 102.984 45.6706 100.976C45.6706 98.9689 43.9541 97.3979 42.0921 97.3979Z" fill="#94BB3F"/>
</g>
<defs>
<clipPath id="clip0_688_8527">
<rect width="142.5" height="142.5" fill="white" transform="translate(0.749756)"/>
</clipPath>
</defs>
</svg>
