<svg width="144" height="143" viewBox="0 0 144 143" fill="none" xmlns="http://www.w3.org/2000/svg">
<g clip-path="url(#clip0_688_8454)">
<path d="M88.3217 0.494141H55.6787C25.3424 0.494141 0.75 25.0866 0.75 55.4229V88.0659C0.75 118.402 25.3424 142.995 55.6787 142.995H88.3217C118.658 142.995 143.25 118.402 143.25 88.0659V55.4229C143.25 25.0866 118.658 0.494141 88.3217 0.494141Z" fill="#094451"/>
<path d="M52.9147 123.59C65.5602 123.59 75.8114 113.339 75.8114 100.694C75.8114 88.0481 65.5602 77.7969 52.9147 77.7969C40.2693 77.7969 30.0181 88.0481 30.0181 100.694C30.0181 113.339 40.2693 123.59 52.9147 123.59Z" fill="#D8E8AA"/>
<path d="M52.9438 76.1969C39.7353 76.1969 28.9707 86.9616 28.9707 100.17C28.9707 113.379 39.7353 124.143 52.9438 124.143C63.3884 124.143 72.2911 117.423 75.5787 108.084C77.2079 108.142 78.6626 108.171 79.8845 108.171C87.2452 108.171 104.352 107.385 104.352 100.17V100.112C104.352 100.112 104.352 100.083 104.352 100.054V90.4237C104.41 90.22 104.41 89.9873 104.41 89.7545C104.41 89.5509 104.41 89.3472 104.352 89.1436V81.2301C104.41 81.0265 104.41 80.7937 104.41 80.561C104.41 80.3573 104.41 80.1536 104.352 79.95V71.1346C104.41 70.931 104.41 70.6982 104.41 70.4655C104.41 70.0873 104.323 69.7381 104.207 69.389C104.294 69.069 104.323 68.749 104.323 68.3998C104.323 68.3998 104.323 68.3707 104.323 68.3416C104.323 68.3416 104.323 68.3125 104.323 68.2835V58.6535C104.381 58.4498 104.381 58.2171 104.381 57.9843C104.381 57.7807 104.381 57.577 104.323 57.3734V48.558C104.381 48.3543 104.381 48.1216 104.381 47.8888C104.381 47.4815 104.294 47.1324 104.178 46.7833C103.974 46.0559 103.509 45.4159 102.898 45.0377C97.8934 40.79 81.9793 40.6445 79.8554 40.6445C77.7316 40.6445 61.8174 40.79 56.8133 45.0377C56.2023 45.4159 55.7368 46.0559 55.5332 46.7833C55.4168 47.1324 55.3295 47.5106 55.3295 47.8888C55.3295 48.1216 55.3295 48.3252 55.3877 48.558V57.3734C55.3586 57.577 55.3295 57.7807 55.3295 57.9843C55.3295 58.2171 55.3295 58.4207 55.3877 58.6535V68.2835C55.3877 68.2835 55.3877 68.3126 55.3877 68.3416C55.3877 68.3416 55.3877 68.3707 55.3877 68.3998C55.3877 68.749 55.4459 69.069 55.5041 69.389C55.3877 69.7381 55.3004 70.0873 55.3004 70.4655C55.3004 70.6982 55.3004 70.9019 55.3586 71.1346V76.3424C54.544 76.2551 53.7294 76.226 52.9147 76.226L52.9438 76.1969ZM101.559 99.9373C101.559 99.9373 101.559 100.054 101.559 100.112C101.559 100.112 101.559 100.17 101.559 100.199C101.414 102.876 91.7547 105.058 79.8845 105.058C78.6917 105.058 77.557 105.058 76.4224 105C76.7424 103.429 76.917 101.799 76.917 100.141C76.917 99.7046 76.917 99.2972 76.8879 98.8899C77.9934 98.919 79.0117 98.9481 79.8845 98.9481C85.4123 98.9481 96.4097 98.5117 101.559 95.2532V99.9664V99.9373ZM101.559 90.7437C101.559 90.7437 101.559 90.8601 101.559 90.9183C101.559 90.9183 101.559 90.9765 101.559 91.0056C101.414 93.6822 91.7547 95.8642 79.8845 95.8642C78.7499 95.8642 77.6152 95.8642 76.5096 95.806C76.0442 93.2749 75.1713 90.8601 73.9785 88.6781C76.2187 88.8235 78.2844 88.8526 79.8845 88.8526C85.4123 88.8526 96.4097 88.4162 101.559 85.1578V90.7728V90.7437ZM101.559 68.1671C101.559 68.1671 101.559 68.2835 101.559 68.3416C101.559 68.3416 101.559 68.3998 101.559 68.4289C101.414 71.1055 91.7547 73.2876 79.8845 73.2876C68.0143 73.2876 58.3261 71.1055 58.2098 68.4289C58.2098 68.3707 58.2098 68.3125 58.2098 68.2835C58.2098 68.2835 58.2098 68.2253 58.2098 68.1962V62.5811C63.3593 65.8396 74.3567 66.276 79.8845 66.276C85.4123 66.276 96.4097 65.8396 101.559 62.5811V68.1962V68.1671ZM79.8845 44.1358C92.1911 44.1358 99.8136 46.4342 101.123 47.8597C99.8427 49.2853 92.2202 51.5837 79.8845 51.5837C67.5488 51.5837 59.9554 49.2853 58.6753 47.8597C59.9554 46.4342 67.5779 44.1358 79.8845 44.1358ZM79.8845 55.1041C81.8338 55.1041 95.5078 54.9877 101.559 51.6419V58.0716C101.559 58.0716 101.559 58.188 101.559 58.2462C101.559 58.2462 101.559 58.3043 101.559 58.3334C101.414 61.0101 91.7547 63.1921 79.8845 63.1921C68.0143 63.1921 58.3261 61.0101 58.2098 58.3334C58.2098 58.2753 58.2098 58.2171 58.2098 58.188C58.2098 58.1589 58.2098 58.1298 58.2098 58.1007V51.671C64.2612 55.0168 77.9352 55.1332 79.8845 55.1332V55.1041ZM79.8845 77.6807C81.8338 77.6807 95.5078 77.5643 101.559 74.2186V80.6482C101.559 80.6482 101.559 80.7646 101.559 80.8228C101.559 80.8228 101.559 80.881 101.559 80.9101C101.414 83.5867 91.7547 85.7687 79.8845 85.7687C77.0333 85.7687 74.3276 85.6523 71.8256 85.4196C68.4798 81.1428 63.6794 78.0298 58.2098 76.7788V74.2186C64.2612 77.5643 77.9352 77.6807 79.8845 77.6807ZM73.833 100.141C73.833 111.662 64.4649 121.03 52.9438 121.03C41.4228 121.03 32.0546 111.662 32.0546 100.141C32.0546 88.6199 41.4228 79.2517 52.9438 79.2517C64.4649 79.2517 73.833 88.6199 73.833 100.141Z" fill="#94BB3F"/>
<path d="M36.7966 100.141C36.7966 109.044 44.0409 116.288 52.9436 116.288C61.8462 116.288 69.0905 109.044 69.0905 100.141C69.0905 91.2384 61.8462 83.9941 52.9436 83.9941C44.0409 83.9941 36.7966 91.2384 36.7966 100.141ZM67.054 100.141C67.054 107.909 60.7407 114.251 52.9436 114.251C45.1465 114.251 38.8332 107.938 38.8332 100.141C38.8332 92.344 45.1465 86.0307 52.9436 86.0307C60.7407 86.0307 67.054 92.344 67.054 100.141Z" fill="#94BB3F"/>
<path d="M50.9654 89.9577V91.6743C50.1217 91.9943 49.3943 92.4889 48.8125 93.0998C47.9106 94.0599 47.416 95.3401 47.416 96.6784C47.416 97.4057 47.5614 98.0748 47.8233 98.6858C48.2015 99.5295 48.8125 100.257 49.6853 100.897C50.3544 101.362 51.1981 101.799 52.3037 102.235C53.2056 102.613 53.5838 102.904 53.7584 103.05C53.8747 103.166 53.9038 103.224 53.9329 103.283C53.9329 103.341 53.9911 103.399 53.9911 103.544C53.9911 103.748 53.9329 103.864 53.7875 103.981C53.5838 104.155 53.2056 104.272 52.7692 104.272C51.7509 104.33 50.8199 103.894 50.2671 103.515L49.6562 103.108C49.3943 102.933 49.0743 102.875 48.7543 102.992C48.4633 103.079 48.2306 103.312 48.1142 103.632L47.1541 106.308C47.0087 106.745 47.1541 107.21 47.5323 107.472L47.8815 107.734C48.4342 108.141 49.1325 108.461 49.9471 108.694C50.2381 108.781 50.529 108.839 50.7908 108.898V110.411C50.7908 110.963 51.2563 111.429 51.8091 111.429H54.4275C54.9803 111.429 55.4458 110.963 55.4458 110.411V108.607C56.3768 108.258 57.1914 107.705 57.8315 106.977C58.7043 105.988 59.1698 104.708 59.1698 103.399C59.1698 102.701 59.0534 102.032 58.8498 101.45C58.5297 100.548 57.9769 99.7623 57.1623 99.1222C56.4932 98.5694 55.6786 98.1039 54.573 97.6675C54.5439 97.6675 54.5148 97.6384 54.4566 97.6094C53.3511 97.1439 52.9147 96.882 52.7401 96.7074C52.6819 96.6493 52.6237 96.5911 52.5946 96.562C52.5946 96.562 52.5946 96.5038 52.5946 96.4165C52.5946 96.3583 52.5946 96.271 52.6819 96.1838C52.8274 96.0383 53.1183 95.9801 53.4965 95.9801C53.9911 95.9801 54.4275 96.0383 54.8639 96.1838C55.2131 96.3001 55.4749 96.4456 55.6786 96.562L56.2604 96.882C56.5223 97.0275 56.8423 97.0566 57.1041 96.9693C57.3951 96.882 57.5987 96.6493 57.7151 96.3583L58.7043 93.7399C58.8789 93.2744 58.7043 92.7507 58.2679 92.4889L57.8606 92.2561C57.1623 91.8488 56.4059 91.5579 55.5913 91.3833V89.9577C55.5913 89.405 55.1258 88.9395 54.573 88.9395H51.9837C51.4309 88.9395 50.9654 89.405 50.9654 89.9577ZM53.0019 92.4598V91.0051H53.5547V92.2852C53.5547 92.8089 53.962 93.2453 54.4857 93.3035C55.2421 93.3617 55.9113 93.5653 56.4932 93.8563L56.2313 94.5545C56.0277 94.4672 55.7949 94.3509 55.504 94.2636C54.8639 94.0599 54.1948 93.9436 53.4965 93.9436C52.5364 93.9436 51.78 94.2054 51.2563 94.7291C50.7908 95.1655 50.5581 95.7765 50.5581 96.4165C50.5581 96.7947 50.6163 97.1148 50.7617 97.4348C50.9072 97.7257 51.1109 97.9876 51.4018 98.2494C51.8673 98.6567 52.5946 99.064 53.7584 99.5295C54.6894 99.9077 55.3585 100.286 55.8531 100.693C56.3477 101.101 56.7259 101.595 56.9005 102.148C57.046 102.526 57.1041 102.933 57.1041 103.399C57.1041 104.243 56.8132 105.028 56.2604 105.639C55.7367 106.221 55.0385 106.657 54.1657 106.861C53.7002 106.977 53.3802 107.385 53.3802 107.85V109.392H52.7983V107.996C52.7983 107.472 52.391 107.036 51.8673 106.977C51.4018 106.948 50.9363 106.861 50.4708 106.716C50.0344 106.599 49.6271 106.425 49.3071 106.25L49.5689 105.523C50.4999 106.017 51.6345 106.308 52.711 106.308C53.6711 106.308 54.4566 106.046 55.0676 105.552C55.6786 105.028 55.9986 104.359 55.9986 103.544C55.9986 103.166 55.9404 102.817 55.7949 102.497C55.6495 102.177 55.4749 101.886 55.184 101.624C54.7185 101.159 54.0202 100.722 53.031 100.344C52.0709 99.9659 51.3727 99.6168 50.849 99.2386C50.2671 98.8313 49.8889 98.3949 49.6853 97.8712C49.5398 97.5221 49.4525 97.1148 49.4525 96.6784C49.4525 95.8637 49.7435 95.0782 50.2962 94.4963C50.7617 93.9727 51.4309 93.6235 52.2164 93.4199C52.6819 93.3035 53.0019 92.8962 53.0019 92.4307V92.4598Z" fill="#94BB3F"/>
</g>
<defs>
<clipPath id="clip0_688_8454">
<rect width="142.5" height="142.5" fill="white" transform="translate(0.749756 0.5)"/>
</clipPath>
</defs>
</svg>
