<svg width="144" height="143" viewBox="0 0 144 143" fill="none" xmlns="http://www.w3.org/2000/svg">
<g clip-path="url(#clip0_688_8364)">
<path d="M88.3217 0.00195312H55.6787C25.3424 0.00195312 0.75 24.5944 0.75 54.9307V87.5737C0.75 117.91 25.3424 142.502 55.6787 142.502H88.3217C118.658 142.502 143.25 117.91 143.25 87.5737V54.9307C143.25 24.5944 118.658 0.00195312 88.3217 0.00195312Z" fill="#094451"/>
<path d="M86.169 73.7508L82.2413 77.1256C80.3793 78.7258 77.5864 78.6385 75.8116 76.922L60.8575 62.3752C59.4319 60.9787 59.4901 58.6803 60.9739 57.3711L67.5491 51.5815C69.1492 50.185 71.5931 50.3886 72.9314 52.0179L86.6054 68.543C87.8855 70.1141 87.7109 72.4125 86.169 73.7508Z" fill="#D8E8AA"/>
<path d="M73.2517 92.3813L77.383 88.25C78.7504 86.8826 79.3904 84.9915 79.2741 83.2459C81.1651 83.3623 83.0271 82.6058 84.2781 81.3548L88.4094 77.2235C90.1551 75.4779 90.6787 73.0922 90.0387 70.9684C92.5407 70.9684 94.81 69.7174 96.1774 67.8263L96.8175 66.9535C97.4576 66.0807 97.8067 65.0624 98.0685 64.0732L99.4359 57.4399C99.8141 55.5488 99.4359 53.6868 98.5631 52.0576L102.083 48.5372C102.724 47.8972 102.724 46.908 102.083 46.2679L95.1883 39.1109C94.5482 38.4708 93.559 38.4708 92.919 39.1109L89.3986 42.6312C87.7694 41.7584 85.8783 41.3802 84.0163 41.7584L77.383 43.1258C76.3938 43.3877 75.3755 43.7659 74.5027 44.3768L73.6299 45.0169C71.7388 46.3843 70.4878 48.6536 70.4878 51.1557C68.3639 50.5156 65.9783 51.1557 64.2327 52.7849L60.1014 56.9162C58.8503 58.1672 58.0939 60.0583 58.2103 61.9203C56.4647 61.8039 54.5736 62.4149 53.2062 63.8114L49.0749 67.9427C47.7075 69.3101 47.0674 71.0848 47.1838 72.9468C45.2927 72.8304 43.4307 73.4414 42.1797 74.8379L38.0484 78.9691C35.5464 81.4712 35.5464 85.6025 38.0484 88.1336L53.3516 103.437C55.8537 105.939 59.985 105.939 62.5161 103.437L66.6474 99.3056C68.0148 97.9382 68.6549 96.0471 68.5385 94.3015C70.1678 94.4179 72.0588 93.6614 73.3099 92.4104L73.2517 92.3813ZM94.0536 42.3403L98.825 47.1116L96.5557 49.3809C96.0611 48.8864 92.2789 45.1042 91.7843 44.6096L94.0536 42.3403ZM75.521 47.4899L76.3938 46.8498C76.8884 46.4716 77.5284 46.2097 78.1394 46.0934L84.7727 44.726C86.2856 44.4641 87.7694 44.8423 88.7877 45.977L95.3046 52.494C96.2938 53.4831 96.8175 55.1415 96.5557 56.5089L95.1883 63.1422C95.0719 63.7823 94.81 64.3932 94.4318 64.8878L93.7918 65.7606C92.1625 68.03 88.904 68.2627 87.013 66.2552L74.9682 54.2105C72.9607 52.3194 73.2226 49.0609 75.4628 47.4317L75.521 47.4899ZM62.2252 59.0109L66.3565 54.8796C67.6075 53.6286 69.7313 53.6286 70.9824 54.8796C70.9824 54.8796 86.402 70.2993 86.2856 70.1829C87.5366 71.4339 87.5366 73.5577 86.2856 74.8088L82.1543 78.94C80.9033 80.1911 78.7795 80.1911 77.5284 78.94L62.2252 63.7823C60.9742 62.4149 60.9742 60.4074 62.2252 59.0109ZM64.2327 97.0072L60.1014 101.138C58.8503 102.389 56.7265 102.389 55.4755 101.138L40.0559 85.9516C38.8048 84.7006 38.8048 82.5768 40.0559 81.3257L44.1872 77.1944C45.4382 75.9434 47.562 75.9434 48.813 77.1944L64.1163 92.4977C65.4837 93.6323 65.4837 95.7562 64.2327 97.0072ZM51.1696 74.8088C49.9186 73.5577 49.9186 71.4339 51.1696 70.1829L55.3009 66.0516C56.5519 64.8006 58.6758 64.8006 59.9268 66.0516L75.23 81.3548C76.4811 82.6058 76.4811 84.7297 75.23 85.9807L71.0988 90.112C69.8477 91.363 67.7239 91.363 66.4729 90.112L51.1696 74.8088Z" fill="#94BB3F"/>
<path d="M44.4195 79.2066C43.7794 79.8467 43.7794 80.8359 44.4195 81.4759L53.3221 90.3786C53.9622 91.0186 54.9514 91.0186 55.5914 90.3786C56.2315 89.7385 56.2315 88.7493 55.5914 88.1093L46.6888 79.2066C45.9324 78.5665 44.9432 78.5665 44.4195 79.2066Z" fill="#94BB3F"/>
<path d="M58.7045 95.7603C59.3445 96.4002 60.3335 96.4002 60.9734 95.7603C61.6134 95.1203 61.6134 94.1313 60.9734 93.4914L59.839 92.3569C59.199 91.717 58.21 91.717 57.5701 92.3569C56.9301 92.9969 56.9301 93.9859 57.5701 94.6258L58.7045 95.7603Z" fill="#94BB3F"/>
<path d="M83.1433 73.562C83.7834 72.922 83.7834 71.9328 83.1433 71.2927L73.106 61.2554C72.466 60.6154 71.4768 60.6154 70.8367 61.2554C70.1967 61.8955 70.1967 62.8847 70.8367 63.5247L80.874 73.562C81.5141 74.2021 82.5033 74.2021 83.1433 73.562Z" fill="#94BB3F"/>
<path d="M91.8132 93.1367C91.1732 92.4967 90.184 92.6422 89.5439 93.2531C89.5439 93.2531 88.6711 94.2423 87.5365 94.766C85.6454 95.7552 84.5398 95.1442 83.8998 94.5041C80.1467 91.5075 75.87 93.1367 74.1243 94.5041C73.4843 94.9987 73.2515 96.017 73.8625 96.7734C74.3571 97.4135 75.3754 97.6463 75.9863 97.0353C75.9863 97.0353 76.8591 96.3952 77.9938 96.1625C79.5067 95.7843 80.7577 96.1625 81.8923 97.0353C83.1434 98.0245 84.3944 98.4027 85.6454 98.4027C88.2929 98.4027 90.6495 96.6571 91.9005 95.2606C92.5406 94.6205 92.3951 93.6313 91.7842 93.1367H91.8132Z" fill="#94BB3F"/>
<path d="M105.982 83.7168C105.342 83.0768 104.353 83.2222 103.713 83.8332C103.713 83.8332 102.84 84.8224 101.705 85.3461C99.8144 86.3352 98.7088 85.7243 98.0687 85.0842C94.3157 82.0876 90.0389 83.7168 88.2933 85.0842C87.6532 85.5788 87.4205 86.5971 88.0314 87.3535C88.526 87.9936 89.5443 88.2263 90.1553 87.6154C90.1553 87.6154 91.0281 86.9753 92.1627 86.7426C93.6756 86.3643 94.9266 86.7426 96.0613 87.6154C97.3123 88.6045 98.5633 88.9828 99.8143 88.9828C102.462 88.9828 104.818 87.2371 106.069 85.8407C106.564 85.2006 106.564 84.2114 105.953 83.7168H105.982Z" fill="#94BB3F"/>
<path d="M103.335 69.1992C100.687 69.1992 98.5632 71.3231 98.5632 73.9706C98.5632 76.6181 100.687 78.5965 103.335 78.5965C105.982 78.5965 107.96 76.4726 107.96 73.9706C108.077 71.3231 105.953 69.1992 103.335 69.1992ZM103.335 75.4543C102.462 75.4543 101.705 74.6979 101.705 73.8251C101.705 72.9523 102.462 72.1959 103.335 72.1959C104.207 72.1959 104.964 72.9523 104.964 73.8251C104.964 74.6979 104.207 75.4543 103.335 75.4543Z" fill="#94BB3F"/>
<path d="M42.2672 58.1375C44.9147 58.1375 46.8931 56.0136 46.8931 53.3661C46.8931 50.7186 44.7693 48.7402 42.2672 48.7402C39.6197 48.7402 37.4958 50.8641 37.4958 53.3661C37.4958 56.13 39.6197 58.1375 42.2672 58.1375ZM42.2672 51.8823C43.14 51.8823 43.7801 52.6388 43.7801 53.3952C43.7801 54.268 43.0236 55.0245 42.2672 55.0245C41.3944 55.0245 40.638 54.268 40.638 53.3952C40.638 52.6388 41.3944 51.8823 42.2672 51.8823Z" fill="#94BB3F"/>
<path d="M97.0792 94.2441C94.4317 94.2441 92.3079 96.368 92.3079 98.87C92.3079 101.518 94.4317 103.641 97.0792 103.641C99.7267 103.641 101.705 101.518 101.705 98.87C101.821 96.368 99.6976 94.2441 97.0792 94.2441ZM97.0792 100.528C96.2064 100.528 95.45 99.7719 95.45 98.8991C95.45 98.0263 96.2064 97.2699 97.0792 97.2699C97.952 97.2699 98.5921 98.0263 98.5921 98.8991C98.7085 99.7719 97.952 100.528 97.0792 100.528Z" fill="#94BB3F"/>
<path d="M54.806 37.7168C55.7077 37.7168 56.4349 38.444 56.4349 39.3458C56.4349 40.2475 55.7077 40.9747 54.806 40.9747C53.9042 40.9747 53.177 40.2475 53.177 39.3458C53.177 38.444 53.9042 37.7168 54.806 37.7168Z" fill="#94BB3F"/>
<path d="M93.9368 75.332C94.8386 75.332 95.5658 76.0593 95.5658 76.961C95.5658 77.8627 94.8386 78.59 93.9368 78.59C93.0351 78.59 92.3079 77.8627 92.3079 76.961C92.3079 76.0593 93.0351 75.332 93.9368 75.332Z" fill="#94BB3F"/>
<path d="M71.5062 100.646C70.6335 100.908 70.2554 101.78 70.5172 102.653C70.779 103.526 71.6516 103.904 72.5243 103.642C73.3969 103.38 73.7751 102.508 73.5133 101.635C73.2515 100.762 72.3788 100.268 71.5062 100.646Z" fill="#94BB3F"/>
<path d="M40.1427 63.0288C39.27 63.2906 38.8918 64.1633 39.1536 65.036C39.4154 65.9086 40.2881 66.2868 41.1608 66.025C42.0334 65.7632 42.4116 64.8905 42.1498 64.0179C41.888 63.1452 41.0153 62.6507 40.1427 63.0288Z" fill="#94BB3F"/>
</g>
<defs>
<clipPath id="clip0_688_8364">
<rect width="142.5" height="142.5" fill="white" transform="translate(0.749756)"/>
</clipPath>
</defs>
</svg>
