<svg width="144" height="143" viewBox="0 0 144 143" fill="none" xmlns="http://www.w3.org/2000/svg">
<g clip-path="url(#clip0_688_8338)">
<path d="M88.321 0.00195312H55.678C25.3417 0.00195312 0.749268 24.5944 0.749268 54.9307V87.5737C0.749268 117.91 25.3417 142.502 55.678 142.502H88.321C118.657 142.502 143.25 117.91 143.25 87.5737V54.9307C143.25 24.5944 118.657 0.00195312 88.321 0.00195312Z" fill="#094451"/>
<path d="M48.7834 82.041L52.391 100.079H50.6745C47.6488 100.079 45.2049 102.523 45.2049 105.549V110.873H36.1277L37.9897 93.2711C37.9897 89.0817 40.579 85.1831 44.4775 83.7575L48.8125 82.041H48.7834Z" fill="#D8E8AA"/>
<path d="M84.8301 78.4336L82.9681 100.079H59.6059L57.7148 78.5791L58.1512 78.4336L71.4179 88.2381L84.8301 78.4336Z" fill="#D8E8AA"/>
<path d="M104.584 92.5768L106.446 110.906H97.369V105.582C97.369 102.556 94.9251 100.112 91.8994 100.112H90.1829L93.7905 81.4922L97.689 82.8014C101.878 84.2561 104.613 88.1255 104.613 92.6059L104.584 92.5768Z" fill="#D8E8AA"/>
<path d="M35.0796 74.1328C36.534 74.1328 37.8139 75.2964 37.8139 76.8671C37.8139 78.4379 36.6503 79.6015 35.0796 79.6015C33.5088 79.6015 32.3452 78.4379 32.3452 76.8671C32.3452 75.2964 33.5088 74.1328 35.0796 74.1328Z" fill="#D8E8AA"/>
<path d="M88.2921 54.3457V54.7821C88.2921 63.3065 82.3861 74.9731 71.7088 74.9731C61.0314 74.9731 55.8528 63.2774 55.8528 54.7821V54.3457H88.2921Z" fill="#D8E8AA"/>
<path d="M106.964 48.8772L104.414 51.4277L106.964 53.9783L109.515 51.4277L106.964 48.8772Z" fill="#94BB3F"/>
<path d="M91.1023 30.8049L88.5518 33.3555L91.1023 35.906L93.6528 33.3555L91.1023 30.8049Z" fill="#94BB3F"/>
<path d="M45.9729 66.9163L43.4224 69.4668L45.9729 72.0173L48.5234 69.4668L45.9729 66.9163Z" fill="#94BB3F"/>
<path d="M52.3909 101.943C51.5181 101.943 50.7908 101.361 50.6744 100.488L47.0668 82.4504C46.9213 81.4322 47.5032 80.5884 48.5215 80.2975C49.5398 80.152 50.3835 80.7339 50.6744 81.7522L54.282 99.7902C54.4275 100.809 53.8456 101.652 52.8273 101.943H52.3909Z" fill="#94BB3F"/>
<path d="M59.6057 101.945C58.7329 101.945 57.8892 101.218 57.8892 100.345L56.0272 78.8448C55.8817 77.8265 56.7545 76.9828 57.6274 76.9828C58.6456 76.8373 59.4893 77.7101 59.4893 78.5829L61.3513 100.083C61.4968 101.101 60.624 101.945 59.7512 101.945H59.6057Z" fill="#94BB3F"/>
<path d="M90.1835 101.941H89.8926C88.8743 101.796 88.2924 100.778 88.4379 99.7884L91.7545 82.7687L86.4304 80.9067L84.8303 100.225C84.6848 101.243 83.812 101.941 82.9683 101.825C81.95 101.68 81.2517 100.807 81.3681 99.963L83.0846 78.3174C83.0846 77.7355 83.3756 77.2991 83.812 77.0082C84.2484 76.7172 84.8303 76.5718 85.4121 76.7172L94.3439 79.743C95.0712 80.0339 95.6531 80.6158 95.6531 81.4595V81.7504L92.0455 100.37C91.7545 101.389 91.0272 101.97 90.1835 101.97V101.941Z" fill="#94BB3F"/>
<path d="M106.476 112.766H97.3984C96.3801 112.766 95.5364 111.893 95.5364 110.904C95.5364 109.914 96.4092 109.042 97.3984 109.042H104.468L102.868 92.6037V92.4582C102.868 88.8506 100.57 85.6794 97.1075 84.5157L85.15 80.4717L72.4652 89.6943C71.8833 90.1307 71.0105 90.1307 70.3123 89.6943L57.7729 80.4717L45.0881 85.3885C41.9169 86.6977 39.764 89.8689 39.764 93.331V93.4765L38.1638 109.042H45.2336C46.2519 109.042 47.0956 109.914 47.0956 110.904C47.0956 111.893 46.2228 112.766 45.2336 112.766H36.1564C35.5745 112.766 35.1381 112.62 34.8472 112.184C34.5562 111.747 34.2653 111.311 34.4108 110.729L36.1273 93.1274C36.1273 88.2106 39.2985 83.7592 43.7789 82.0136L57.3365 76.835C57.9184 76.544 58.5003 76.6895 59.053 77.1259L71.3015 86.2031L83.6953 77.1259C84.1317 76.835 84.8591 76.6895 85.2955 76.835L98.1258 81.1699C103.043 82.7701 106.359 87.3668 106.359 92.5746L108.076 110.904C108.076 111.485 107.93 111.922 107.639 112.358C107.494 112.504 106.912 112.795 106.476 112.795V112.766Z" fill="#94BB3F"/>
<path d="M71.7085 76.7193C66.3844 76.7193 61.613 73.9845 58.2964 69.0677C55.5616 65.0237 53.9614 59.6996 53.9614 54.7828V54.2009C53.9614 53.1826 54.8342 52.4844 55.8234 52.4844C56.8126 52.4844 57.5399 53.3572 57.5399 54.3464V54.7828C57.5399 62.4344 62.4568 73.1117 71.6794 73.1117C80.9021 73.1117 86.4008 62.2889 86.4008 54.7828V54.3464C86.4008 53.3281 87.1281 52.4844 88.1173 52.4844C89.1065 52.4844 89.9793 53.2117 89.9793 54.2009V54.6373C89.9793 59.5541 88.2628 64.8783 85.3534 68.9223C81.8913 73.9845 76.9745 76.7193 71.6503 76.7193H71.7085Z" fill="#94BB3F"/>
<path d="M97.3987 112.77H45.1757C44.1574 112.77 43.3137 111.898 43.3137 110.908V105.584C43.3137 101.54 46.6304 98.3691 50.5289 98.3691H91.9291C95.9731 98.3691 99.1443 101.686 99.1443 105.584V110.908C99.2898 111.927 98.417 112.77 97.4278 112.77H97.3987ZM46.8922 109.163H95.6531V105.555C95.6531 103.548 94.053 101.948 92.0455 101.948H50.6453C48.6378 101.948 47.0377 103.548 47.0377 105.555V109.163H46.8922Z" fill="#94BB3F"/>
<path d="M88.2918 56.0913C87.2735 56.0913 86.4298 55.2185 86.4298 54.2294V48.9052C86.4298 40.9627 79.9419 34.4748 71.9994 34.4748C64.0568 34.4748 57.569 40.9627 57.569 48.9052V54.3748C57.569 55.3931 56.6961 56.2368 55.707 56.2368C54.7178 56.2368 53.845 55.364 53.845 54.3748V48.9052C53.845 38.9552 61.933 30.8672 71.883 30.8672C81.833 30.8672 89.921 38.9552 89.921 48.9052V54.3748C90.0665 55.2476 89.1937 56.0913 88.3209 56.0913H88.2918Z" fill="#94BB3F"/>
<path d="M95.5069 56.0951H48.6371C47.6189 56.0951 46.7751 55.2223 46.7751 54.2331C46.7751 53.2439 47.648 52.3711 48.6371 52.3711H95.5069C96.5252 52.3711 97.3689 53.2439 97.3689 54.2331C97.2235 55.2514 96.3506 56.0951 95.5069 56.0951Z" fill="#94BB3F"/>
<path d="M79.2146 63.3073H77.3529C76.3348 63.3073 75.4912 62.4347 75.4912 61.4457C75.4912 60.4566 76.3639 59.584 77.3529 59.584H79.2146C80.2327 59.584 81.0762 60.4566 81.0762 61.4457C81.0762 62.4347 80.2036 63.3073 79.2146 63.3073Z" fill="#94BB3F"/>
<path d="M66.6748 63.3073H64.8131C63.795 63.3073 62.9514 62.4347 62.9514 61.4457C62.9514 60.4566 63.8241 59.584 64.8131 59.584H66.6748C67.6929 59.584 68.5364 60.4566 68.5364 61.4457C68.391 62.4638 67.5183 63.3073 66.6748 63.3073Z" fill="#94BB3F"/>
<path d="M43.1683 47.1579C40.1426 47.1579 37.6987 44.7141 37.6987 41.6883C37.6987 38.6626 40.1426 36.2188 43.1683 36.2188C46.1941 36.2188 48.6379 38.6626 48.6379 41.6883C48.6379 44.7141 46.1941 47.1579 43.1683 47.1579ZM43.1683 39.9427C42.1501 39.9427 41.3063 40.8155 41.3063 41.8047C41.3063 42.7939 42.1791 43.6667 43.1683 43.6667C44.1575 43.6667 45.0303 42.7939 45.0303 41.8047C45.0303 40.641 44.1575 39.9427 43.1683 39.9427Z" fill="#94BB3F"/>
<path d="M105.311 77.7375C101.849 77.7375 98.969 74.8573 98.969 71.3951C98.969 67.933 101.849 65.0527 105.311 65.0527C108.774 65.0527 111.654 67.933 111.654 71.3951C111.654 74.8573 108.774 77.7375 105.311 77.7375ZM105.311 68.7767C103.857 68.7767 102.577 69.9405 102.577 71.5115C102.577 72.9662 103.74 74.2463 105.311 74.2463C106.766 74.2463 108.046 73.0826 108.046 71.5115C108.046 69.9405 106.882 68.7767 105.311 68.7767Z" fill="#94BB3F"/>
<path d="M77.0616 66.1867C76.4797 65.4594 75.345 65.3139 74.4722 65.8958H74.3268C72.0284 67.7578 69.9918 66.1867 69.5554 65.8958C68.8281 65.3139 67.6934 65.3139 66.9661 66.1867C66.3842 66.914 66.3842 68.0487 67.257 68.776C68.9735 70.0852 70.8646 70.7835 72.8721 70.4926C74.3268 70.3471 75.6069 69.6197 76.7706 68.776C77.498 68.0487 77.6434 66.914 77.0616 66.1867Z" fill="#94BB3F"/>
</g>
<defs>
<clipPath id="clip0_688_8338">
<rect width="142.5" height="142.5" fill="white" transform="translate(0.749756)"/>
</clipPath>
</defs>
</svg>
