<svg width="144" height="143" viewBox="0 0 144 143" fill="none" xmlns="http://www.w3.org/2000/svg">
<g clip-path="url(#clip0_688_9119)">
<path d="M88.322 -0.00390625H55.679C25.3427 -0.00390625 0.750244 24.5885 0.750244 54.9248V87.5678C0.750244 117.904 25.3427 142.497 55.679 142.497H88.322C118.658 142.497 143.251 117.904 143.251 87.5678V54.9248C143.251 24.5885 118.658 -0.00390625 88.322 -0.00390625Z" fill="#094451"/>
<path d="M106.913 108.947L102.84 64.2012H87.5368L84.2783 101.645L80.6416 73.773H65.6002L62.0508 110.024H106.913V108.947Z" fill="#D8E8AA"/>
<path d="M101.559 53.1179H105.777C107.93 53.1179 109.734 51.3432 109.734 49.1612C109.734 46.9792 107.959 45.2045 105.777 45.2045H101.559C102.577 41.1314 99.5223 37.291 95.4492 37.291C93.7908 37.291 92.1325 37.9311 90.9978 39.2112C89.6014 38.833 87.943 38.833 86.5465 39.473C85.15 38.0765 83.2299 37.3201 81.0769 37.3201C77.8766 37.3201 74.9673 39.2403 73.8035 42.1496C71.0105 41.7714 68.3339 43.9244 68.3339 46.8628C68.3339 49.0157 69.7304 50.8195 71.767 51.4596C70.6323 55.5327 73.6871 59.6058 77.8766 59.6058C79.0113 59.6058 80.175 59.344 81.0769 58.7039C81.0769 60.1004 80.0587 61.1187 78.6622 61.1187H77.9057C77.0038 61.1187 76.2474 61.8751 76.2474 62.777V72.3488H73.0471V62.777C73.0471 61.8751 72.2907 61.1187 71.3888 61.1187H69.2358C68.8576 61.1187 68.4794 61.2351 68.2176 61.4969C66.5592 63.0389 63.999 63.1552 62.1079 61.6133C61.3515 60.9732 60.0713 61.2351 59.6931 62.137C58.6749 64.2899 56.3765 65.8318 53.9617 65.8318C50.3832 65.8318 47.5902 63.0389 47.5902 59.4603C47.5902 55.8818 50.645 52.9725 54.3399 53.0888C54.98 53.0888 55.4746 52.827 55.7364 52.3324C55.9982 51.8087 55.9982 51.1978 55.7364 50.6741C55.0963 49.6558 55.8528 48.2593 57.1329 48.2593C57.7729 48.2593 58.2675 48.5211 58.5294 49.0157C59.0531 50.034 60.4496 50.1504 61.0896 49.2776C61.7297 48.6375 62.6316 48.1429 63.5044 48.1429C64.3772 48.1429 65.1627 47.3865 65.1627 46.4846C65.1627 45.5827 64.4063 44.8263 63.5044 44.8263C62.2243 44.8263 61.0896 45.2045 60.0713 45.8445C59.3149 45.2045 58.1512 44.8263 57.1329 44.8263C54.4563 44.8263 52.3034 46.9792 52.4197 49.8013C47.9684 50.5577 44.3899 54.5144 44.3899 59.2276C44.3899 64.4644 48.7248 68.7994 53.9617 68.7994C57.0165 68.7994 59.955 67.2574 61.7297 64.8427C64.2899 66.1228 67.4611 65.8609 69.8759 64.0862V71.9997H65.1627C64.4063 71.9997 63.6208 72.6397 63.6208 73.3962L60.5659 108.57H39.6767C38.7748 108.57 38.1348 109.327 38.1348 110.229C38.1348 111.131 38.8912 111.771 39.6767 111.771H106.592C107.494 111.771 108.25 111.014 108.134 110.112L104.934 63.9699C104.934 63.0679 104.177 62.4279 103.392 62.4279H98.6786V56.8128C100.221 56.1728 101.239 54.7763 101.617 53.1179H101.559ZM79.5059 64.2317C82.7062 63.708 84.8591 60.6532 84.1027 57.482C85.761 58.122 87.5357 58.122 89.0777 57.482V62.7188H87.4193C86.5174 62.7188 85.8774 63.3589 85.8774 64.2608L84.1027 90.125L82.7062 73.8035C82.5898 73.0471 81.9497 72.407 81.1642 72.407H79.6222L79.5059 64.2608V64.2317ZM103.712 93.0344H87.1575L87.4193 89.8341H103.741V93.0344H103.712ZM81.1642 93.0344H65.1045L65.3664 89.8341H80.9024L81.1642 93.0344ZM80.6405 86.6338H65.5991L65.9773 81.8042H80.1168L80.6405 86.6338ZM64.8427 96.2056H81.397L81.7752 101.035H64.4354L64.8136 96.2056H64.8427ZM86.8956 96.2056H103.974L104.352 101.035H86.5174L86.8956 96.2056ZM103.334 86.6338H87.5357L87.9139 81.8042H103.072L103.334 86.6338ZM79.6222 75.4327L79.8841 78.633H66.3847L66.6465 75.4327H79.6513H79.6222ZM63.708 108.949L64.0863 104.119H82.0661L82.4443 108.949H63.708ZM85.9937 108.949L86.372 104.119H104.585L104.963 108.949H85.9647H85.9937ZM102.839 78.633H88.0594L88.9613 65.89H101.966L102.868 78.633H102.839ZM92.2489 62.6897V54.6599C92.2489 54.0198 91.8707 53.3798 91.2306 53.1179C90.5905 52.8561 89.9505 53.0016 89.4559 53.4962C87.7975 55.1545 85.1209 55.0381 83.579 53.3798C83.2008 53.0016 82.5607 52.7397 82.037 52.8561C81.5133 52.9725 81.0187 53.3798 80.9024 53.9907C80.786 54.369 80.6405 54.7472 80.3787 55.1254C79.7386 55.8818 78.8367 56.26 77.8184 56.26C76.0437 56.26 74.6181 54.8636 74.6181 53.0597C74.6181 51.7796 75.3746 50.7614 76.3929 50.1213C77.2948 49.7431 77.5275 48.5793 77.0329 47.8229L76.9165 47.7065C76.2765 46.8046 74.88 46.6882 74.2399 47.7065C73.9781 48.0847 73.4835 48.3466 72.9598 48.3466C72.0579 48.3466 71.3015 47.5901 71.3015 46.6882C71.3015 45.4081 72.698 44.6517 73.7162 45.2918C74.7345 45.9318 75.8692 45.2918 76.131 44.2735C76.5092 41.9751 78.5458 40.3168 80.8442 40.3168C82.3861 40.3168 83.7826 40.9568 84.6554 42.2369C85.1791 42.9934 86.1974 43.1388 86.9538 42.4988C87.9721 41.7423 89.3686 41.5969 90.3869 42.2369C91.1433 42.6151 92.0452 42.3533 92.5398 41.7132C93.1799 40.8113 94.1981 40.1713 95.2164 40.1713C96.9911 40.1713 98.4167 41.5678 98.4167 43.3716C98.4167 44.128 98.1549 44.9135 97.6603 45.5245C97.2821 46.0482 97.1366 46.6592 97.3984 47.1828C97.6603 47.8229 98.1549 48.0847 98.7949 48.0847H105.545C105.923 48.0847 106.301 48.463 106.301 48.8412C106.301 49.2194 105.923 49.5976 105.545 49.5976H99.9296C99.0277 49.5976 98.2712 50.354 98.2712 51.2559C98.2712 52.6524 97.3693 53.8162 96.1183 54.3108C95.4783 54.5726 95.1 55.0672 95.1 55.8527V62.4861L92.1616 62.6025L92.2489 62.6897Z" fill="#94BB3F"/>
<path d="M41.2772 54.7794C42.1791 54.7794 42.9356 54.0229 42.9356 53.2374C42.9356 52.3355 42.1791 51.5791 41.2772 51.5791C40.3753 51.5791 39.6189 50.8226 39.6189 49.9207C39.6189 49.1643 40.259 48.3788 41.0154 48.3788C41.6555 48.2624 42.15 47.8551 42.2955 47.3605C42.5574 46.8368 42.4119 46.2258 42.0337 45.7022C41.51 45.0621 41.2772 44.3057 41.2772 43.5492C41.2772 41.7745 42.6737 40.3489 44.4775 40.3489C46.2813 40.3489 47.6778 41.7454 47.6778 43.5492C47.6778 44.4511 48.4343 45.0912 49.3362 45.0912C50.2381 45.0912 50.9945 44.3348 50.9945 43.5492C50.9945 39.9707 48.2015 37.1777 44.623 37.1777C41.0445 37.1777 38.2515 39.9707 38.2515 43.5492C38.2515 44.4511 38.3679 45.2076 38.7752 45.964C37.4951 46.8659 36.7386 48.2624 36.7386 49.9207C36.6223 52.5973 38.6588 54.7503 41.3354 54.7503L41.2772 54.7794Z" fill="#94BB3F"/>
<path d="M42.7902 75.437C43.6921 75.437 44.4485 75.3206 45.205 74.9133C46.1069 76.1935 47.5034 76.9499 49.1617 76.9499C51.8383 76.9499 53.8749 74.797 53.8749 72.1204C53.8749 71.2184 53.1184 70.5784 52.3329 70.5784C51.431 70.5784 50.6746 71.3348 50.6746 72.1204C50.6746 72.9059 49.9181 73.7787 49.0162 73.7787C48.2598 73.7787 47.4743 73.1386 47.4743 72.3822C47.3579 71.7421 46.9506 71.2475 46.456 71.1021C45.9323 70.8402 45.3213 70.9857 44.7977 71.3639C44.1576 71.8876 43.4012 72.1204 42.6447 72.1204C40.87 72.1204 39.4444 70.7239 39.4444 68.9201C39.4444 68.0182 38.688 67.2617 37.9025 67.2617C37.0006 67.2617 36.2441 68.0182 36.2441 68.9201C36.506 72.6149 39.299 75.4079 42.732 75.4079L42.7902 75.437Z" fill="#94BB3F"/>
<path d="M45.9907 94.5511C45.9907 91.8744 43.8378 89.8379 41.1612 89.8379C38.4845 89.8379 36.448 91.9908 36.448 94.5511C36.448 97.2277 38.6009 99.3806 41.1612 99.3806C43.9541 99.3806 45.9907 97.2277 45.9907 94.5511ZM39.6192 94.5511C39.6192 93.6492 40.3756 92.8927 41.2775 92.8927C42.1794 92.8927 42.9359 93.6492 42.9359 94.5511C42.9359 95.453 42.1794 96.2094 41.2775 96.2094C40.3756 96.2094 39.6192 95.453 39.6192 94.5511Z" fill="#94BB3F"/>
<path d="M60.3921 83.4632C60.3921 80.7866 58.2392 78.75 55.679 78.75C53.0024 78.75 50.9658 80.9029 50.9658 83.4632C50.9658 86.1398 53.1187 88.2927 55.679 88.2927C58.2392 88.2927 60.3921 85.9943 60.3921 83.4632ZM54.0206 83.4632C54.0206 82.5613 54.7771 81.8048 55.679 81.8048C56.5809 81.8048 57.3373 82.5613 57.3373 83.4632C57.3373 84.3651 56.5809 85.1215 55.679 85.1215C54.7771 85.0051 54.0206 84.3651 54.0206 83.4632Z" fill="#94BB3F"/>
<path d="M51.9837 97.8665C51.082 98.1283 50.7038 99.001 50.9656 99.9027C51.2274 100.804 52.1001 101.183 53.0018 100.921C53.9036 100.659 54.2817 99.7864 54.0199 98.8846C53.6418 97.9829 52.74 97.6047 51.9837 97.8665Z" fill="#94BB3F"/>
<path d="M42.4117 80.2694C41.51 80.5312 41.1318 81.4039 41.3936 82.3056C41.6554 83.2074 42.5281 83.5855 43.4298 83.3237C44.3316 83.0619 44.7097 82.1893 44.4479 81.2875C44.0698 80.5312 43.168 80.0076 42.4117 80.2694Z" fill="#94BB3F"/>
<path d="M39.2406 57.9804C38.3388 58.2422 37.9607 59.1148 38.2225 60.0166C38.4843 60.9183 39.3569 61.2965 40.2587 61.0347C41.1604 60.7729 41.5386 59.9002 41.2768 58.9985C40.8986 58.2422 39.9969 57.7186 39.2406 57.9804Z" fill="#94BB3F"/>
<path d="M61.5262 51.6112C60.6245 51.873 60.2463 52.7457 60.5081 53.6474C60.7699 54.5492 61.6426 54.9273 62.5443 54.6655C63.4461 54.4037 63.8242 53.5311 63.5624 52.6293C63.1843 51.873 62.2825 51.3494 61.5262 51.6112Z" fill="#94BB3F"/>
<path d="M59.2282 41.9208C60.1299 41.659 60.5081 40.7864 60.2463 39.8846C59.9845 38.9829 59.1118 38.6047 58.21 38.8665C57.3083 39.1283 56.9301 40.001 57.1919 40.9027C57.5701 41.8045 58.4718 42.1826 59.2282 41.9208Z" fill="#94BB3F"/>
<path d="M88.5545 46.8958C87.6528 47.1576 87.2746 48.0303 87.5364 48.932C87.7982 49.8338 88.6709 50.2119 89.5726 49.9501C90.4744 49.6883 90.8525 48.8157 90.5907 47.9139C90.3289 47.0122 89.4563 46.634 88.5545 46.8958Z" fill="#94BB3F"/>
</g>
<defs>
<clipPath id="clip0_688_9119">
<rect width="142.5" height="142.5" fill="white" transform="translate(0.749756)"/>
</clipPath>
</defs>
</svg>
