<svg width="144" height="143" viewBox="0 0 144 143" fill="none" xmlns="http://www.w3.org/2000/svg">
<g clip-path="url(#clip0_688_8565)">
<path d="M88.322 -0.00390625H55.679C25.3427 -0.00390625 0.750244 24.5885 0.750244 54.9248V87.5678C0.750244 117.904 25.3427 142.497 55.679 142.497H88.322C118.658 142.497 143.251 117.904 143.251 87.5678V54.9248C143.251 24.5885 118.658 -0.00390625 88.322 -0.00390625Z" fill="#094451"/>
<path d="M39.503 98.0436L73.1352 56.7016C76.1319 52.9776 81.5724 52.6867 85.0054 56.1197L92.7443 63.8586C96.0319 67.1462 95.741 72.7322 92.1624 75.7288C91.1733 76.6016 52.246 108.197 50.8204 109.216C47.6783 111.776 43.0815 111.514 40.2304 108.634C37.2337 105.782 36.9428 101.186 39.503 98.0436Z" fill="#D8E8AA"/>
<path d="M105.313 73.8652C106.011 73.8652 106.593 74.4472 106.593 75.1456C106.593 75.8439 106.011 76.4259 105.313 76.4259C104.615 76.4259 104.033 75.8439 104.033 75.1456C104.033 74.4472 104.615 73.8652 105.313 73.8652Z" fill="#94BB3F"/>
<path d="M100.891 101.625C101.589 101.625 102.171 102.207 102.171 102.905C102.171 103.604 101.589 104.186 100.891 104.186C100.192 104.186 99.6104 103.604 99.6104 102.905C99.6104 102.207 100.192 101.625 100.891 101.625Z" fill="#94BB3F"/>
<path d="M99.0289 35.5215C99.7272 35.5215 100.309 36.1035 100.309 36.8018C100.309 37.5002 99.7272 38.0822 99.0289 38.0822C98.3305 38.0822 97.7485 37.5002 97.7485 36.8018C97.7485 36.1035 98.3305 35.5215 99.0289 35.5215Z" fill="#94BB3F"/>
<path d="M75.8416 38.1133C76.54 38.1133 77.1219 38.6953 77.1219 39.3936C77.1219 40.092 76.54 40.674 75.8416 40.674C75.1432 40.674 74.5613 40.092 74.5613 39.3936C74.5613 38.6953 75.1432 38.1133 75.8416 38.1133Z" fill="#94BB3F"/>
<path d="M55.2432 63.1309C55.9416 63.1309 56.5236 63.7128 56.5236 64.4112C56.5236 65.1096 55.9416 65.6915 55.2432 65.6915C54.5449 65.6915 53.9629 65.1096 53.9629 64.4112C53.9629 63.7128 54.5449 63.1309 55.2432 63.1309Z" fill="#94BB3F"/>
<path d="M39.0667 40.8164C39.7651 40.8164 40.347 41.3984 40.347 42.0967C40.347 42.7951 39.7651 43.3771 39.0667 43.3771C38.3683 43.3771 37.7864 42.7951 37.7864 42.0967C37.7864 41.3984 38.3683 40.8164 39.0667 40.8164Z" fill="#94BB3F"/>
<path d="M35.4883 90.0449C36.1867 90.0449 36.7687 90.6269 36.7687 91.3253C36.7687 92.0236 36.1867 92.6056 35.4883 92.6056C34.79 92.6056 34.208 92.0236 34.208 91.3253C34.208 90.6269 34.79 90.0449 35.4883 90.0449Z" fill="#94BB3F"/>
<path d="M45.6414 111.919C43.343 111.919 41.0737 111.046 39.3572 109.33C36.2151 106.188 35.9242 101.038 38.7753 97.4597L72.2621 56.1177C73.9786 53.9647 76.4225 52.8301 79.1282 52.8301C81.572 52.8301 83.6959 53.7029 85.4124 55.4194L93.1513 63.1583C94.8678 64.8748 95.857 67.4642 95.7115 69.8789C95.566 72.3228 94.4314 74.7376 92.4239 76.3086L51.2274 109.941C49.6563 111.221 47.6489 111.948 45.6414 111.948V111.919ZM79.2736 54.6921C77.1207 54.6921 75.1133 55.6813 73.8331 57.2523L40.2009 98.5943C37.9025 101.445 38.1935 105.46 40.6373 108.05C41.9174 109.33 43.7794 110.057 45.6414 110.057C47.2125 110.057 48.7835 109.475 50.0637 108.486L91.4057 74.9994C92.9767 73.7193 93.8495 71.8573 93.9659 69.8498C94.1114 67.8424 93.2386 65.8349 91.9584 64.4093L84.2195 56.6704C82.9394 55.3903 81.0774 54.663 79.2154 54.663L79.2736 54.6921Z" fill="#94BB3F"/>
<path d="M96.5845 63.129C93.5878 63.129 90.5621 62.2562 88.0019 60.5688C87.5655 60.2779 87.42 59.696 87.7109 59.2887C88.0019 58.8523 88.5546 58.7068 88.9911 58.9977C91.2894 60.5688 93.8497 61.2961 96.5845 61.2961C98.8829 61.2961 101.007 60.7143 102.869 59.7251C100.425 58.445 97.7191 57.8631 95.0134 58.2995C94.577 58.2995 94.0243 58.0086 94.0243 57.5722C94.0243 57.1358 94.3152 56.583 94.7516 56.583C95.3335 56.583 95.8862 56.4375 96.6136 56.4375C99.6102 56.4375 102.607 57.3103 105.196 59.0268C105.487 59.1723 105.633 59.4632 105.633 59.7542C105.633 60.0451 105.487 60.336 105.196 60.4815C102.607 62.3435 99.7557 63.1872 96.6136 63.1872L96.5845 63.129Z" fill="#94BB3F"/>
<path d="M88.5842 60.7168C88.2933 60.7168 88.0023 60.5713 87.8569 60.2804C86.1403 57.8365 85.2966 54.8399 85.2966 51.8432C85.2966 48.8466 86.1403 45.8209 87.8569 43.2606C88.0023 42.9697 88.2933 42.8242 88.5842 42.8242C88.8751 42.8242 89.1661 42.9697 89.3116 43.2606C91.0281 45.8209 91.8718 48.7011 91.8718 51.8432V53.4143C91.8718 53.8507 91.4354 54.258 90.8826 54.258C90.4462 54.258 90.0098 53.8216 90.0098 53.2688V53.1234V51.8432C90.0098 49.5448 89.4279 47.421 88.4387 45.559C87.4496 47.5665 86.8677 49.7194 86.8677 51.8432C86.8677 54.5489 87.595 57.1383 89.1661 59.2912C89.457 59.7276 89.3116 60.2804 88.8751 60.5713C88.8751 60.7168 88.7297 60.7168 88.5842 60.7168Z" fill="#94BB3F"/>
<path d="M88.5837 60.7185C88.2928 60.7185 88.1473 60.573 88.0019 60.4275C87.8564 60.2821 87.7109 59.8456 87.7109 59.5547C88.1473 57.1108 88.9911 54.8415 90.2712 52.6886C91.1149 51.1176 92.2786 49.692 93.5588 48.3828C96.7009 45.2407 100.57 43.2332 104.731 42.5059C105.022 42.5059 105.313 42.5059 105.604 42.7968C105.749 42.9423 105.894 43.3787 105.894 43.6696C105.022 47.9755 103.043 51.8158 100.018 54.8415C98.5919 56.2671 97.1664 57.4018 95.4498 58.2746C93.4424 59.4092 91.144 60.2821 88.7292 60.7185H88.5837ZM103.742 44.5424C100.308 45.4152 97.3118 47.1026 94.868 49.692C93.7333 50.8266 92.5696 52.2522 91.8713 53.7069C91.0276 55.2779 90.3003 56.9945 89.8639 58.711C91.5804 58.2746 93.1514 57.5763 94.577 56.7035C96.1481 55.8307 97.4282 54.6961 98.7374 53.5614C101.181 51.0012 102.898 47.83 103.742 44.5424Z" fill="#94BB3F"/>
<path d="M78.6917 72.2961C78.4007 72.2961 78.2553 72.1506 78.1098 72.0052L72.3784 66.2737C72.0874 65.9828 72.0874 65.4009 72.3784 64.9936C72.6693 64.7027 73.2221 64.7027 73.6585 64.9936L79.3899 70.725C79.6809 71.016 79.6809 71.5978 79.3899 72.0052C79.099 72.1506 78.808 72.2961 78.6626 72.2961H78.6917Z" fill="#94BB3F"/>
<path d="M78.6926 87.457C78.4017 87.457 78.2562 87.3115 78.1107 87.166L69.9645 79.0198C69.6736 78.7289 69.6736 78.147 69.9645 77.7397C70.2555 77.4488 70.8373 77.4488 71.2447 77.7397L79.3909 85.8859C79.6818 86.1768 79.6818 86.7587 79.3909 87.166C79.0999 87.3115 78.809 87.457 78.6635 87.457H78.6926Z" fill="#94BB3F"/>
<path d="M62.836 83.0285C62.545 83.0285 62.3996 82.883 62.2541 82.7376L56.5226 77.0061C56.2317 76.7152 56.2317 76.1333 56.5226 75.726C56.8136 75.4351 57.3664 75.4351 57.8028 75.726L63.5342 81.4575C63.8251 81.7484 63.8251 82.3303 63.5342 82.7376C63.2433 82.883 63.0978 83.0285 62.8069 83.0285H62.836Z" fill="#94BB3F"/>
<path d="M59.6648 96.3266C59.3738 96.3266 59.2284 96.1811 59.0829 96.0356L54.0788 91.0315C53.7879 90.7406 53.7879 90.1587 54.0788 89.7514C54.3697 89.4605 54.9225 89.4605 55.3589 89.7514L60.363 94.7555C60.654 95.0464 60.654 95.6283 60.363 96.0356C60.0721 96.1811 59.9266 96.3266 59.6357 96.3266H59.6648Z" fill="#94BB3F"/>
<path d="M47.6494 98.186C47.3585 98.186 47.213 98.0405 47.0676 97.895L42.9072 93.7347C42.6162 93.4437 42.6162 92.8618 42.9072 92.4545C43.1981 92.1636 43.7509 92.1636 44.1873 92.4545L48.3477 96.6149C48.6386 96.9058 48.6386 97.4877 48.3477 97.895C48.0567 98.0405 47.9113 98.186 47.6203 98.186H47.6494Z" fill="#94BB3F"/>
<path d="M58.3851 52.4245C55.9413 52.4245 53.9629 50.4171 53.9629 48.0023C53.9629 45.5875 55.9703 43.5801 58.3851 43.5801C60.7999 43.5801 62.8073 45.5875 62.8073 48.0023C62.8073 50.4171 60.7999 52.4245 58.3851 52.4245ZM58.3851 45.2675C56.9595 45.2675 55.6794 46.4022 55.6794 47.9732C55.6794 49.3988 56.8141 50.6789 58.3851 50.6789C59.8107 50.6789 61.0908 49.5443 61.0908 47.9732C61.0908 46.4022 59.8107 45.2675 58.3851 45.2675Z" fill="#94BB3F"/>
<path d="M38.6596 81.8973C36.6521 81.8973 35.0811 80.3262 35.0811 78.3187C35.0811 76.3113 36.6521 74.7402 38.6596 74.7402C40.667 74.7402 42.2381 76.3113 42.2381 78.3187C42.2381 80.3262 40.667 81.8973 38.6596 81.8973ZM38.6596 76.6022C37.6704 76.6022 36.7976 77.475 36.7976 78.4642C36.7976 79.4534 37.6704 80.3262 38.6596 80.3262C39.6487 80.3262 40.5216 79.4534 40.5216 78.4642C40.5216 77.475 39.6487 76.6022 38.6596 76.6022Z" fill="#94BB3F"/>
<path d="M81.0775 109.537C81.0775 109.537 80.9611 109.537 80.9029 109.537C80.3792 109.479 79.9137 109.13 79.7392 108.635C79.7392 108.577 77.3535 102.438 72.1166 100.111C71.3893 99.7906 71.0693 98.9469 71.3893 98.2196C71.7093 97.4922 72.553 97.1722 73.2804 97.4922C77.4117 99.3251 80.001 102.933 81.3393 105.318C85.4124 99.7324 97.399 84.371 107.698 81.6944C108.455 81.4907 109.24 81.9562 109.444 82.7127C109.647 83.4691 109.182 84.2546 108.425 84.4583C97.0789 87.3967 82.4158 108.722 82.2703 108.926C82.0085 109.304 81.5721 109.537 81.0775 109.537Z" fill="#94BB3F"/>
</g>
<defs>
<clipPath id="clip0_688_8565">
<rect width="142.5" height="142.5" fill="white" transform="translate(0.749756)"/>
</clipPath>
</defs>
</svg>
