<svg width="32" height="32" viewBox="0 0 32 32" fill="none" xmlns="http://www.w3.org/2000/svg">
<path d="M19.4998 13.9998C19.4998 14.3977 19.3418 14.7792 19.0605 15.0605C18.7792 15.3418 18.3977 15.4998 17.9998 15.4998H15.4998V17.9998C15.4998 18.3977 15.3418 18.7792 15.0605 19.0605C14.7792 19.3418 14.3977 19.4998 13.9998 19.4998C13.602 19.4998 13.2205 19.3418 12.9392 19.0605C12.6579 18.7792 12.4998 18.3977 12.4998 17.9998V15.4998H9.99983C9.602 15.4998 9.22047 15.3418 8.93917 15.0605C8.65786 14.7792 8.49983 14.3977 8.49983 13.9998C8.49983 13.602 8.65786 13.2205 8.93917 12.9392C9.22047 12.6579 9.602 12.4998 9.99983 12.4998H12.4998V9.99983C12.4998 9.602 12.6579 9.22047 12.9392 8.93917C13.2205 8.65786 13.602 8.49983 13.9998 8.49983C14.3977 8.49983 14.7792 8.65786 15.0605 8.93917C15.3418 9.22047 15.4998 9.602 15.4998 9.99983V12.4998H17.9998C18.3977 12.4998 18.7792 12.6579 19.0605 12.9392C19.3418 13.2205 19.4998 13.602 19.4998 13.9998ZM29.0611 29.0611C28.9217 29.2009 28.7561 29.3119 28.5738 29.3876C28.3915 29.4633 28.196 29.5023 27.9986 29.5023C27.8012 29.5023 27.6057 29.4633 27.4234 29.3876C27.241 29.3119 27.0754 29.2009 26.9361 29.0611L20.9998 23.1248C18.6804 24.9047 15.7708 25.7357 12.8613 25.4492C9.95169 25.1627 7.26004 23.7802 5.33231 21.5821C3.40459 19.3841 2.38514 16.535 2.48078 13.613C2.57641 10.6909 3.77996 7.9146 5.84728 5.84728C7.9146 3.77996 10.6909 2.57641 13.613 2.48078C16.535 2.38514 19.3841 3.40459 21.5821 5.33231C23.7802 7.26004 25.1627 9.95169 25.4492 12.8613C25.7357 15.7708 24.9047 18.6804 23.1248 20.9998L29.0673 26.9411C29.3474 27.2232 29.5041 27.6049 29.5029 28.0024C29.5017 28.3999 29.3428 28.7807 29.0611 29.0611ZM13.9998 22.4998C15.681 22.4998 17.3244 22.0013 18.7222 21.0673C20.12 20.1333 21.2095 18.8058 21.8528 17.2526C22.4961 15.6995 22.6645 13.9904 22.3365 12.3416C22.0085 10.6927 21.199 9.17817 20.0102 7.98942C18.8215 6.80068 17.3069 5.99113 15.6581 5.66315C14.0093 5.33518 12.3002 5.50351 10.747 6.14685C9.19385 6.7902 7.86633 7.87966 6.93234 9.27748C5.99835 10.6753 5.49983 12.3187 5.49983 13.9998C5.50248 16.2534 6.39886 18.4138 7.99234 20.0073C9.58583 21.6008 11.7463 22.4972 13.9998 22.4998Z" fill="black"/>
</svg>
