<svg width="36" height="37" viewBox="0 0 36 37" fill="none" xmlns="http://www.w3.org/2000/svg">
<rect x="1" y="1.5" width="34" height="34" rx="17" fill="white"/>
<rect x="1" y="1.5" width="34" height="34" rx="17" stroke="#1F3C8A" stroke-width="2"/>
<path d="M18.1516 14.5078C20.6125 14.5078 22.6438 16.5391 22.6438 19C22.6438 21.5 20.6125 23.4922 18.1516 23.4922C15.6516 23.4922 13.6594 21.5 13.6594 19C13.6594 16.5391 15.6516 14.5078 18.1516 14.5078ZM18.1516 21.9297C19.7531 21.9297 21.0422 20.6406 21.0422 19C21.0422 17.3984 19.7531 16.1094 18.1516 16.1094C16.5109 16.1094 15.2219 17.3984 15.2219 19C15.2219 20.6406 16.55 21.9297 18.1516 21.9297ZM23.8547 14.3516C23.8547 14.9375 23.3859 15.4062 22.8 15.4062C22.2141 15.4062 21.7453 14.9375 21.7453 14.3516C21.7453 13.7656 22.2141 13.2969 22.8 13.2969C23.3859 13.2969 23.8547 13.7656 23.8547 14.3516ZM26.8234 15.4062C26.9016 16.8516 26.9016 21.1875 26.8234 22.6328C26.7453 24.0391 26.4328 25.25 25.4172 26.3047C24.4016 27.3203 23.1516 27.6328 21.7453 27.7109C20.3 27.7891 15.9641 27.7891 14.5188 27.7109C13.1125 27.6328 11.9016 27.3203 10.8469 26.3047C9.83125 25.25 9.51875 24.0391 9.44063 22.6328C9.3625 21.1875 9.3625 16.8516 9.44063 15.4062C9.51875 14 9.83125 12.75 10.8469 11.7344C11.9016 10.7188 13.1125 10.4062 14.5188 10.3281C15.9641 10.25 20.3 10.25 21.7453 10.3281C23.1516 10.4062 24.4016 10.7188 25.4172 11.7344C26.4328 12.75 26.7453 14 26.8234 15.4062ZM24.9484 24.1562C25.4172 23.0234 25.3 20.2891 25.3 19C25.3 17.75 25.4172 15.0156 24.9484 13.8438C24.6359 13.1016 24.05 12.4766 23.3078 12.2031C22.1359 11.7344 19.4016 11.8516 18.1516 11.8516C16.8625 11.8516 14.1281 11.7344 12.9953 12.2031C12.2141 12.5156 11.6281 13.1016 11.3156 13.8438C10.8469 15.0156 10.9641 17.75 10.9641 19C10.9641 20.2891 10.8469 23.0234 11.3156 24.1562C11.6281 24.9375 12.2141 25.5234 12.9953 25.8359C14.1281 26.3047 16.8625 26.1875 18.1516 26.1875C19.4016 26.1875 22.1359 26.3047 23.3078 25.8359C24.05 25.5234 24.675 24.9375 24.9484 24.1562Z" fill="#1F3C8A"/>
</svg>
