<svg width="16" height="16" viewBox="0 0 16 16" fill="none" xmlns="http://www.w3.org/2000/svg">
<g clip-path="url(#clip0_473_763)">
<path d="M8.856 7.06727H8.8672V7.04967L8.856 7.06727ZM8.856 7.06727H8.8672V7.04967L8.856 7.06727ZM8.856 7.06727H8.8672V7.04967L8.856 7.06727ZM8.856 7.06727H8.8672V7.04967L8.856 7.06727ZM8.856 7.06727H8.8672V7.04967L8.856 7.06727ZM8.856 7.06727H8.8672V7.04967L8.856 7.06727ZM8.856 7.06727H8.8672V7.04967L8.856 7.06727ZM8.856 7.06727H8.8672V7.04967L8.856 7.06727ZM8.856 7.06727H8.8672V7.04967L8.856 7.06727ZM8.856 7.06727H8.8672V7.04967L8.856 7.06727ZM8.856 7.06727H8.8672V7.04967L8.856 7.06727ZM8.856 7.06727H8.8672V7.04967L8.856 7.06727ZM8.856 7.06727H8.8672V7.04967L8.856 7.06727ZM8.856 7.06727H8.8672V7.04967L8.856 7.06727ZM8.856 7.06727H8.8672V7.04967L8.856 7.06727ZM8.856 7.06727H8.8672V7.04967L8.856 7.06727ZM8.128 0.603271C6.68278 0.603271 5.27 1.03183 4.06834 1.83476C2.86668 2.63768 1.9301 3.77891 1.37703 5.11413C0.823967 6.44934 0.67926 7.91858 0.96121 9.33603C1.24316 10.7535 1.9391 12.0555 2.96103 13.0774C3.98296 14.0994 5.28498 14.7953 6.70244 15.0773C8.1199 15.3592 9.58913 15.2145 10.9243 14.6614C12.2596 14.1084 13.4008 13.1718 14.2037 11.9701C15.0066 10.7685 15.4352 9.3557 15.4352 7.91047C15.4331 5.97313 14.6625 4.11575 13.2926 2.74584C11.9227 1.37593 10.0653 0.605389 8.128 0.603271ZM6.3008 11.2001C6.30038 11.2325 6.28722 11.2634 6.26416 11.2862C6.2411 11.3089 6.21 11.3217 6.1776 11.3217H4.7696C4.73735 11.3217 4.70642 11.3089 4.68362 11.2861C4.66082 11.2633 4.648 11.2323 4.648 11.2001V6.46887C4.64779 6.45277 4.65078 6.43678 4.6568 6.42185C4.66281 6.40691 4.67174 6.39331 4.68305 6.38185C4.69436 6.37039 4.70784 6.36129 4.7227 6.35508C4.73756 6.34887 4.7535 6.34567 4.7696 6.34567H6.1776C6.19378 6.34567 6.2098 6.34886 6.22475 6.35505C6.2397 6.36124 6.25328 6.37032 6.26472 6.38176C6.27616 6.3932 6.28523 6.40678 6.29143 6.42172C6.29762 6.43667 6.3008 6.45269 6.3008 6.46887V11.2001ZM5.424 5.71367C5.24901 5.71367 5.07794 5.66178 4.93244 5.56456C4.78693 5.46733 4.67352 5.32915 4.60656 5.16747C4.53959 5.00579 4.52206 4.82789 4.55621 4.65626C4.59035 4.48462 4.67461 4.32696 4.79836 4.20322C4.9221 4.07948 5.07975 3.99521 5.25139 3.96107C5.42302 3.92693 5.60093 3.94445 5.7626 4.01142C5.92428 4.07839 6.06247 4.1918 6.15969 4.3373C6.25691 4.48281 6.3088 4.65387 6.3088 4.82887C6.30901 4.94512 6.28627 5.06028 6.24188 5.16772C6.19749 5.27516 6.13233 5.37279 6.05012 5.45499C5.96792 5.53719 5.8703 5.60236 5.76285 5.64675C5.65541 5.69114 5.54026 5.71388 5.424 5.71367ZM12.2592 11.2001C12.2588 11.2325 12.2456 11.2634 12.2226 11.2862C12.1995 11.3089 12.1684 11.3217 12.136 11.3217H10.728C10.712 11.3217 10.6962 11.3185 10.6815 11.3124C10.6667 11.3063 10.6533 11.2973 10.642 11.2861C10.6307 11.2748 10.6218 11.2614 10.6157 11.2466C10.6095 11.2319 10.6064 11.216 10.6064 11.2001V8.65767C10.6064 7.98887 10.368 7.53767 9.7696 7.53767C9.58314 7.53871 9.40156 7.59739 9.24975 7.70567C9.09793 7.81394 8.98332 7.96651 8.9216 8.14247C8.87942 8.27252 8.861 8.4091 8.8672 8.54567V11.2001C8.8672 11.2327 8.85422 11.2641 8.83112 11.2872C8.80802 11.3103 8.77668 11.3233 8.744 11.3233H7.336C7.3199 11.3233 7.30396 11.3201 7.2891 11.3139C7.27424 11.3077 7.26076 11.2986 7.24945 11.2871C7.23814 11.2756 7.22921 11.262 7.2232 11.2471C7.21718 11.2322 7.21419 11.2162 7.2144 11.2001C7.2144 10.5249 7.232 7.24647 7.2144 6.47527C7.21419 6.45917 7.21718 6.44318 7.2232 6.42825C7.22921 6.41331 7.23814 6.39971 7.24945 6.38825C7.26076 6.37679 7.27424 6.36769 7.2891 6.36148C7.30396 6.35527 7.3199 6.35207 7.336 6.35207H8.7408C8.75704 6.35186 8.77316 6.3549 8.7882 6.36101C8.80325 6.36713 8.81692 6.37619 8.8284 6.38768C8.83988 6.39916 8.84895 6.41283 8.85506 6.42787C8.86118 6.44292 8.86422 6.45903 8.864 6.47527V7.05607C9.01367 6.79627 9.23162 6.58242 9.49422 6.43772C9.75682 6.29302 10.054 6.22301 10.3536 6.23527C11.44 6.23527 12.256 6.94567 12.256 8.47527L12.2592 11.2001ZM8.8672 7.07207V7.05447L8.856 7.07207H8.8672ZM8.856 7.07207H8.8672V7.05447L8.856 7.07207ZM8.856 7.07207H8.8672V7.05447L8.856 7.07207ZM8.856 7.07207H8.8672V7.05447L8.856 7.07207ZM8.856 7.07207H8.8672V7.05447L8.856 7.07207ZM8.856 7.07207H8.8672V7.05447L8.856 7.07207ZM8.856 7.07207H8.8672V7.05447L8.856 7.07207ZM8.856 7.07207H8.8672V7.05447L8.856 7.07207ZM8.856 7.07207H8.8672V7.05447L8.856 7.07207ZM8.856 7.07207H8.8672V7.05447L8.856 7.07207ZM8.856 7.07207H8.8672V7.05447L8.856 7.07207ZM8.856 7.07207H8.8672V7.05447L8.856 7.07207ZM8.856 7.07207H8.8672V7.05447L8.856 7.07207ZM8.856 7.07207H8.8672V7.05447L8.856 7.07207ZM8.856 7.07207H8.8672V7.05447L8.856 7.07207Z" fill="black"/>
</g>
<defs>
<clipPath id="clip0_473_763">
<rect width="16" height="16" fill="white"/>
</clipPath>
</defs>
</svg>
