<svg width="43" height="42" viewBox="0 0 43 42" fill="none" xmlns="http://www.w3.org/2000/svg">
<path d="M7.93115 31.5H35.9312C36.8937 31.5 37.6812 30.7125 37.6812 29.75C37.6812 28.7875 36.8937 28 35.9312 28H7.93115C6.96865 28 6.18115 28.7875 6.18115 29.75C6.18115 30.7125 6.96865 31.5 7.93115 31.5ZM7.93115 22.75H35.9312C36.8937 22.75 37.6812 21.9625 37.6812 21C37.6812 20.0375 36.8937 19.25 35.9312 19.25H7.93115C6.96865 19.25 6.18115 20.0375 6.18115 21C6.18115 21.9625 6.96865 22.75 7.93115 22.75ZM6.18115 12.25C6.18115 13.2125 6.96865 14 7.93115 14H35.9312C36.8937 14 37.6812 13.2125 37.6812 12.25C37.6812 11.2875 36.8937 10.5 35.9312 10.5H7.93115C6.96865 10.5 6.18115 11.2875 6.18115 12.25Z" fill="#FDFDFD"/>
</svg>
