<svg width="16" height="15" viewBox="0 0 16 15" fill="none" xmlns="http://www.w3.org/2000/svg">
<path d="M15.5 5.4L15 5V1C15 0.4 14.6 0 14 0C13.4 0 13 0.4 13 1V1.5C11 2.4 8 4 5 4H2.5C1.1 4 0 5.2 0 6.5C0 7.4 0.5 8.2 1.2 8.6L2.3 14.5C2.3 14.8 2.6 15 3 15H3.2L6.8 14.3C7.2 14.2 7.4 13.9 7.3 13.6C7 13 6.5 12.1 6.1 11.8C5.9 11.7 5.6 10.9 5.4 10H6V9.1C8.7 9.4 12 10.7 13 11.5V12C13 12.6 13.4 13 14 13C14.6 13 15 12.6 15 12V8L15.4 7.7C15.8 7.4 16 7 16 6.6V6.4C16 6 15.8 5.7 15.5 5.4ZM2 5H5V6H2V5ZM5.6 12.6C5.7 12.6 5.9 12.9 6.1 13.3L3.3 14L2.3 9H4.2C4.4 10.3 4.8 12.2 5.6 12.6ZM13 10.3C11.4 9.5 8.6 8.3 6 8V5C8.6 4.7 11.4 3.6 13 2.7V10.3Z" fill="black"/>
</svg>
