<svg width="19" height="18" viewBox="0 0 19 18" fill="none" xmlns="http://www.w3.org/2000/svg">
<path d="M16.731 12.26L14.191 11.97C13.581 11.9 12.981 12.11 12.551 12.54L10.711 14.38C7.88102 12.94 5.56102 10.63 4.12102 7.79001L5.97102 5.94001C6.40102 5.51001 6.61102 4.91001 6.54102 4.30001L6.25102 1.78001C6.13102 0.77001 5.28102 0.0100098 4.26102 0.0100098H2.53102C1.40102 0.0100098 0.461017 0.95001 0.531017 2.08001C1.06102 10.62 7.89102 17.44 16.421 17.97C17.551 18.04 18.491 17.1 18.491 15.97V14.24C18.501 13.23 17.741 12.38 16.731 12.26Z" fill="#FF6900"/>
</svg>
