<svg width="16" height="16" viewBox="0 0 16 16" fill="none" xmlns="http://www.w3.org/2000/svg">
<path d="M12 14.921V14C12 13.523 11.902 13.073 11.75 12.649C13.111 11.55 14 9.887 14 8C14 4.687 11.313 2 8 2C4.687 2 2 4.687 2 8C2 9.887 2.889 11.55 4.25 12.649C4.098 13.073 4 13.523 4 14V14.921C1.611 13.537 0 10.959 0 8C0 3.582 3.582 0 8 0C12.418 0 16 3.582 16 8C16 10.959 14.389 13.537 12 14.921ZM8 3C10.762 3 13 5.238 13 8C13 9.494 12.332 10.819 11.294 11.735C10.906 11.173 10.373 10.726 9.756 10.423C10.507 9.877 11 8.999 11 8C11 6.343 9.657 5 8 5C6.343 5 5 6.343 5 8C5 8.999 5.493 9.877 6.244 10.423C5.627 10.727 5.094 11.173 4.706 11.735C3.668 10.819 3 9.494 3 8C3 5.238 5.238 3 8 3ZM6 8C6 6.896 6.896 6 8 6C9.104 6 10 6.896 10 8C10 9.104 9.104 10 8 10C6.896 10 6 9.104 6 8ZM8 11C8.79565 11 9.55871 11.3161 10.1213 11.8787C10.6839 12.4413 11 13.2044 11 14V16H5V14C5 13.2044 5.31607 12.4413 5.87868 11.8787C6.44129 11.3161 7.20435 11 8 11Z" fill="black"/>
</svg>
