<svg width="24" height="26" viewBox="0 0 24 26" fill="none" xmlns="http://www.w3.org/2000/svg">
<path d="M3.62399 16.5001C5.00872 17.8867 6.85275 18.7192 8.80868 18.8406C10.7646 18.962 12.6974 18.3639 14.243 17.1591L19.561 22.4771C19.7496 22.6592 20.0022 22.76 20.2644 22.7577C20.5266 22.7555 20.7774 22.6503 20.9628 22.4649C21.1482 22.2795 21.2534 22.0287 21.2557 21.7665C21.2579 21.5043 21.1571 21.2517 20.975 21.0631L15.657 15.7451C16.9153 14.1302 17.5102 12.0962 17.3204 10.0578C17.1305 8.01945 16.1703 6.13025 14.6355 4.77552C13.1006 3.42079 11.1068 2.70257 9.06065 2.76733C7.01448 2.8321 5.07007 3.67497 3.62399 5.12406C2.87678 5.87088 2.28405 6.7576 1.87964 7.73357C1.47524 8.70954 1.26709 9.75562 1.26709 10.8121C1.26709 11.8685 1.47524 12.9146 1.87964 13.8905C2.28405 14.8665 2.87678 15.7532 3.62399 16.5001ZM5.03799 6.54006C6.02656 5.5515 7.32731 4.9363 8.71861 4.79925C10.1099 4.66221 11.5057 5.01181 12.6681 5.78848C13.8306 6.56515 14.6878 7.72085 15.0937 9.05867C15.4996 10.3965 15.4291 11.8337 14.8942 13.1253C14.3592 14.417 13.393 15.4832 12.1601 16.1423C10.9272 16.8015 9.50391 17.0128 8.13271 16.7402C6.7615 16.4676 5.52723 15.728 4.64018 14.6474C3.75313 13.5668 3.26819 12.2121 3.26798 10.8141C3.26524 10.0196 3.42029 9.23257 3.72413 8.49854C4.02798 7.76451 4.47456 7.09813 5.03799 6.53806V6.54006Z" fill="white"/>
</svg>
