<svg width="36" height="37" viewBox="0 0 36 37" fill="none" xmlns="http://www.w3.org/2000/svg">
<rect x="1" y="1.5" width="34" height="34" rx="17" fill="white"/>
<rect x="1" y="1.5" width="34" height="34" rx="17" stroke="#1F3C8A" stroke-width="2"/>
<path d="M26.0891 14.9375C26.0891 15.1328 26.0891 15.2891 26.0891 15.4844C26.0891 20.9141 21.9875 27.125 14.4484 27.125C12.1047 27.125 9.95625 26.4609 8.15938 25.2891C8.47188 25.3281 8.78438 25.3672 9.13594 25.3672C11.05 25.3672 12.8078 24.7031 14.2141 23.6094C12.4172 23.5703 10.8938 22.3984 10.3859 20.7578C10.6594 20.7969 10.8938 20.8359 11.1672 20.8359C11.5188 20.8359 11.9094 20.7578 12.2219 20.6797C10.3469 20.2891 8.94063 18.6484 8.94063 16.6562V16.6172C9.4875 16.9297 10.1516 17.0859 10.8156 17.125C9.68281 16.3828 8.97969 15.1328 8.97969 13.7266C8.97969 12.9453 9.175 12.2422 9.52656 11.6562C11.5578 14.1172 14.6047 15.7578 18.0031 15.9531C17.925 15.6406 17.8859 15.3281 17.8859 15.0156C17.8859 12.75 19.7219 10.9141 21.9875 10.9141C23.1594 10.9141 24.2141 11.3828 24.9953 12.2031C25.8938 12.0078 26.7922 11.6562 27.5734 11.1875C27.2609 12.1641 26.6359 12.9453 25.7766 13.4531C26.5969 13.375 27.4172 13.1406 28.1203 12.8281C27.5734 13.6484 26.8703 14.3516 26.0891 14.9375Z" fill="#1F3C8A"/>
</svg>
