<svg width="36" height="37" viewBox="0 0 36 37" fill="none" xmlns="http://www.w3.org/2000/svg">
<rect x="1" y="1.5" width="34" height="34" rx="17" fill="white"/>
<rect x="1" y="1.5" width="34" height="34" rx="17" stroke="#1F3C8A" stroke-width="2"/>
<path d="M28.3625 13.8828C28.8313 15.5234 28.8313 19.0391 28.8313 19.0391C28.8313 19.0391 28.8313 22.5156 28.3625 24.1953C28.1281 25.1328 27.3859 25.8359 26.4875 26.0703C24.8078 26.5 18.1672 26.5 18.1672 26.5C18.1672 26.5 11.4875 26.5 9.80781 26.0703C8.90938 25.8359 8.16719 25.1328 7.93281 24.1953C7.46406 22.5156 7.46406 19.0391 7.46406 19.0391C7.46406 19.0391 7.46406 15.5234 7.93281 13.8828C8.16719 12.9453 8.90938 12.2031 9.80781 11.9688C11.4875 11.5 18.1672 11.5 18.1672 11.5C18.1672 11.5 24.8078 11.5 26.4875 11.9688C27.3859 12.2031 28.1281 12.9453 28.3625 13.8828ZM15.9797 22.2031L21.5266 19.0391L15.9797 15.875V22.2031Z" fill="#1F3C8A"/>
</svg>
